<mxfile host="app.diagrams.net" modified="2024-01-16T14:09:01.734Z" agent="Mozilla/5.0 (Macintosh; Intel Mac OS X 10_15_7) AppleWebKit/537.36 (KHTML, like Gecko) Chrome/120.0.0.0 Safari/537.36" etag="C-5XesWTEf5stnwPJsdO" version="22.1.18" type="github">
  <diagram id="3228e29e-7158-1315-38df-8450db1d8a1d" name="Page-1">
    <mxGraphModel dx="1741" dy="1416" grid="0" gridSize="10" guides="1" tooltips="1" connect="1" arrows="1" fold="1" page="1" pageScale="1" pageWidth="1100" pageHeight="400" background="#EFF1F3" math="0" shadow="0">
      <root>
        <mxCell id="0" />
        <mxCell id="1" parent="0" />
        <mxCell id="g8OvMQnWQ2Onqp0YjfBk-3" value="" style="rounded=1;whiteSpace=wrap;html=1;fillColor=none;strokeWidth=3;dashed=1;strokeColor=#123f67;" parent="1" vertex="1">
          <mxGeometry x="41" y="-90" width="318" height="449" as="geometry" />
        </mxCell>
        <mxCell id="g8OvMQnWQ2Onqp0YjfBk-16" value="&lt;font style=&quot;font-size: 32px;&quot;&gt;存储层&lt;/font&gt;" style="rounded=1;whiteSpace=wrap;html=1;fontSize=22;fontColor=#FFFFFF;fillColor=#4A919B;strokeColor=none;" parent="1" vertex="1">
          <mxGeometry x="84.25" y="205" width="237.5" height="105" as="geometry" />
        </mxCell>
        <mxCell id="g8OvMQnWQ2Onqp0YjfBk-18" value="" style="shape=flexArrow;endArrow=classic;html=1;rounded=0;fontSize=16;fontColor=#000000;fillColor=#FDD276;strokeColor=none;endWidth=35.714285714285715;endSize=7.885714285714285;width=20.714285714285715;" parent="1" edge="1">
          <mxGeometry width="50" height="50" relative="1" as="geometry">
            <mxPoint x="197" y="117.25" as="sourcePoint" />
            <mxPoint x="197.24" y="194.75" as="targetPoint" />
          </mxGeometry>
        </mxCell>
        <mxCell id="g8OvMQnWQ2Onqp0YjfBk-23" value="&lt;font size=&quot;1&quot;&gt;&lt;b style=&quot;&quot;&gt;&lt;font style=&quot;font-size: 29px;&quot; color=&quot;#123f67&quot;&gt;存算一体架构&lt;/font&gt;&lt;br&gt;&lt;/b&gt;&lt;/font&gt;" style="text;html=1;strokeColor=none;fillColor=none;align=center;verticalAlign=middle;whiteSpace=wrap;rounded=0;" parent="1" vertex="1">
          <mxGeometry x="100" y="-74" width="206" height="32" as="geometry" />
        </mxCell>
        <mxCell id="g8OvMQnWQ2Onqp0YjfBk-26" value="&lt;font style=&quot;font-size: 32px;&quot; color=&quot;#000000&quot;&gt;计算层&lt;/font&gt;" style="rounded=1;whiteSpace=wrap;html=1;fontSize=22;fontColor=#FFFFFF;fillColor=#9AC7BF;strokeColor=none;" parent="1" vertex="1">
          <mxGeometry x="83.5" y="5" width="239" height="100" as="geometry" />
        </mxCell>
        <mxCell id="g8OvMQnWQ2Onqp0YjfBk-30" value="&lt;font size=&quot;1&quot;&gt;&lt;b style=&quot;font-size: 20px;&quot;&gt;&lt;font color=&quot;#123f67&quot;&gt;@小白debug&lt;/font&gt;&lt;br&gt;&lt;/b&gt;&lt;/font&gt;" style="text;html=1;strokeColor=none;fillColor=none;align=center;verticalAlign=middle;whiteSpace=wrap;rounded=0;opacity=30;textOpacity=30;" parent="1" vertex="1">
          <mxGeometry x="54" y="133" width="145" height="32" as="geometry" />
        </mxCell>
        <mxCell id="Vk-62K6m2aPXj279RXAr-1" value="" style="shape=image;verticalLabelPosition=bottom;labelBackgroundColor=default;verticalAlign=top;aspect=fixed;imageAspect=0;image=data:image/png,iVBORw0KGgoAAAANSUhEUgAAAgAAAAIACAYAAAD0eNT6AAAABHNCSVQICAgIfAhkiAAAAAlwSFlzAAAN1wAADdcBQiibeAAAABl0RVh0U29mdHdhcmUAd3d3Lmlua3NjYXBlLm9yZ5vuPBoAACAASURBVHic7N15fFx1vf/x15mZZCZ72+xpmqRpmybd05buLbRsBQooiLKIIu6KIuqPK9crLlevKFdFryLuiOKCUNkpUAqllO77kqXNvu/LJLPPnN8fM0mTNm3TycycmeTzfDzmMSdn5pzzCQ+a7/t8zznfr6KqKkKIwFEURQHigAQg0fdKGPIeDUQBhvO8X+izS32/2HcUwAW4h7y7R1h3vvdL+a4LsAH9vpdlyHL/RdZbVPljJURAKfJvSggvRVFiOX+jnXiRz4YuxwO6EJc/EVi4tNDQC7QDbb73dqBdVdX+kFcuRBiSACDGFUVRDEAqkOF7pfve04AkLtx46zUoWYSelSGBgLMCwkjrVFV1aVOqEMEjAUCEPUVRdEAKZxrzoQ372etS8HZrCxFI3Vw4NJz9c7dcshDhTgKA0IyiKFMYuRE/e10qcnYuIosL6ODCgaENqAXqVFW1aFSnmMAkAIigUBQlDZgx5DWNcxv4KM0KFCK8tOMNAwOvmrN+bpEeBRFoEgCEXxRF0QM5DG/kh77itatOiHHHDtRzbjCoBaqBalVVnZpVJyKSBABxXr674vMZuYHPRc7ghQgXLqAKKD/rVQY0Su+BGIkEgAlOUZQUzn8Wn6lhaUKIwOgHTnFuOChXVbVLy8KEtiQATBCKoiQANwPzGN7IJ2pZlxBCU+14ewnODgenVVW1aVmYCD4JAOOcoigLgG8AHwBiNC5HCBEZPMBp4PCQ1yFVVZs1rUoElASAcUxRlLXAy8hZvhAiMFo4KxQAp1RV9WhalfCLBIBxSlGU1cCbyFm/ECK4LMBRhoeCY6qqWjWtSlyUBIBxSlGUHcAaresQQkxIbrz3EgwEgsPAYVVV2zStSgwjAWAcUhRlFbBT6zqEEOIsjXjDwC7gHWCvqqoOTSuawAxaFyCC4jatC5jodHo9MbFxmGLjiImLwxQTS0xcPKaYWKJjYjDoDegNBnR6PXqDAb3egN63rNPrMRgGPvd9Zhj+uV5vwDBs+zP70Z31/bP3rTec+RwUPG43Ho8Hj9uFx+PB7Xbj8bi9690e3+du3/oz3xu2fsj3BvbnHvo9txu324XDZsNus2G3WX3L1sHXwGcOmxW73YbDeuYzp0PaiHEiy/e63vezVVGUXcB2vIFgj6qqdo1qm3AkAIxPcVoXEIkURYcpNtbXYPsa7tg477rYeN/70PXnfmbybRttNGr964ya3mDwTbQQrXEl56eqniEBYaTgYPV+Zrdht1qxWfvp6+nG3N2Nuacbc08XfT3d9Pf24PHI/WphJAbY4HsB2BRF2Y03EGwHdsnjiMEjlwACRFEUBViEN90mAEbgLVVV6zWo5Sng7lAfN1wYDFEkTplC0uRkEqckkzQleXA5Ni5+2Fm5KS6emJhYTHFxGE1yv+R4p6oe+s1mXzjowtzT7V32BYTh67wvu1Xm6dGQHdiLt3dgO/C+3FwYOBIAxsA3it61wEbfe+pZX1GB94BHVVV9KVh1/OntAzFAEd5Bfub+6dHv3brjtRdnBOt4WtDp9SROmkLSlGQSJ08haUqK7z2ZxMm+Rt73WVyCPPUoAsfpcJwJB73dw4KCubuLvrPW9fX24HG7tS57vHIA+xgeCPo1rSiCSQC4BL4JcJbhbfCvA5YAulFs6gG+pKrq42Ot4U9vH8gALvO95uNt9POH1tFQXcm37v3wWA8VdIqiI2HSpDNn6pOnkDglxXfGPsW3ztuwxyUm4e1kESK8qaqKpc882IvQ19NNb3cnvd1d9HR1Ye7upKu9jc7WZrrbWnC7XFqXHMmcwH7OBIKdqqr2aVpRBJEAcBGKomTgbfA3AlcDU8awu/tUVf3VaL/8p7cPJAFLOdPgLwOyR7Pt9z53N9XlJX4VGShxCYmkZWWTNjWb1KxsUjOzmZyS6jtbTyE+aRI63WjykxDjk8PlpKOtldbGBtqaG2lvbqKrtYmu1ha627wvl1Mm+bsELuBd4HngBVVVazWuJ6xJADiLoigGYBVnzvIXAoE69ewE8lRVNZ/9wZ/ePmACijnT2F8GFPh77NpTZfzoq5/F2h+8MKwoOqakppHqa+TTsrwNfVpWNqmZU4mNTwjasYUYr1xuN063G5fbjd3ppKujna7WZrpam+luax1c7mprobu1BZdTnpC4gIN4w8C/VVU9rnUx4UYCAIM38K0B7sT7CF1yEA/30B+37f8R3q77Zb7XQHd+QJ/KKD92iJ8+eB8Ou/9P1UQbjaRkTD3TuA9p6FMyMjEYZEZgIYJJVVWcbjcOlwuny4XD7Wbo3+2+7q7BQNDlu6zQ1dpCt2+dcwz//seZCrxh4Hm89w5M+MdBJnQAUBRlEd5G/3ZgWiiOmZ6d0/3DpzZ7GNulhFFrqqliyzN/Ydebr+FyjdyVGJ80idRMbyM/8Er1NfRJU1Lk2rsQYcbpdnvDgMuF0+3GfYFHG/t6umlvqKOltpqW2ipa6qppqa3GYu4NYcVhpxV4EXga2K5O0IZwwgUARVFmAHfgbfiLQn389OwcfvjU5lAflp7ODqrKTmC3egdaiYmLH2zoY2Jl2AAhIpnb4xkMAw6XC9conkLo6+7yhoK6gWBQQ2ttNTbLhLupvhp4CnhKVdUKjWsJqQkRAHw38n0Yb6O/XMtakqYk87NnX9eyBCHEOOfxeLC7XNhdLhxOJ55L+Dvf0942LBS01FTRWl8zUS4lvAc8CfxLVdVx30UybgOA72a+DwH34h1lSq9tRV55BUU8/MRftC5DCDGBOH03FNp99xFcKlVV6Wpt9oaC2hpaaqtorauhraF2vD6lYAX+DfwZ2Dpe7xcYdwFAUZRJwGeALzHKR+ZC6fYvfJVrPnSn1mUIISYoj6ricLmwO504XK4L3j9w0X15PHQ2NdBcW01T1Wlqy05Sd6oUh21cDdbXAPwaeEJV1Q6tiwmkcRMAFEWZCdwPfIIwHQtfbzDwv/94haQpwXzIQAghRs/ldmN3ubA5nX71DpzN4/HQXFNJbdlJaktPUFN2gq6W5gBUqjkL3h6Bn6mqekrrYgIh4gOAoiiXAw8ANzK6Ufk086mHvseqq6+/+BeFEEIDbo8Hm9MZsDAwwNzd6QsEJ6kpO0FjRXkkXzpQgZeAn6iq+q7WxYxFRAYARVGigI/gbfgXa1zOqNz6qS9yw52f0LoMIYQYlcEw4HDgDPDcBm6Xi8bKU9SUnqC27AQ1pScwd3UG9Bghsh/4Kd6bBiNuTOeICgC+G/s+BzyEd9a9sDdnyTJuuvtTFCyIiJwihBDnCGYYGNDV2uztJSg7SU3pCZprKiNpUqU64IfAb1VVjZiiIyYAKIpyHfATNHh2/1IoisK0mQXMv2wVS9auJ2/2HK1LEkKIgHF7PFgdDqwOx5huILwYh81G/ekyakqOU3ZwD3XlJURAe3UC+JqqqhHxrHfYBwBFUYrwdrFs1LqW84lPmsS8pSuYt2wV85auIHFySAb5E0IITdmdTiwOB/YQXM/v7+2hbP9uSvbv4tThA+H+pMGreINAqdaFXEjYBgBFUZKB7+Dt8g/oGPljpdPrmVE0j3nLVjH/spXkFhSiKGF9/6EQQgSN2+PB4nBgtdsvadAhf7mcTiqPH6Z03y5K9u+ip70t6Mf0gwt4HPiuqqpheYND2AUA3w1+XwQeBiZrXM6gpOQUFq5Yw/zLVjFnyTJi4uK1LkkIIcKOzenEYrfjCOBTBBfTVFVByf5dlO7bRUNFebhdKugEvgs8Hm43CoZVAFAUZTXwR7zT4GoucfIUll5+FcuuuIpZ8xfJWb4QQoySy+0e7BUIZStj7uqk1HepoOLIQZyOsBnC+CDw4XCabyBsAoCiKF8BHkXj7v6ESZNZsnYDy9ZfzeyFi6XRF0KIMXB7PPTZbFgdjpAf2+mwU3H0ECX73qd0/+5weNSwF/i0qqrPaF0IhEEAUBQlHvgD3sl6NBGfmMSStRu47IqrKSxeik4njb4QQgSSyxcEbBoEAfDOZ9BQUc7h7Vs5tH0r1j6zJnX4PAE8oKqqTcsiNA0AiqIUApvR4NE+gyGKJes2sPraTcxZvAydPizmChJCiHHN5XZjttlC8uTAeWtwOjm5dycH3trC6SMHtLpn4AjeSwLlWhwcNAwAiqLchvd6f0jvpkvJyOLyTR9k7fU3kzhJHtcTQggtON1uzFZrSG8WHEl3eysH3trCwbffoKs15HMW9AGfU1X16VAfGDQIAL7R/H6MdxjfEB1Tx/xlK9lw823MX75KrusLIUSYsDoc9Fqtmt+5r6oqFccOsX/ra5zc816o5yr4T1VVfxjKA4I2AeD3wCdDcayESZNZe91NXLHpVlIyI2LkYCGEmHDcHg+9Fgt2jXsDBlj7zOx94xV2vvQsfT3doTrsfaqq/ipUB4MQBwBFUf4L+O9gHydt6jRu/OgnWb7hGgxR0cE+nBBCiACwOByYw6A3YIDTYWf/1tfY8fwzdLe3BvtwKnCPqqpPBftAA0IWABRFuRsI6i+WnJbBjXd/ijUbb5Sb+oQQIgK5PR56LBbN7w0Yyu12cWT7W2z/9z9oa6gL6qGA21RV/XcwDzIgJAFAUZQNwBYgKhj7T0pOYdNd93L5pg9iMATlEEIIIUKoz2ajz6bpU3LnUFWVE7vf453n/kZj5algHcYB3Kiq6hvBOsCAoAcARVHmAjuBpEDvOz5pEtff8XE23Pxhoo3GQO9eCCGEhix2O73W8Jv0R1VVDr3zJlue+m2w7hGwAGtVVT0YjJ0PCGoA8E3ocxDICeR+dXo9133kY9xw5ycwxcYGctdCCCHCiNXhoMdi0bqMEdn6+3j96T+w9/WXg3Hfwm5VVVcGeqdDBTsAPAL8RyD3OXX6DD75H98hryDkYwcJIYTQgM3ppLu/X+syzquhopwXfvNz6k+XBXrXd6qq+vdA73RA0AKAoigpQBUBGuhHp9dzwx33cOPHPiXX+YUQYoKx+0JAeDwfcC5VVdn92gu8+uQTuAN3A2MtUKiqalCugwQzAATs7D8zJ4/PfPP75M4qDMTuhBBCRKBwvSdgqPpTpfzt0e8F8rHBb6mq+v1A7WyooASAQJ79Fy5awn3f+19i4xPGXpgQQoiI1mE243S7tS7jgvp7e/jnz/6H00cOBGJ3fUCBqqpNgdjZUMEaE/frBKDxX3HVdXz1x7+Uxl8IIQQAiRFw43dcYhKfePgRVm+6NRC7iwe+HYgdnS3gPQCKoiQB9YwxAGy6614+eO/nURQlMIUJIYQYF3qtVix2u9ZljMrzT/yMvW+8MtbddAJpqqoGtOsjGD0A6xhj4796443c8skvSOMvhBDiHAkmEzpdZEzqdvNnv8L81ZePdTdTgLUBKGeYYAUAv02dPoO77w/ok4NCCCHGEUVRiI2OjHleFEXhw/c/REZu/lh3tSkQ9QwVjACwxt8NjaYYvvDtHxFtNAWyHiGEEOOMMSpyHgfXGwzcet/Xx9prMS9Q9QwIRgDI83fDZRuuITPH782FEEJMEFF6PboIukw8dUYBi664eiy7yA1ULQOCEQCS/d1w0coxXT0QQggxgegj5D6AAYVLVoxl8/AOAL4nAPzql9EbDMxZsiyQ5QghhBjHIuVGwAEzFxSPpeYYRVEmBbKeQP/Xi/F3Q9XjweV0BrIWIYQQImw4nQ48Ho/WZQwKm/jk8Xg4sX+31mUIIYSIEO4wakxHo+LoIa1LGCZsAgDAgXe3aV2CEEKICBFOZ9OjcWzndq1LGCasAsC+7Vs5/P67WpchhBAizDlcLjxBnM4+0I7ufIeSfe9rXcYwYRUAAP746Pfo6WjXugwhhBBhzB5B94yZuzp54Tc/17qMc4RdAOjr6eZ3jzwcyPmUhRBCjCNujweLw6F1GaPicjr4188fwdpn1rqUc4RdAAA4eWAvP3voy9gsFq1LEUIIEWbMVivBmMo+0Gz9ffzxOw9y+uhBrUsZUVgGAPCGgEce+DQ9nR1alyKEECJM2J1ObBHQ/d/b2c5vvvkVqkuOa13KeYVtAACoPVXGD770CVrqa7UuRQghhMZUVaXXatW6jItqra/liW98mZbaaq1LuSAlkN0oiqJkAE0B26FPXEIid973dVZefX2gdy2EECJCmK1W+u12rcs4L1VV2fvGy7z259/isAUlqExWVbU7UDuLiAAwYP6yVXzsq/9JclpGsA4hhBAiDPXb7ZjD+Oy/q6WZzY//hIpjQR3sZ+IGAABjTCwf+vR9bLj5NpQImglKCCGEf/psNvpsNq3LGJGqquzZ8iJb/vI7HMGvcWIHgAEz5y7gE1//Fpm500NxOCGEEBoI527/jqYGNj/+E6pOHA3VISUADNAbDKy+dhOb7rqXlIysUB1WCCFECPRarVjCsPHvbmvh7Wef5uC2N3C7QzpmjQSAs+kNBtZceyObPnovyemZoT68EEKIABq4298aZoP99LS38c5zf2P/W69pNVidBIDz0RsMrNl4E5vu+oQEASGEiEAOl4seiyWsZvrr7Wznnef+zv6tr2o9bb0EgIvRGwysve4mbrjrXnliQAghIoCqqvTZbGF1vd/c1cn2zX9n7xuv4HKGRW+EBIDR0hsMFK++nMs33cKcxcvkqQEhhAhDTt9ZvysMzvpVVaXi6EH2vfkqJ/fsDPU1/ouRAOCP1MyprLvhA6zZeBNJU5K1LkcIISY8Fe8jfv1h8IifuauTA9u2sG/rq3S1NGtdzvlIABgLnV5P8arLuXzTB5m7dDmKEtajIQshxLhkdTjos9k0vdavqirlh/ay781XKd2/G4/brVktoyQBIFBSMrJYd/0HWHPdjUxKTtW6HCGEGPdsTid9Vqum3f097W3sf+s19r/1Gj3tbZrV4QcJAIGm0+uZd9lKlq7bwKJVlxOfmKR1SUIIMa7YnE76bDZcGp1l93Z2cHLvTk7s3kHlscMRMZ3wCMZnADBERaHX6bBrfAeoTqejYMFiFq9dz5I165mcmqZpPUIIEcnsvobfqUHD39ncyIk973Fi93vUlZdo3ugbTSZcTidu//9bjM8AkJKaxj9feJkH77+PA/v2BqymsVAUhbyCIpas28DitRvIyM7RuiQhhIgINqeTfrsdZ4gHzGmuqeLE7h2c2P0ezTWVIT32hSxYvJQHv/N9PnvnbfT3mf3dzfgNAPtOlOHxePjbU0/y6A++R29PT8BqC4Ss3HyWrF3P4rXryZ1VqHU5QggRVtweD1aHA4vdjidEZ9uqqlJ/qpTju3dwcs9OOpoaQnLc0UpISuKz93+N6z9wK4qisGntcgkAZxsIAAM6O9r50X9/l3/9/WnNu21GkpyeyeI1VzB3yXIKFizGFBurdUlCCKEJu9OJxeHAHqJR8izmXqpOHOX00QOU7H2f3s6OkBz3UiiKwsabP8hnvvxVJk2eMrheAsAIzg4AA04cO8oj3/sO721/e6zlBY1OpyNv9hwKFy2lqHgpM+ctxGiK0bosIYQIGo+qDp7tB/tRPrvFQtXJo1QcO0Tl8cM0V1eG5YnhgKUrVvGZ+7/GrMKicz6TADCC8wWAAW9vfZNHf/A9Sk4c97e8kNEbDOQXzqVw0VIKi5cyc+5CoqKjtS5LCCHGzO50YnM6sTkcBKsJdths1JQep/LYYSqOH6axohxPGIwSeDEFRXP51H33c9mqNef9jgSAEVwsAID3Ws+Wl1/ksR8/QnlZqT+H0YQhKpoZc+ZRVHwZhcVLyS+ah8EQpXVZQggxKgONvt3pDMq1fZfTQW3ZSW+Df+wQ9afKwm0I3gvKnzWbT3z+Ptasv/Ki35UAMILRBIABqqry5pZX+fXPH+Pwwf3+HE5T0UYjM+ctpHDRUgoWFJNXMIdoo1HrsoQQYpDD5cLqu64f6EbfabdTX1FG9YljVBw7RG3ZyXCZbOeSFM1fwEc/+VlWrrti1HPNSAAYwaUEgKF2vbeD3//6l7y99c2wviZ0IXqDgZyZs5k5dwH5RfPInVVIenaOTF4khAgph8uFzeHAFsBGX1VV2hvraagop668hNqykzRVV0TCsLsjUhSF5WvW8eG776H4suWXvL0EgBH4GwAGVJ4+xZ9++wSbn/kHFovF7/2EC1NsLDkzC8krKCR3ViF5BUVk5OTK3AVCiIDxqCoOlwt7gLr3PR4PbQ21NFaeoqHiFI0V5TRWVeCwWQNUsXZi4+K4+oabuPWOjzItb7rf+5EAMIKxBoABfWYzzz/3L/725z9FxA2Dl8JoiiFnZgG5BUXkFRSRW1BEZk4eOp2EAiHE6DjdbuxOJw6XC8cYBunxuN201tfSWFFOQ+UpGipP0VR1GqfGo7kG2szZhdz0odu56vpNxATgcW8JACMIVAAY6sC+vfzjL3/m1ZdewNLfH9B9h4too4lpMwq8PQW+3oLMnDwMUfLUgRDCe5Zvdzqxu1w4/DzLdzkdtNbX0lR5mgZfg99cXYnTMb4a+wGxcXFccfVGbrjlQ8yZvzCg+5YAMIJgBIABVquVLS+/yHP/+Du7du6IiMdJxkKn05GalU1W7nSycvO973n5ZObkEW00aV2eECLIHC7XYIN/KWPwO2w22hpqaa2vobWuhtY673Jnc2PE3mM1WopOx5JlK7hm082su/JqjKbg/K2UADCCYAaAoVqam3np38/x4uZnOXbkcNCPF04URSE5I9MXCvKZ6gsGWbnTMcbISIZCRCLVdx3f6XYPvl/s77rdavE28PW+Rt633N3WMu4b+rPNKiziims2cvX1N5Ganh7040kAGEGoAsBQVRWneenfm3n5hc2cKgvtscNNclrGYBjIys0nPXsaqZnZTEpJlacRhAgjbo8Hp8uFw9fgn296XVVV6e1op7OlifbG+iENfg09HW0hrjq85M8qYP0117Fh4/VkZU8L6bElAIxAiwAw1KmyMra8/CJbXnmJk8ePaVZHuDFERZOSkUlq5tQzr6yppGR432Ni47QuUYhxzeVr6B1uN06Xa9iwuzZLP50tTXQ2N9HV2jRkuZmu1mbcIZ6JL5wVFM1l7YarWHfV1eTk5WtWhwSAEWgdAIZqqK9j65bX2Pr6Fvbs2onTEXkDVIRKfGISKWeFg1RfOEhOy0Cn12tdohARw+3x4HS7cbndON1ubHYbXa0t3oa9pZmuFl8j73tZ/W9Ixr2o6GgWLV3G6svXs3LdetIyMrQuCZAAMKJwCgBD9ff1sWP722zf9hbbt22lqSG8ppoMZzqdjilpGUxOSWVSShqTU1KZnJLGpJTUwXWTklNlFEQxIVmtVtpbmuhoa6WjrYWutlZ6Otrp7Wynp7Od3o52ejvaxv1Ny4GUnpnFstVrWLZqLUuWrwzIY3uBJgFgBOEaAM5WXlbK9re2sn3bW+zbvQvHOH0MJpTiEhJ9oSBtWFg4sy6NhEmT5V4EERFUVcXc3UVXeytd7a10t7fR0dpCZ3srXW2tdHe00dPRLmfvARBtNLJwyWUsW7WGZavXaNq1P1oSAEYQKQFgKJvNxp73d7LjnW28v+NdSk+emHB30IaK3mAgaUoyCUmTiUtIJC4hkdiEROISEoiN977HJSQRm5Dg/Tw+kdiEBGLi4iU4CL+oqoq1vw+L2Ux/Xy/95l7vsrmHfrMZS1+v993s/azf3Iu5u4uerg659h4kOp2OornzWLV2HWuvWE/+7Lk4I6yHRALACCIxAJytp7ubvbvfZ8/7O9m98z1KThyX7juNKYqO2Pj4M4EhPsEXHAZeAwEi0RcekrzrEhIxxcRKeIhwqqpis1p8jbS38fY24r2DDfhA420x99Lfd6ZBt/T1oary71dLOp2OufMXsHzVapavXM1lK1aSNGnS4Odtnd30WyNrmOFwCgCGQO1IQNKkSVy98Xqu3ng94A0E+/fsZt+e3ezfs4ujRw7LDYUhpqqewT/wl0qn0xEbn0BcYpL3/azAMFIvRGxCIkajCb3BgN4QhcFgkBsh/eRxu3G5XLhdTtwuF3a7bbAhH+nse2iDbukz09/bg6XPLCE8gkRHG1mwaBFLl6/ksuUrWLp8BYlJSVqXNW5JAAiipEmTuPLajVx57UYA7HY7xw4f4tCB/Rw5dJCjhw5SV1ujcZXifDweD329PfT19oxpP4qioNcb0BsMGKKiBpf1UQYMegP6qCjvz/rhnw8sG4Z9brjg5/oob+gYWB7cZuj+hywDuJxO3G4XbpfrrGWXd9m3zuU6szz0uy6nt4H2Lrsu8vmZ7d1OJy63C7fTNfxz37JcThv/puXksnDxEhYsKqZ4yVIWFBcTHS03BYeKBIAQMhqNLPWl2gFdnR0cOXSIIwcPcPTwQQ4fPEhnR7uGVYpAU1UVl8uJy+XEPg5mRRPCH8kpqSwsLmZh8RIWFC9mYXExk6cka13WhCYBQGOTpyRzxZVXccWVVw2ua6iv48jBA95gcOgAx44cHreTGQkhxp+4+HjmL1zEwuIlLCwuZkHxYqaGeMQ9cXESAMLQ1OxpTM2exvU3fQDwdkWfPlXu7SU4dJAjhw9RXnIS+zibdlMIEXlMJhMFRXNYuKjY152/mBmzZsk05RFAAkAE0Ol0FMwupGB2IbfdcRfgDQW11VWUl5VSXlJCeVkJ5aWlVFaclhsNhRABFx1tJH/mTAoKCykonON7L2JaTq409hFKAkCE0ul05OXPIC9/Btdcd8PgerfLRVVlJeWlJ73hoLSU8tKTVFdVybPJQoiL0hsM5M+YwazZRd4Tj6IiCmYXkZefj16eaBlXJACMM3qDgZkFBcwsKOD6IeudDgcVp09RXlrKqbISykpKKC8rpb62BvclzBcuhBgf9Ho903LzmF1YxKzCQgpmFzG7qIjp+TOIio7WujwRAhIAJoio6GgK58ylcM7cYeudDgf1dbVUV1VRW11FdVWl772KutoauZwgRASLjjYyLTeH3On55OZNJ296vm85j+xpOYOPgoqJSQLABBcVHc30GTOZPmPmOZ95PB6aGhuoqaqipqrynJBgsVg03ydEJAAAIABJREFUqFgIMVRsXNxg456TN5286dMHG/yMrCy5Pi/OSwKAOC+dTjf4RMKqtevO+byttZWa6oFwUEl9bQ1NjY00NzbS3NQoTykIEQAmk4n0zCwys7LIyMwiJy+P3Lzpg2fyKalpWpcoIpQEAOG31LQ0UtPSWLps+Yifd3V1+sJAE82NDTQ3N53zc2/P2EbZEyKSJSYlkZHpbdgzs7LIyMoiIyOTjKypZGRmkpGZxaTJk7UuU4xTEgBE0EyePIXJk6dQNHfeeb9jsVi8YaCpieamIeHA93N7exud7e3SmyAiitFoJDk1leSUVDIyMn2N+5lGPSPT28jHxMRoXaqYwCQACE3FxsaSP3MW+TNnXfB7lv5+bxjoaKezvYOOjnY6O9rpaO+gw7e+o6ODznbvemuEzRAmwltMTAxTklOYkpJCSkqKdzk5heSUZN97KsnJyUxJSSE5OYXYuDitSxbioiQAiIgQGxdHTlwcObl5o/q+1Wr1BoN2XzAYEhh6erox9/bSZ+7F3NuL2dyL2WzG3NuLpb9fJqEZpxRFITYujoTERBISEkhISCQhMZF433tS0qTBBn1KcsqZBj0lVc7UxbgkAUCMSzExMWRPyyF7Ws4lbefxeOjv6zsnGPSZzZh7ezCbvcu9vb1n1vvWWa0WbFYbdrsdm82K3W6XxyjHKCo6GpPJhNFo8r6bjMTExBI/rAFPIDHRtxyfQEJikvfzxEQSB9clEhcfL3fECzGEBAAhhtDpdN4zxMTEgOzP4/GcCQQ2O3ZfMLBZrdhsNux2m/fd5nv3fTZ0G4fDjsftxu124/Z4ziy7Xb73Ies8bjxuNy6XG49n4HvedQPbulze7Twet+931qPX6zEYDOj0evQ6nffd99Lp9BgMet9nvnV6PXq9zvcdw5l1Ot3gcnS0EaPJiMkUg9FoxBTjezeZMJq8DfrZnxlNMcO2kQZbiOCRACBEEOl0OmJiYqQLWQgRdiReCyGEEBOQBAAhhBBiApIAIIQQQkxAEgCEEEKICUgCgBBCCDEBSQAQQgghJiAJAEIIIcQEJAFACCGEmIAkAAghhBATkAQAIYQQYgKSACCEEEJMQBIAhBBCiAlIAoAQQggxAUkAEEIIISYgCQBCCCEuyOPxaF2CCAKD1gUIIYTQnt1uZ9d7O9i/Zxctzc20tbbQ1tpKa0sLnR3tREVFkZaeQWpaGqlp6aSmpZGTl8e69Vcyu2iO1uULP0gAEEKICaq5sZFtb77Otq1v8P6727Faref9rt1up662hrrammHr/+c7D5M5dSobrrqGDVdfy8q164iJiQl26SIAFFVVA7czRckAmvzZNiU1jX0nygJWixBCiJEdPrif//3B99m5Y3vA920ymbjrnnv54le+yuQpyQHf/1Btnd30XyC0hKNNa5fT32f2d/PJqqp2B6oWuQdACCEmiPKyUj778Y/ywY1XB6XxB7DZbPzhicdZu3QRP3/0R1j6+4NyHDF2EgCEEGKca25s5Gv3fZ7rLl/NG6+9EpJj9vf18dijj7B26SKe/N1vcLvdITmuGD0JAEIIMY7t3vke129Yx+Zn/qHJ3fydHe1895vf4BN3fJie7oD1XosAkAAghBDj1FN/+B0fve2DdHV2aF0KO97Zxs3XbKC8rFTrUoSPBAAhhBhnnA4H33jgy3z7oQdxu1xalzOoprqKD268KmSXIcSFSQAQQohxxNLfz+0f2MQ/n/6L1qWMyNLfz+fuuZvfPf5/Wpcy4UkAEEKIcUJVVR74wmc5uH+f1qVckKqq/PC732bLKy9pXcqEJgFACCHGiccefSRiutdVVeVrX/wcZSUntS5lwpIAIIQQ48BrL73A//3kUa3LuCQWi4VP330nXV2dWpcyIUkAEEKICFdy4jhf/9IXCOTIrqFSV1vDF+79eFjdrDhRSAAQQogI5vF4+MrnP4PFYtG6FL/t3vkef/jN41qXMeFIABBCiAj24ubnKC8tCeoxjAYdOiWoh+DXv3iMPrPfY+QLP8hsgEIIEaHcLheP/fiHAd1nbLSOa+ZP5qbiZJbmJZA5KZrJcQZcHpWWHif1nXa2nuzipUOdHKg2E6irDt1dXfzu17/kgQcfCswOxUVJABBCiAj1zN/+Sk11VUD2lWDS88DGbL66cSrxRv05nxt0ClMnRzN1cjTLZyTwzRtzKGm08M1nq3nxUGBGGvzDE49zz6c+E/RZBIWXXAIQQogIZLfb+cVPA3PX/y1LUzj16GU8fHPOiI3/+RRlxbL5y3N456EFTJ0cPeY6+vv6+PUvHhvzfsToSAAQQogI9PLzm2lubBzTPhQFvnVzDv/8QhEp8VF+72dNQRK7Hy5mWX7CmOoB+Ouf/oDNZhvzfsTFySWAEOrv6+Pl5zdTcfo0RpMRo9FE3vTpLFy8hGk5uVqXJ4SIIG+9vmXM+/jxR/J54NqpAagGMidFs+0bC9jwyFH2Vvp/M5/VauX9d7ez4ZprA1KXOD8JACFg6e/ne//1EC9ufhar1TridyZPSWbR4sUsLF7CoiVLWVBczOTJU0JcqRAiEjgdDra//daY9nH36rSANf4DTFE6Nn95Diu+e5j6Lrvf+9n6xhYJACEgASDIOjvauef22zh25PAFv9fV2cHbW9/k7a1vDq7LzZvOwiGhYO78BRiNxmCXLIQIc7vffw9Lf7/f2xdkxPDEPbMCWNEZGUnR/P0Lhaz9wRG/97HtjS2o6k9RlCA/ezjBSQAIIpfTyYdvup6KU6f82r6muoqa6ipe3PwcAIaoKAqL5rCweDELFy9h0eKlzJg1C51ObuUQYiLZOsbu//++NQ+jIXh/N1bOTOSWpSls3t/u1/Ytzc0cP3qE+QsXBbgyMZQEgCB66fnNfjf+I3E5nRw/eoTjR4/w9J//BEBsXBwFs4uYPWcOswuLmF00h9lFRSSnpAbsuEKI8LL9ra1+b7skL55bl6YEsJqRff/WPJ4/0I7Hz3ECtr+1VQJAkEkACKLf//pXQT+Gpb+fwwf3c/jg/mHrk1NSKSyaQ0HRmVBQUDiH2NjYoNckhAgej8dDfX2d39vfvTo9gNWcX0FGDJflJ7Cnwr8bAmtrqgNbkDiHBIAgaWlu5uTxY5odv6O9jZ07trNzx/bBdYqiMC0nl4KiIgqL5jC7aA4FRXOYMWMmeoP8ryBEJOjq7BjTxDk3FodukJ3rF07xOwC0tbYEuBpxNvmrHyQ228h3+2tJVVVqa6qpralm65bXBtdHRUeTN306udPzyZueT07e9MGfp07NlnAgRBhpa231e9uCjBhyk0N3I/GVRZP4NjV+bTuW31OMjvxlDxK73f9HYELN6XBwqqyMU2Vl53ymNxjInpZD7pBQkJvnfc/JyyU6Wp5KECKUxnJmPG1KaP+9Tks2+b2t9AAEnwSAIMnIyCQ62ojDETlBYCRul4uaqkpqqip59+3hnymKQkZW1vBeg7zpZOfkkpmVRXJKqjzGI0SAtbb43zBmBWC43kuRnhSFTsGvGwE72tvxeDzylFMQSQAIksSkJK7aeB2vvvi81qUEjaqqNDU00NTQwK73dpzzeVR0NOnpGWRkZZGZlUVmVjaZWVnenzOzyMiaSmpamvwDF+IS2McwTG5M1OjH+Q8Eg04hSq/D7vJc8rZutxuXyym9jEEkASCIPnLXR8d1ALgYp8NBfV0t9XW15/2O3mAgLT2drKypZGRN9QaEzCxfUJhKZmYWqWlpGKL8H6dciPEkJS3N722behwBrOTiuvpdfjX+AAmJidL4B5kEgCBat/5KvviVr/Krx36qdSlhy+1yDfYiXEhiUhJTklNITk4mOSWVKSne5SnJKUxJTiElNWVwOTk5majo0HZ1ChEqaen+P8bXOIbhef3R1O1/4BjL7ylGRwJAkH39P79FT3c3f33yj1qXEtF6e3ro7emhurJiVN+PT0ggOSXVGxJSUkhOTmGKLzwkp6SQmJhEQmLimVdCIvEJCXI5YpxyOhyYzb2Ye3u9/y/5loe9hqzrPetnq9VCalo6U6dmM2f+fD73pfuZkhz8wXRGkprmf8NY0mjB6vAQEx2a/88P1vT5ve1Yfk8xOhIAQuC/f/wTbv7Qh/ndr/6Pra+/hsfjX5eYGL0+s5k+s5maqspRb6MoCjGxsSQOCQXegJB05ueEhHOCw8ByfHw8JlMMRqNRHp0MoGGN95DGurenZ1SNt7m3JyBP5fT39VFdWcHOHdv5+1/+zH0PfI1Pf+FLIQ+NqWO4BGBxeHjrZDebFoVmorFXj3T6ve1Yfk8xOvJXKkSWLlvO0mXLaWpoYP/ePd7R+w7s58SxoxH1yOB4pqoqlv5+LP39NDc1jWlfeoMBk8mE0WjCFGMaDAYmkwlTzMByDKYY73eMJt93TL71poF1Jm+g0OvR6fXodDr0Ou+yXq/zvuu8673r9Oh9yzqdzrudzvvdkfahqioulxOX04nT6cLtduF0On3rziwPfDbwPe86Jy6Xd53L5Rr83tD9uVwDnw1sO2TfLidul2v4Nr7vWSyWgDbegdZnNvPI975Dn9nM1x76r5AeOzrayKTJk+nu6vJr+38faA9JALA5Pbxx3L8aAdIzMgNYjRiJBIAQy5w6lRs/eAs3fvAWwDu+f8nJExw+eIDDB/Zz+OABqipOo6p+DqAtwoLb5aK/r4/+Pv+7QEX4+9VjP2XO/AVct+mmkB536fIVwwbzuhR/29XKN2/KIT/V/2f0R+NXbzXSbfF/xMKly1cEsBoxEiWQDY2iKBmAX6dOKalp7Dtx7kA0E1FvTw9HDx/k8IEDHDq4nyMHD9LR3qZ1WUKIEWRlZ7PzYGiH/f7nX5/iG1+93+/tb1+eyl8/VxjAiobrtrgoeHAfnf3+BYDoaCOHyisvOndJW2c3/dbwG3X1QjatXU5/n3/DIwOTVVXtDlQt0gMQhhKTklhz+XrWXL5+cF19Xe1gD8GRQwcpKzmJubdXwyqFEACN9fWcKitj1uzZITvm+quvRVEUv3sK/7m3jY8sTw3avABf+kuF340/wIrVa2TishCQABAhsqflkD0th00fuGVwXVNDA2WlJZSXnqT05EnKS0s4XV4WltdMhRjPtm/bGtIAkJaezryFizh2+JBf26sqfOy3Zez81iLmZAW2of3hy3X8fffYxvG/8tqNAapGXIgEgAiWOXUqmVOncsWVVw2uc7vd1FRVUlZaQlnJScpLSigtOUltdRVut1vDaoUYvyz9/SE/5lXXbPQ7AACYbW5u+tkJXv7qXAozAxMCnni7iYc3V495P1dec+3YixEXJQFgnNHr9eTPnEX+zFnDbkyy2+2cKiulvLSEspISykpOUFZaQktTk9xwKMQYZWVnh/yYN9/6IX7xkx+PKdhXt9tY/d9H+NvnC7l2/mS/9+PyqDzwdAW/3ja2p2cAlq1cxdTsaWPej7g4CQAThNFoZN6ChcxbsHDYepvNRm1NNTVVlVRXVlJbXUV1VRU1VZU0NtRLr4EQo5A1NfQBIHd6Ph+6/U7++fRfxrSfHquLG392nLtXp/PtD+SSc4nTBb9xvItvPFPF0brA9IJ8PcSPVU5k8hSAOC+X00l9XS011b6AUFVJTbU3HNTV1Eb8TIdCBEL+zFm8vn2nJvNVNNbXs37F0oD9WzQadNy9Oo2bFyezvmgSpqiRBzlq7Hbw6pFO/rarlXfLegJybIDLN1zJk/94dtTfl6cAxkZ6AMR5GaKiyMufQV7+DODKYZ95PB6aGxuprjrTa9BQX0dTQz1NTY20NDfjdvl/F7AQkeKhh7+r2WRVWdnZ3Pnxe3jyd78JyP7sLg+/397M77c3ExutoygrlqzJRjKTorE63TR2OajvtFPWHPhGV1GUkA+qNNFJD4AICo/HQ1trK82NDTQ1NXon/GlspKmxwbuusZGWlmZcTqfWpQrht9vv/jg//MljmtbQ3tbK5ZcVY7FYNK1jrK7bdBOP//HPl7SN9ACMjfQAiKDQ6XSkZ2SQnpHBQpaM+B2Px0N7WxvNjQ00NjbQ3NjoCwn1NDU20trcTHt7myZ3WAtxIYaoKL79g0f46D33al0KKalpfOXBb/A/33lY61L8lpCYyH9869talzHhSAAQmtHpdKSlp5OWns6C4sXn/Z7NZqOzvZ2O9jY6OjroaG+js6Od9rZ2OjuGrG/zrrdG2BmBiAxGo5Ely5ZzxZVXcfXG632XxsLDp7/wJU4cO8oLz43++nm40Ol0/OI3fyB3er7WpUw4EgBE2DOZTGRlZ4/6USuLxeINBm3DA0NHezudHR3eWeTOng62zyyXI8YxnU5HfELCsGmgE5OSBmdzTDzr5zOfn/l+TEyM1r/GBf3osV9SVVnJ0UMHtS7lknzj4e8OG8tEhI4EADHuxMbGEhvrHTnxUthstsEZ6IZOMds7wpSzw372TT1ss1mx2WwSJAJMURRi4+J8DXXSmemafT8PnbJ5WAM/5OfYuDgURdH6Vwkqo9HIb//8NDddfQWtLS1alzMqt3z4dj79hfu0LmPCkgAghI/JN/3uWOch93g82Gw27HYbdqv33WazYbfZBtcP/9mOzWr1vtus2G2+d7sdu82K0+nC43bjcrlwe9x43G7cbo/33ePG7T6zzu124Xb71nkG1rnPfNflOrPO40ZRFAyGKAxRBqIMURiioogyGDBEnbVsiCIqyuBb5/2+d12U73ODd3ngewP7Grrs21eU7/tn9nXu8aOio4lPSBg8I9fpRn4cTQyXnpHBb//8NB+5+YawHxJ88dLL+OFPtb2BcqKTACBEgOl0Ol8vRCz4P7iaEH5ZuHgJ/3zhFT57z0dpaW7WupwRXXPdDfzs8d8QHX1pgw6JwJJYLYQQ48zCxUt48c13WLR4qdalDKMoCl/++oM88eRfiI2L07qcCU8CgBBCjENp6en888WXueXDt2tdCuC9N+dXv/8TDzz40Li/HyNSSAAQQohxKjrayE9++Wse/v4PNT3jLphdyLOvvM51N96sWQ3iXGETAGTYWCGECI5PfOZz7Nh/mE985nMhve4+NXsa//t/j/Pa9p0UzZ0X8P27PZE3WZnbHT5tXdgEgK6uTmprqrUuQwghxqUpySk8/P0f8vbu/dx2x13o9fqgHuvbP3iEt3fv59aP3BG0pziczvBpTEejprICWxgNVBZWTwHs2vEuObl5WpchhBDjVlZ2Nj/++S/57H338/xzz7Dtjdc5efzYmPdrMplYtXYd66++lltu+0hILjkEci6bUDi4d7fWJQwTNpMBASwoXszmV15HbwirXCKEEONac1MTb7/5Otu2vsH+Pbvp7uq66DZ6g4Hs7GmsW7+B9Vdfy8o1azGZTCGo1sujqtQ2hudjjiNxuVx87q7bqCgf06R3AZ0MKKwCAMCXv/4gDzz4UIAqEkIIcakcDjttra20tbbQ2tJCe2srRpOJtPR0UtPSSU1LY/KUZE0HaOq32mjrvHhQCRe//+VjPP2H3451N+M7AOj1ev718haKl4TX86tCCCHCR1tnF/1Wm9ZljMqJo4f58ifuxjP2mxYDGgDC5ibAAW63my9+6h4qT5/SuhQhhBBhyOZwREzjX1ddxff+46uBaPwDLuwCAEBTQwMf2nRdxM1qJYQQIrhUFTq6e7QuY1RKjh3lvnvuojVMh2QOywAA0NXZwR233MSOd7ZpXYoQQogw0dvXFxGP/+15710e+Mw99PYErMc+4MI2AABY+vu5967b2fzMP7QuRQghhMZcbjfd5j6ty7ioV/79LN/8yhex28L7MkXY3QR4PtfdeDP//aNHSU5JDcbuhRBChDFVVWnp6MRmd2hdynl1drTz0+9/h53B67ke3zcBns9rL73A1WtW8tK/N2tdihBCiBBSVZXWzq6wbvzfeOVF7rllUzAb/4CLmB6Aoa69fhPff/QnpKSmBftQQgghNORRVVrD+My/o62Vn3z/O+x6951QHG5i9gAM9fqrL3PNmpU887e/4naH36MVQgghxs7jUWlpD8/G3+1289Kzz3DPrTeGqvEPuIjsARgqd3o+93/9QW665UNBndxCCCFE6Hg8HprbO3E4nVqXMozH4+aNl1/kqd89QVN9XagPP75HAvTX9Bkz+fLXHuSmW27VdHhKIYQQY2N3OGnv6sYZRtPEezxutr72Ck/95nEa6mq1KkMCwIXkz5zF/V//DzZ94IMSBIQQIoKoqkq3uY+eMHrUT/V42Pb6qzz5m8ep137KegkAozGzoIAvfuXr3HDTzURFR2tdjhBCiAtwOJ20d/WETZe/y+nknTdf56+/f4KaqkqtyxkgAeBSTElO4daP3MGdH/s4efkztC5HCCHEECrQY+6jx2wmgM2R3+prqnl587/Y8uLz9HSH3WyDEgD8oSgKK1av4Y6772HjDZukV0AIITTmcDrp6O7B7tD2rN/pcPDutjd5+bl/cXj/Xk1ruQgJAGMlvQJCCKEdp8tFd28f/VarpnXUVVfx0uZ/8fqLz4f1mP1DSAAIlKG9AtfecAPR0UatSxJCiHHL5XbT3Wumz6Jdw+9w2Hl365u89NwzHD24X7M6/CQBIBji4uNZf9U1XHv9Day/6hri4uO1LkkIIcYFl9tNj7mPPotFk+v8/X1mdu/Yzo5tW9n7/ntYLZbQFxEY4zMAxMbFkZObR+nJEwGrx1/R0UZWr1vHtddv4qqN18kEREII4Qe3x0OPuQ9zv4VAtjWj0dnRzs63t7Hj7a0c2rcHVxg8XTCraA41FRU4HHZ/dzE+A0BKahq7Dh/nV4/9lF/9/Kc4HeEx9KNOp2PJsuVce/0mrrn+Bqbl5GpdkhBChDW7w4m5v59+qy2kDX9jfR07tm1lx7atnDx2BNXjCdmxLyQ62sjHPvN5br/nk9x8xSr6+8z+7mr8BoB9J8oAqDh1im9/4/+xc8f2gNUWKHPmzR8MA4Vz5mpdjhBChAVVVem3Wunts4T0Wf7TZaXs2LaV997eSuWp8pAdd7SWrljF/Q99i2zfyeOmtcslAJxtaAAY8OqLz/M/33mYhtCPtzwq03JyWX35Faxas44Vq9eQmiazEwohJhany4W530KfxYonBGfcHe1tHN63h4N793Bgzy5amhqDfkx/pGdm8bkH/h9XXH3tsPUSAEYwUgAAsNvt/OGJx/n1L35Gn9nv/2ghMWv2bFauXsvKtetYsWoNkyZP1rokIYQIOBWwWG2Y+/uDPlNfT3cXh/fv49De3Rzat5fa6rAZlW9EcfEJ3Hnvp/jQXR8b8ckyCQAjOF8AGNDV1clv/u8XPPWH32LV+NnR0VAUhaK581i1dh0rV69l2cpVxCckaF2WEEL4zeZwYLHa6LdacbuDc7bf32fmyIH9HPKd5VedLg/5DYT+iImN5ZY7PspHPnYvCYmJ5/2eBIARXCwADGhva+WJ//s5f3/qSSwR9CiHXq9n3sJFrFqzllVr17Fk2QpiYmK0LksIIS7I7nDQb7XRb7XhdrsDvn+b1crRQwc4tG8Ph/bu4VRpCR5P4I8TLDGxsdx82+3cfs8nSZp08V5fCQAjGG0AGNDV1cmTv/sNf/79b+npjogRnIaJio5m0eIlXLZ8BQuKF7Nw0WIysrK0LksIIbA7nPRbrVisNlwBbvRbm5spPXGU0hPHOXboIKXHj+IKo2l/RyshMZFb7ribW+/4KAlJSaPeTgLACC41AAywWCw8+/en+eNvw2rGJr+kpad7w0DxEhYWF7Ng0WKSJk3SuiwhxARgdzixWK30B7DR7+3ppvTEcUpPHKPsxHFKjh+lq6MjIPvWytRpOdx6591cd/MtmPzoxZUAMAJ/A8AAj8fDtjde58nf/5b3d2yPiGtGo5E7PZ+FxcUsLF7CguLFzJ2/QC4dCCHGzOPxYLU7sNrs2Oz2MTf6NquV8pKTlJ04RumJ45ScOEZTmD7BdakURWHpytV84MN3sHLt5Sg6nd/7kgAwgrEGgKGqKk7z1yf/yOZn/kF3V9hN5zgmeoOBgtmFLChezKLixSwoXszMggKZx0AIcVF2hxOr3Y7VZsc+hsHWHA47NRUVg2f3pSeOUV1REVHX7kcjMWkS1954Mzfddvvgc/xjJQFgBIEMAAMcDjtvvPoKm5/5B+++vS0oN7CEA71eT15+PgWziygoKqJgdiEFhXOYnp+P3mDQujwhhEbcHg9Wmx2r3Y7NZsd9ic/pu1wu6muqqa44TdXpU1RVet8b6+rGXWM/QKfTc9mq1Vx38y2svnw9hqiogO5fAsAIghEAhmprbeX5Z//Js//4O+WlJUE7TjiJio4mf8ZMCgq9gaCgsJDZhUVMy81DN4YuLCFEeFJVFbvDMdi1P9oR+TweN411dVRVnKaq4tRgg19fUx2RN+j5I3/WbDbeeDNXXX8jk5OTg3YcCQAjCHYAGOrEsaO88Ny/eOn5zTQ3hucoUsFkMpmYWTCbWbMLmV1UxKzZRcyaPZup2dMkGAgRQdxuDzaHA7vv5XA4udBfdI/HTUtjI9WVFcMa+tqqqrFMUBOx0jIyWX/NRq68bhOzCotCckwJACMIZQAYoKoqhw8e4NUXn+fVl16gsb4+pMcPN1HR0WRPyyE3L4+cvOnk+l45edPJycvDaJT7DITQktPlwmb3NvY2hwOX69xueLvdRlN9PY31dTTU1dJYX0ej7725sWHCnNGfT0bWVK64+louv+paCufND/nxJQCMQIsAMJSqqhw7fIgtr7zEG6+9QsWpU5rVEo4URSE9I2MwGJwJCN6wIMMeCxFYqqricDqxOZzY7d4Gf2CsfXNPDw31dTTW19JY531vqPM2+J3tbePmKahAyc2fwdoNV7F2w1UUFGk7iZsEgBFoHQDOVl1ZwdbXt/DWG1vYt2c37gmemi8madKkM+EgN5eMrKlkZmaRkZVFRmYmySmpKIqidZlChCVvY+/C4XRidzhobm6mqaGBttYW2lqaaWtpobGhjobaWhrra8N+XhStGQy8+WPRAAAgAElEQVQG5i9ewqp161l9+Xoys6dpXdIgCQAjCLcAMJS5t5edO7azfdtbbN+2laaGBq1LijhR0dGkp2f4AkEWmUPfs6aSkZFJWnq6PLUgxjW3y0VzSzN1tbXU19XR1NhAU2MDLU1NtLa00N7aQntbK64QTqc7XqSmp7N0xSqWrVrLZatWExcfnnOvSAAYQTgHgLOVl5Wy/a2tvPv2Nvbtfh+7feLdPBMMOp2O1LS0wUCQkeUNCOkZmSSnpDAlOYXk5BSmpCTLuAcirDgcdjrbO2hvb6Ozo52O9nZamptoamigsbFxsJHv7GgPyZS5E4HJZGLR0mUsWbGKy1atIXd6vtYljYoEgBFEUgAYym63s3fXTt7fsYM977/H0SOH5XJBCMQnJHjDQHIyU1JSSElJ9S4np5CcknJWYEiRGxjFJbHb7XS0tdHR0U5nRwedHe20t7UNLnd0tNPR1j643N/Xp3XJ457eYGDBwkWs9E2odtmKlfT0WemPgNlhhwqnACD9rWNkNBpZe8UG1l6xAQBLfz8H9u1h98732PXeDgkEQdJnNtNnNlNTXTWq78fFx/sCg7cHYdKkySQkJpKQkOB7TyQ+IZGExETiExJITEwkPt77WVx8vDweGWE8Hs/g/yNmcy9msxlzb6/3594e+vq8P/f61nV3d9HR3k5nu7dBt/T3a/0rTHiGqCgWLipm5Zq1LF+1msWXLSc2Nvasb0VW4x9uJAAEWGxc3LBAYLVaOXxgP/v37Gbfnt0cOrBPbuDRQH9fH/19fdTWVF/ytoqiEBsXdyYwnCcsxCckYDKZMMXEeN9NMRhNRowm789GowlTjHe9yWTCaDJO+EsZDocdm9WG3W7HZrP6lm3YbDbsZ/1ss1qx2WwXbdTNZjOW/n65Ez7CxCcksHjpMi5bvoKly1ewaMlSTCaT1mWNaxIAgiwmJoaVa9aycs1awHtmcvpUOUcOHuDooYMcOXSQkpMn5KafMKaq6mCAaA7wvnU6HUajEaPJ5AsFA+HAdCZEGI3o9Xp0ej16vc67rNP73nXe9QPvvpei6HzLA5/rB/eh0ymD+wDv4DButxuPR8Xj9i67PW7fsge3242qet/dbt96jweP243H4/Ft69vO7Rncx2CjbrNhtw1p1If8LI30xBQVHU3hnLksXFTMwsXeic5mziqQnrYQkwAQYjqdzjtW/+xCbrvjLsB7FnTy+DGOHjrE4YMHOHr4IJWnT8sfxwnA4/FgtVqxRth1TCFGS1EU8mfO9E1zvpiFxYspmjdvwvd+hQO5CTBMmXt7OXbkMEcOHeTIwQMcOXxwQg5bLISILJlTp7KoeAkLfNOYz1+4iPiE4DyS19bZLTcBjoH0AISphMREVq1dx6q16wbXtba0eC8bHD5I6ckTlJeUUFdbIz0FQoiQ0+l0TMvNo2B2IYVz57Jw0WIWLl5MSmqa1qWJUZIAEEHS0tO5auN1XLXxusF1VquV02WllJeVUl5aSnnpScrLSif8vAZCiMBQFIWsqdmDE4d5ZxctYmbBbLlJL8JJAIhwMTExzF9UzPxFxcPW9/f1+UJBie/lDQetLS0aVSqECHcZmZnMml3ka+wLvY397CJi4+K0Lk0EgQSAcSouPp7iJUspXrJ02Pqe7m5OlZVS5gsGladPU1NVSWNDPW73uTOLCSHGF71ez9TsaeROzyd/5kxmFxYxq7CIgtmFJCYlaV2eCCEJABNM0qRJLPU9ZzuUy+mkvq6W6qoqaqurqK6qpKa6ipqqSupqaifkXOFCRCqj0ci03Fxyp+d7Z+30vedNn072tByZc0MAEgCEjyEqirz8GeTlzzjnM4/HQ3NjI9VVlb5wMDwkyKhpQoReXHz8OY17Tt508qbnk5GVJbNviouSACAuSqfTkZWdTVZ29rCnEga0t7VSXVVFfW0NTY2NNDc20NzURFPT/2fvvsPaOLO2gd8jgQrVIJoAG3BsigtgTFzikrjGTnPapjtlS4qzySbZvNn0ZL9N2U12s9kkm55NL05ipzpxnBjbcccYcKHaphgQAiQBEuplvj8kZLAxBmmkkdD5XZcvDaMphzf78twazTzHuaxWUQMUQkZDIBAgITHxlMZYKfI0TMjMREZmJmQJiXyXSYIcBQDitYTEJCQkJqF41uwh37fbbOhQKqFUtrvDgbJdAWW7whUYFOjoUMJqsfi5ckL8TyQSIzmlvzW2HCnyNKTI5dQam/gd/S+M+JwwLMx9BQE4e8htWJaFRq1yhgOFwh0WVK4GLRq1yrmsVkHb2+vfX4CQM2AYBjGxsa4OlK6ulImJkCUkIEWeCrk81T3gx8XL6PI8CQgUAEhAYBgGsoREyBISMXV6/rDb2qxWaDSaIduyatRqd0c3tSsw9Pb00GRJZFQYhkHsuHGntJWOl8lcraedXSX7O0zKZDL6xE6CDv0vlgSdsPBwJCUnIyk5eUTb2202dHdroFGroVap0NvbM6CLnHZQZznnete6AZ3lSPCJiIx0dmp0dXCMjol1Lg/o6tjf0TE6Jgaxsf0Dvgxx8TIIhUK+fwVCfIoCABnzhGFh7vsUPGG326Hv63OHgj6dDtr+sNDnakWr08Hoalfb37bWZDLCbDSd6IhnNsFkNLnfM5lMId8FMiw83N310NlK+UQHRIlECrF04HvOV6lU6hq0Y12tmZ0tmaMHDPaRUVE0gBNyBhQACDkDoVCImNhYn0ySYrfbXa1xja5w0B8WzO4gYbGY4XA43O15T7TvdQxo3ztUe15XK1+HA3bHgFa+dodzX4dz4ieBwNlW2N062NU+mBEMaCk8RPvhE+2FB7YoFrjXiUTiQQN3/6DuHuQlEhqkCeERBQBCeCQUChERGUlTrRJC/E7AdwGEEEII8T8KAIQQQkgIogBACCGEhCAKAIQQQkgIogBACCGEhCAKAIQQQkgIogBACCGEhCAKAIQQQkgIogBACCGEhCAKAIQQQkgIogBACCGEhCAKAIQQQkgIogBACCFkWA6Hg+8SiA9QN0BCCCEwm83YvWM7yvbuRodSia7ODnR1dqKzowMatQrh4eFISk5BYlISEpOSkZiUhAmZmVi4aAly8qbwXT7xAAUAQggJUUqFAiU//4SSXzZh16/bYDQaT7ut2WxGy/FmtBxvHrT+mScfhzwtDYuXLsfiZedj7oKFkEqlvi6dcIBhWZa7gzFMCoB2T/ZNSEzCvqo6zmohhBAytMryMvzz6aewc/s2zo8tkUhw/c2/xZ333Ie4eBnnxx+oS9MD/TChJRBdtGA29H06T3ePY1m2h6ta6B4AQggJEfV1tbjtphtw2YplPhn8AcBkMuGd11/FguJC/Of5f8Cg1/vkPMR7FAAIIWSMUyoU+PMf78DKc+dh048b/HJOfV8fXnz+71hQXIj33noDdrvdL+clI0cBgBBCxrA9O3fggsULsf7zz3i5m1+jVuGvjzyIW669Cr09nF29JhygAEAIIWPUB++8hRt+cxm6NWq+S8H2rSVYtXwx6utq+S6FuFAAIISQMcZqseDBe+/GEw89ALvNxnc5bs1NjbhsxVK/fQ1BhkcBgBBCxhCDXo9rLr0Iaz/+kO9ShmTQ63H7zavx1qsv811KyKMAQAghYwTLsrh3zW0oL9vHdynDYlkWz/71CWzc8B3fpYQ0CgCEEDJGvPj834Pm8jrLsvjznbejrqaa71JCFgUAQggZA3787hu8/K/n+S5jVAwGA/6w+jp0d2v4LiUkUQAghJAgV1N1GPfftQZczuzqLy3Hm7HmtzcF1M2KoYICACGEBDGHw4F77rgVBoOB71I8tmfnDrzzxqt8lxFyKAAQQkgQ+3b9OtTX1vj0HALGp4cHALz20ovo03k8Rz7xAHUDJISQIGW32fDic89yeswIkQDLp8fhkhkyzMyMQlKMCLKocFjtDnT0WqHoNmNzTQ++q9Bgf5MOXH3r0NPdjbdeewX3PvAQNwckZ0TdAAkhJEh9+sF7ePj+ezk5VrREiHtXpOO+FWmIEgtHtE+NwoBHvmzCtxXczDQYGRWF7WWVI+4iSN0AvUNfARBCSBAym8146QVu7vq/vDgBR54/G4+vmjDiwR8A8lIjsP7uKdj6UD7S4kRe16Hv68NrL73o9XHIyFAAIISQIPT91+uhVCi8OgbDAI+tmoC1a/KQEBXu8XHmZ8diz+MzMGtitFf1AMBH774Dk8nk9XHImdE9AH6i7e3F91+vx7q1n6KxoQFiiRhisQSZWVkoKJqJghkzUVhUhHhZAt+lEkKCwOafNnp9jOeunoh7z0/joBpAPk6EkgfzsfjvB1Ha4PnNfEajEbt+3YbFy8/npC5yehQA/GDnr1tx6003wKDXn/Jec2MDtpVsdv+cPn4CCmcWo2BGEQqLZmJqfgGkUqk/yyWEBDirxYJtWzafecNhrJ6XxNng308SLsD6u6dgzl8r0dpt9vg4v2zaSAHADygA+NiP33+LP93+B1gtlhFt39pyHK0tx/H91+sBAMKwMGTn5A4KBZOycyAUjvx7OkLI2LJn144hP1CMVHaKFK/fPJnDik5IiRXh0zW5WPD0AY+PUbJpI1j2BTCMH54/DGEUAHxI2d6Ou2/7PWxWq8fHsNtsqKk6jJqqw/j0g/cAABEREZhWUIjComLkFxYiJ28qsiZOhDCM/nMSEgp+8fLy/9+uyIQ4zHe3gM2dFIPLixOwvkzl0f4dSiUOHzyA6QWFHFdGBqIRw4feffN1rwb/0zEYDCjdvQulu3e514lEYpw1eTJy8vKQnTsFObl5yM7LQ1r6eErRhIwx2zb/4vG+MzOjcEWx7+81euqKTHy9XwWHh0+ab9v8CwUAH6MA4CMmkwmffvie385nsZjdVwoGioyKQnZOLrLzToSCnNw8JCQm+a02Qgh3HA4HWltbPN5/9bxkDqs5vewUKc6eGI29xzy7IfB4cxO3BZFTUADwEY1KBZ1Wy3cZ0Pf1oWJ/GSr2lw1aHy9LcF0tcAaCyTm5yMiaiMQkCgaEBLJujdqrxjkXzxjZJDtcuKAg3uMA0NXZwXE15GQUAHzEbA7s51g1ahV279iO3Tu2D1ofERGBjKyJyMya6HrNcv+cLJfT1wmE8Kyrs9PjfbNTpMiQiTmsZnhL8sbhCTR7tK83vycZGQoAPmKz2fkuwSMGg2HIrxIAQCKRYEJGpjMQTBwcEFLT0iEQ0LxShPiaN5+Mx8f7b/AHgPEyicf70hUA36MA4CNnTZ6MlNRUr2fqCiQmkwn1dbWor6s95b1wkQjjJ2QgMysL6RMyIE9NRYo8zfmamgp5aipEIv/+8SFkLOrs8HxgTOVgut7RSI4Nh4CBRzcCqlUqOBwO+mDhQxQAfEQgEODy31yNV//zb75L8QurxYKGo0fQcPTIabeJlyWcCATyVKSkugKCPBWpaWlIlqfSpEeEnIHZi2lypeH+nT8kTMAgXCiA2eYY9b52ux02m5U+OPgQBQAfuvbGm/HJB++hp7ub71ICgkatgkatQtWhg6fdZlxcHFLkqa6gkAa5PBVJycmIT0hAvCwBMpkMsoRERMfE+LFyQgJHghc36rb3jmxCMq50620eDf4AEB0TQ4O/j1EA8KH08RPw/mdf4rorVkHf18d3OUGhp7sbPd3dqK2uGna7sPBwyGQyxMucwSAhMcG9LJPJEJ+QAFlConubmNhYuoGRnJHdZoNWp4VOq4W2txc6rRY6nRZGgxEpcjnGT8hAslzO60ycScmeP8an8GJ6Xk+093geOLz5PcnIUADwsfwZRXjv0y/wyP33DvndOfGMzWpFh1KJDqVyRNsLw8IQHx/vCgXOQBAdE+P8Fx3jXo6KjkbMSeuiY2IhFtMnkUDncDig7+tzDt5a1+DtWta6lge/1+sc5HUn3jMYDGc8jywhEff95SFcfcONvASBxCTPB8YahQFGiwNSkX++Vy9v9vyDjze/JxkZCgB+UDx7Djb+ugtbft6Ed996A+X79o7oDw3hjt1mQ1dnp8ePFoWLRM5QEB09ZHCIjolBVFQUJBIpxGIxxBIpJFIJxGIJJBIJJFLneolE4txGIoZEIoVEIgmpKZwdDgdsNitsVhusVivsdhusVptrndW9bDAYBnwKdw7SAz+Ra0/6hK7t7YW+rw8s6+G0c6OgVnXhkf+7D++/8xbeX7sOKXK5z885kDdzdRgsDmyu7sFFhfEcVnR6PxzQeLwvzUnie6Hzl4dnDMNg8fLzsXj5+bDb7ThSV4sD5ftRWVGOyv1lOFJXC7s9OB8dDAVWi8V9DwPXhEIhxEMEA7FY4goRYgiFQgiEQggYgXtZKBRAIBA6fxYIXOuEELqWBQLXtgLntkMdg2VZ2KxW2GzOwdc5IFtd61zL/e/ZbO5l56tzILfZnNu63xuwj/s917LD4dn3wYGovrYGt9+yGp9/u8Gv31WLRGKMi4vz+N6ir/ar/BIATFYHNh32/P6n5BT/BqtQRAGAB0KhELlTpiJ3ylRcfcONAJzP31cdPIDK8jJUlpfjQPl+tHkx3ScJHna7HQa93qvuboQfB8r34/898hCeev4Fv563ePYc/LLxR4/2/WR3Jx65ZAImJnr+jP5I/HezAj0Gz2csLJ49h8NqyFAYLi+ZMQyTAqDdk30TEpOwr6qOs1rGAlVXJw6Ul6OyYj8q9+/HwcpyaHt7+S6LEDKAVCpFRX2jX+8TWfvRB3jwvj95vP81sxPx0e25HFY0WI/BhuwH9kGj9ywAiERiVNQ3ICIiYtjtujQ90BuNHp2DLxctmA19n2fTIwOIY1m2h6ta6ApAAEtITMKS81dgyfkrAAAsy6Kp4RgOVFSgrqYadTVVqKutgaK1ledKCQldRqMRpbt3YsF5i/12zkXLzgfDMB7f87C2tAtXz070WV+Auz485vHgDwBz5s0/4+BPvEcBIIgwDIOssyYh66xJg9b36XSoq61BfU01amuqUV9bg7qaGnRr1DxVSkhoKd2z268BICk5GdMKCnGossKj/VkWuPHNOux8rBBTUrkdaJ/9vgWf7vFuHv/+Dz3EtygAjAFR0dGYefYszDx71qD1XZ2dqK+tRm21MxTU1lTjaF0tPYFACMdiY8f5/ZxLl6/wOAAAgM5kxyX/rsL3901FrpybEPD6lnY8vr7J6+MsWX6+98WQM6IAMIYlJiUhMSkJ8xae517Hsixajje7vkKoQVPDMTQ3NqCpsRGqLuq+RYgn0tLT/X7OVVdciZf+9ZxXTw81qUyY97cD+OSOXJw/Pc7j49gcLO79+BheK/HoFrBBZs09B2np470+DjkzCgAhhmEYTMjIxISMTCxbccGg9/R9fWhuanQHAudrA5oajqGzo8Mvz1gTEmwYhkF27hS/nzcjayKuvOY6rP34Q6+O02u04eJ/H8bqecl44tIMTBhlu+BNh7vx4OeNONjCzVMs9z/0KCfHIWdGTwGQETEajTje1IimxoZTAoJSoRhTz3cTMhqXXnkV/v3qG7ycW9HaikVzimGxcDPFrzhMgNXzknBFcQLOzR0HUdjQ02d3aq3YcECDD3d24Nc67p5MOnfxErz32Zcj3p6eAvAOBQDiNYvFjONNzWhrbUF7Wyva2xVQKhRQtLVB2d6GdoWCeiGQMUkikaBkdxnkaWm81fDXRx7Ee29xH0BipEJMS49EcowISTHhMFkd6NBa0NZtQVWr3qMWv8NhGAbfbCrB9ILCEe9DAcA79BUA8ZpIJMak7GxMys4+7TY6rRbt7Qq0t7VBqWhzL7crFFC2t0HR1kYhgQQVWUIiXvvf+7wO/gBw5z334fOPP+T85l6t0Y5dR7ScHnM4Ky68eFSDP/EeBQDiF/3z5WfnnH7ykT6dDu0KBdoVrWhXKNCpVEKl6oJGrYZGrYJa5ZyKV6PRwG7z/BljQrzBMAxmnzMPL7zyOu+DP+C8enrPAw/imScf57sUj0XHxOAvjz3BdxkhhwIACRhR0dGYnJODyTk5w27Hsiy0vb1Qu8KBWq2CRqWC2hUUNGoVVF0q97JGo4HV4t8+6CR4SSQSRMfEODtGRp/oGjkuLg7Fs2Zj4aLFkCUk8l3mIH9YcxeqDh3EN+tG/v15oBAIBHjpjXeQkTWR71JCDgUAEnQYhkHsuHGIHTcOEydNHtE+Oq3WHQbcHeZcneScrzp3S9iB7WF1Wi20Oi1dcQgS7q6NMTGIiYlBTEzsoI6NA392DvADtnX9HBYezvev4ZF/vPgKGhsacLCinO9SRuXBx/+K85Ys5buMkEQBgISE/j/6nn7KMBqNAwJC76CAoNPp0Neng8logslkhMlkgtlkHPSzyWiC2WxyLrveM7veC7UnKMLCwxEmFCIsPBzhYeEICw9zrQtzrQtDuEiEKFfr5UGDdkwsYoYc0J2vEolvG9wEMrFYjDff/xiXLDsPnR0dfJczIpdfdQ3+sOaPfJcRsigAEDICUqkUUqkUScnJnB/barHAbDYPCgsDg4TVaoPDbofdYYfD4XAu2+2w2x1gWYdr2e7axnHSNnbXNo4B25w4DsMwAwbfMISFhSM8PHzQIO1cFzbkdsKwMISHhQ3azrku3L1dWNiJgV0YRn9yfCk5JQVvvv8xrl51Icxmbh4N9JWi4rPx7Asv8l1GSKP/bySEZ+EikfsTLyHeKiiaibXfbMBtN9+ADqWS73KGtHzlhfj3q29AJPJfB0VyKgHfBRBCCOFWQdFMfPvzVhQWFfNdyiAMw+Du+x/A6+99iIjISL7LCXkUAAghZAxKSk7G2m+/x+VXXcN3KQCAiIgI/Pftd3HvAw+BYYaeYZD4FwUAQggZo0QiMf71ymt4/Klnef3EnZ2Tiy83/ISVF6/irQZyKgoAhBAyxt1y6+3YXlaJW2693a/fu6elj8c/X34VP27bibyp0/x2XjIyFAAIISQExMsS8PhTz2LLnjL85trrIRQKfXquJ57+O7bsKcMVV18LgYCGmkAUMM2AoqKjcejYcc5qIYQQcnrHjhzB1+s+R8mmn1B9+JDXx5NIJDhnwUIsWnY+Lv/N1X75yqFDrYHRFNiPOw7EOhxYMXemN90bx2Y3QADYWlqOjMwszuohhBByZsr2dmz5+SeU/LIJZXv3oKe7+4z7CMPCkJ4+HgsXLcaiZedj7vwFfp+I6Xh7R1BNpNXa3ITVl17gzSHGbjfAH7/7BrffdQ/fZRBCSEhJkctx7Y0349obbwbgbPHd1dmJrs4OdHZ0QNXZCbFEgqTkZCQmJSMxKQlx8TLeL+1z+QHWH7aX/MJ3CYME1BWAqOhobN27P+AabRBCCAksdrsdLcpOvssYsR6NBtdfsgIGvVdtzzm9AhBQd2b06XR4/pmn+C6DEEJIgDME0Xf/APD2Ky96O/hzLqACAACs/egDvP/2m3yXQQghJID1GQx8lzBi6z/7GBu+CrxWzQEXAADgr488iPWff8Z3GYQQQgKQTm+A2WLlu4wR2fT9N3jluWf4LmNIARkAWJbFA3/6IzZu+I7vUgghhAQQu8OBbq2O7zJGZPvmn/GPJx4N2JsVAzIAAM4bPO783c145YV/Buz/8QghhPhXd6824B/9Yx0OfPDmq3jigXvhcNj5Lue0AuopgNM5d/ES/Pu1NxEXF8/1oQkhhAQJk9kCpUrNdxnD6unW4OlH/oKy3Tt9cfix+xTA6Wwr2YwLFy9EZXkZ36UQQgjhgc1uh6qbs7HPJw5XluMP11zhq8Gfc0FxBaBfWHg4brvzLqy558+IiIjw1WkIIYQEEKvNhg6VBjZ7YF5ONxoM+OCt1/DFh+/B7tsax+5UwCOVIpfjwcf/H1ZdcaWvT0UIIYRHVqsNSrUadnvgfe/Psix+/uE7vPniv6BWdfnjlBQA+hXPmo0nn30OU6fn++uUhBBC/MRitUKp0gTkTX/1NVV46R/PoOpAhT9PSwFgIIFAgKuuX40/P/gwEhKT/HlqQgghPmK2WNCh1sDhCKynwLrVavzv1Zew4et1YP0fTCgADEUsFuM3116PP9x5FyZkZPJRAiGEEA706vrQo+sLqEfA21tb8Nn7/8PGb7/2pp2vtygADEcoFOLCVZfi9rvuQd7UaXyWQgghZBSsNhtU3T0BNcvfkdoafPre29j286ZAeKafAsBInbdkKe64+17MmnsO36UQQggZhrZPj26tLmA+9Vfs24tP33sH+3bt4LuUgSgAjFZR8dn43e1rsHTFSohEYr7LIYQQ4mKzOZ/vN1ksfJcCi8WMHVs244uP3kft4UN8lzMUCgCeGhcXh0suuwJXXnMdphfO4LscQggJWSzLQqs3oCcAPvXXHj6Ejd9+hc0bN6BPF9B9BigAcCE7Nw9XXnMdLvvNVfT0ACGE+AnLOlv59uj6fD1pzrA0ahV+3vAdfvxmPZobjvFWxyhRAOCSMCwM5y1ZiiuvuQ5Llp2PcJGI75IIIWRM6jMY0aPV8Tajn81qxa5ft2Djt1+jdOd2XgOIhygA+EpcXDwuvuxyLL/wIsyecw7CwsP5LokQQoKe3mhCj1YHq83m93PbbDYc2L8PO7ZsRsnGH6DtDex+AmcwNgNAXFw8fnPdDXjn9f8GRCqLiY3FoqXLsGzFBThvyTJERkXxXRIhhAQVg8mEHm0fLFb/PtZn0Pdh747t2Lm1BHt3/hoQ3+sLBEJcdePN+PaLz2DQ6z09zNgMAAmJSdhXVYdDlRW4/+47UV9bw1ld3goXiTB33gIsv+BCLD1/JZJTUvguiRBCApLd4UCf3gCdwQCbzX8f5ro6OrBrWwl2bC1BZVkpbH4OHcOZODkHDzz5N+RMmYaLFsyGvs/jQDK2AwAAWC0WvP36q3jlhedhMBg4q48LDMNgeuEMLFtxAZavvADZuXl8l0QIIbwzWSzQ9RlgMJn8dld/w5E67Nhagp1bSlBfU+WXc45GRGQkbrx1Da68/kYIhUIAoAAwlIEBoJ+yvR3/fOZv+OqLtQHZDAIAMjKzsHDRYsydvwCzz8bR+pcAACAASURBVJmHeFkC3yURQohfOBws+gwG6PQGv3y/36PRoLKsFBX79qJ01w4oFW0+P6cnGIEAKy+5DL/7459OGRMoAAxhqADQr/rwITzzxGPYuX2bN+X5HMMwmJyTi7nzFzgDwdx5GBcXx3dZhBDCKbPFCp3eAL3R6NNP+7093Tiwfx8q9jkH/WB4XG/WOfNx+73/h6xJk4d8nwLAEIYLAP1279iOF/7+NMpK93pyCr9jGAa5U6Y6A8G8BZg19xzExMbyXRYhhIyaxWqF3miCwWjy2ad9nVbrGvD3orKsFI1Hj/A+SdBIFcw8G79dczfyi2YOux0FgCGMJAD02761BC+/8E/s27Pbk1PxRiAQYOr0fMyZNx9z5i3ArDlzERUdzXdZhBAyJKvVBr3RCL2PBn19nw4H9pehsqwUlWWlOFpfx0eLXa/kF83E6t/fjuK580a0PQWAIYwmAPQr27sHr7/yH5Rs+iloUuJAQqEQuVOmIn9GEQoKZ6CgaCYm5+S6bxYhhBB/s9ps0BtN0BuMnA76drsdjUePoLbqEGoPH0Jt1SE0Hj0aCB32Ro0RCDB3wbm45qbfYfqMolHtSwFgCJ4EgH5NDcfwvzdew5effQKj0ejRMQKFVCrF1PwCFMwoQn5hEQqKipCRmcV3WYSQMcxitcFgMsFgNMJi9X7QZ1kWbS3HUVd1CDWHD6G26jCO1tbAbDZxUC1/pBERWHHJZbjiutVIGz/Bo2NQABiCNwGgn7a3F+vWfooP330HjceOenWsQDIuLg75hUXInzEDBYVFKCiaicQk6l9ACPGMw+GA0WyB0WSGyWz2empedVcnaqsOo+bwQdRVHUZd9WHotFqOquVfRtZEXHr1dVh+0SWIiPRuUjgKAEPgIgD0Y1kWO7ZtwWcffYifN/4AawC0meRaSmoqCmfMRP6MIuTkTUFOXh5S09LBMAzfpRFCApDZYoXRbIbRZIbZw7+JLMtCqWhD07GjaDhS77ycX3UYqs4OjqvlX7hIhAWLluLCy69E0aw5nB2XAsAQuAwAA3Vr1Fi39jN88enHATW7oC9EREYiOycP2bm5yM7tf51CMxcSEoLsDgeMJrP7U759lDfXdXV0oOnYETQeO4KmY0fRePQImhqOwRTkX7OeyVnZOVi56nIsv/ASRPvgqS0KAEPwVQAYqPrwIXz1xVp8u/5LdHaMvcR6OjGxsa5AkIec3DxMzslFTl4eTVpEyBhidzhgtlhgNltgNFtGPP9+t1rtHOCPHUFj/0B/7Kg3g1TQSUhKxtKVF2LZhZdg4uRsn56LAsAQ/BEA+jkcDpTu3oUN33yFH777Fhq1yi/nDTTxsgTk5DkDweScXGRNnIgJmVlITUunJxEICXBWmw1mixUmswVmi2XYO/btdjs62xVoa21B2/FmNDUccw/0vT3dfqw6cIyLj8e5S8/H4vNXYnphERiBwC/npQAwBH8GgIHsdjt27/gV33/9FTb9+AO6NWq/1xBohGFhSB8/ARmZWcjIzMSEzCxkZGUhIzML4zMyIZVK+S6RkJDCArBYrDBbLDC5PuWffEnfbDKhreU4FK0tULQeh6KlBW2tLVC0HEdHuyIguqzybVxcPOYvXopFy1egsPhsCAT+/6BDAWAIfAWAgex2O/aX7sXPG3/Azz/+gOamRl7rCVRJycnOUOD6NyEzC5lZWZiQlYW4uHi+yyMk6NkdjsEDvsUKlmXR29MNRYtzgHcO7icGe7Wqi++yA1Jq+njMW7QE889bgumFM/z2Sf90KAAMIRACwMmO1tdj86YfsXnTTyjfV0oJegSiY2IwISMTKampkMtTkZKahhS5fNDPERERfJdJSMCw2+0wW23o6e1BW0srFG2tULYr0NXRAVVnB7o6O9DVoYSitTWkvpf3lEAgxLTCQsxdcB7mnrsIGVkT+S5pEAoAQwjEADBQd7cGv5aUYOvmn7F96xZK216IjolxhwF5aipSUlORkiI/8bM8FbHjxvFdJiGc6enuhrJdgdbWVihaW9HW1op2RRs62tvR2aFEV0cHDe5eiJcl4Oxz5mPWvPk4e848n9y9zxUKAEMI9AAwEMuyqK+twY5tW7F9awlKd+8K+hkIA41UKkWyPBXy1FQkp6RAlpCIeFkCZDIZ4hMSIEtIdC7LEhAdE8N3uSQEaXt7oVGroFaroVGroFGpoFKpoFGroOrqgrK9Hcr2NnQolTCbgnsGvEATERGB2efMw4xZczG9qBiZZ03iu6QRowAwhGAKACezWiyo2F+GXTt+xe4d21Gxv2xMTj4UqMJFIncYiJclQJYgGzYwUEdGcjKWZU8Z0NVdXScGd7UKqi6Ve1mtVsM2wsfsiPfCRSLMmFmMc+YvxDkLFqKwaCbCRSJ0aXqgD7IPXxQAhhDMAeBkJpMJ+/ftRenuXdi3ZzcqyvbBRJ8AAkZYeDhiY8chOiYG0dHRrtcYRLmWo6KjERMTg6io/p9jnNvExCDatS4yKopmXQwQDocD+r4+9Ol00Om00Ol00Gm10Gm16NNpB63r63/tc75qXet6e3toQA8gUqkURcWzUDxnDs6eMxczz54NiURyynYUALwTxtWByAkSiQTzFpyLeQvOBQDYrFYcPFCJ0t07sW/PblSWl4fs3AOBwGa1Qq3q8uo+DoZhEBkV5QwLrvAQFR0DiUQCiVQCiUQKiUQCseufRCKFWCyGROpcL3GvH/zeyduKxeKgDRosy8JsNsNkNDpfTUaYTaZBP5tMJpiMJpjNJtfyMNsanducPKgb9Pqg7AZKToiXJaBw5kzMmjMXs+bOw/T8AoSFh/Nd1phHVwB40tpyHAcrynGgogIHK8tx6EAl9H19fJdFApBIJIZQKIBAKIRQKIRQIHQtCyAQuNa71znXM4zAtexaLxC4lwUCgXt7AHDY7bA77HA4HM5lux32gct2O1jWAbvdAbvdfmJ7u3Mfu93hXud+3+6AxWLm+f9yJBBFRUdjekGhs8FZYSHyZxQh3cPOenQFwDt0BYAn6eMnIH38BFxwyaUAnJcxG44excHKchyoKMfBigpUHz5Ef0QJ/W+ABC2xWIwp06Yjf0aRu8X5xEmTgvaq1lhDASBACAQCTMrOxqTsbFx+1TUAnJeqa2uqXYHAGQyO1tfRfASEkIAjDAtDdk6uc7AvnOHsVJqbR5fyAxgFgAAWFh6OafkFmJZfgOtvugUAYDQaUXXwAGqqq1BfU436ulrU19agpzs05/MmhPhfXFw8svOczcWy86Ygd8pUTJ2eP+SNeiRwUQAIMlKpFMWz56B49uD+1J0dHaivrUZdTQ3qa2tQX1uL+roaGPR6niolhAS7yKgoZOfkIjtvinOwd7UYT0xK4rs0wgEKAGNEUnIykpKTMf/cRe51LMuirbUF9TU1qKutQX1tNepra3G0vp6+VyaEuInFYkzKznG2DM/Lw+Qc52ta+ni+SyM+RAFgDGMYxn2z4eLl57vX2+12NDc2oK62Bg1Hj+J4UyOamxrR3NiADqWSHqkiZAxiGAbJcjkysya6m3hNnDQJObl5mJCZRS3AQxAFgBAkFAoxcdJkTJw0+ZT3zGYzjjc1nQgFrmDQ3NSE1pbjNFkKIQEsXCRC+vgJzu6cJ3XsHJ+RAbFYzHeJJIBQACCDiMViTM7JweScnFPes9vtaFe0obmpEccbG9Hc1OQKB86gQPcbEOJ7kVFR7oE9I2siMjIznYN9VhbkqWkQ8NzulgQPCgBkxIRCofsrhf5ZDgfq1qihaGuDUqFAe7sCSkUb2hUKKNsVzsYoijYYDAYeKickOERERiJF3t86O9XVLTPtxM9paYiLi+e7TDJGUAAgnImLlyEuXoap0/NPu422txfKdoUzGCjaXEFh8M86rdaPVRPiHzGxsc7B/eRB3dUCO0WeSo2qiF9RACB+FRMbi5jYWGTn5p12G4Ne77py0AZVlwrdGjXUahU0ajU0KhXUatc6lRq9Pd1wOBx+/A0IcRIIBIgdFwdZgszVeTIBcTIZ4mUyyPo7UyYmuAb6NERERPBdMiGDUAAgASciMhJnTZ6MsyafepPiyRwOB3q6NVCr1MMGhf42rhqNhlo1kyGFi0SIj48f1FY6Lt41mCckDBrY42XxGBcXT9+3k6BGAYAENYFA4P6DPVJGo/FEq1itdogWsq62stqT2sjqet3LdC9DYImIiHC3co6OjnW3do5xr4s58X5/G2j3OuerVCrl+9cgxK8oAJCQI5VKIZVKkZSc7PEx7DYbdDqdu698n04Ho9Hgbm/b3+rW7G5ja3S3xjWZXK1vXe+Z+9viDmh5298eN9ivVoSLRCfaH4tPbpUsHfSzs5WydNC2Yvd7/dtKIJVGDBjInYM6PcNOyOhRACDEA8KwMIyLi8O4uDifnsfhcMBisQxq1evob7vrYE9pw+tuz+sY0MrX4YDdMaCVr90OB+s8HgBni2DmRLtgoat9MCMY0FJYcFL74QEtiAUCZsA2J1oOi0QiukROSACjAEBIABMIBNRghRDiExTPCSGEkBBEAYAQQggJQRQACCGEkBBEAYAQQggJQRQACCGEkBBEAYAQQggJQRQACCGEkBBEAYAQQggJQRQACCGEkBBEAYAQQggJQRQACCGEkBBEvQAIIYQAADqUSuwv3YMOpRJdnR3o6uxEZ0cHVF2dEIvFSEpOQWJSEhKTkpGYlIQJmZkonj0XYrGY79KJBygAEEJIiHI4HDhYWY6SnzehZNNPqDp0cNTHkEqlOGfhuVi8dDkWLV0OeVqaDyolvkABgBBCQky3Ro3XXnoR6z9fC7Wqy6tjGY1GbP5pIzb/tBEAkDtlKv6w5o+49MqrqB10gKP/OoQQEiL0fX34z/P/wILiQrz16iteD/5Dqa2uwp//eAdWnjsPP2/8gfPjE+5QACCEkDHOYjHjnddfxYLiQrz4/N+h7+vz+Tnr62px643X44oLlmPvrp0+Px8ZPQoAhBAyhilaW3HZimV46vFH0K1R+/385WX7cM2lF+GZJx+H3W73+/nJ6VEAIISQMWrfnt24eNkiVB8+xHcpeOvVl/G766+GtreX71KICwUAQggZgz55/11cd8UqaNQqvktx21ayGZeuWIpjR47wXQoBBQBCCBlTWJbF43+5H4/8332wWa18l3OKxmNHcdnKpdi+tYTvUkIeBQBCCBlDXvj70/jw3Xf4LmNYOq0Wt9+8GjVVh/kuJaRRACCEkDHi+6/X45V//4vvMkbEYDDgD6uvC6ivKEINBQBCCBkDDh88gP+7+06+yxiVttYW3HbzalgtFr5LCUkUAAghJMh1dXbiDzdeB5PJxHcpo1a2dw8ee/D/+C4jJFEAIISQIHffnbdDqVDwXYbH1n70Ab5Z9yXfZYQcCgCEEBLEdm3/FTu2beG7DK+98PenA/KphbGMmgERQkgQ++czf+P8mBNkYlyQH4+izCikjhNDPk4Eo8UORY8FLRozttb2YnNVNwwWB2fnPN7chLWffITrb7qFs2OS4VEAIISQILX5p42o2F/G2fFWFcnw6CUTMCMjatjt/rQ8DSarA9+Uq/HE+mYc7TRycv5XXngeV15zHcRiMSfHI8OjrwAIISQIsSyLfz77FCfHmpYeiV2PFWLdXVPOOPj3k4QLcPXsRBx+dib+c8NZkIR7P5wo29vxwTtveX0cMjIUAAghJAiVbPoJtdVVXh9nVZEMOx4twKyJ0R7tHyZgcOeSVGx9KB+p40Re1/PGKy9R0yA/oQBACCFB6Kcfvvf6GL9dmIIv/zgFUWKh18cqzorG9r9MQ7qXIUCt6sL+0r1e10POjAIAIYQEGZZlseWXn706xvzsWPz3xklgGG5qspqsGMfa8fENmYgQeTe0bN70EzdFkWHRTYB+YjabsfH77/DFJx/h2LEjEIslEIvFyMyaiIKimSgoKkJBYRGioj27DEcICR0HKvZD1dXp8f6J0eH4/M48hAu5Gf2tJisM3UaABabJpXjxsvG4dW2zx8fbvOlHPPTEXzmpjZweBQA/2L+vFH9YfR26NepT3quvrcGmHzcAABiGwcRJk1BYVIyCopkonFGEvKnTEBYe7u+SCSEBzNtPyA9fPAFJMdz8XRk4+Pe7In8c3t6tQulxvUfHPHbkCJqbGpGRmcVJjWRoFAB8rOTnTbjzdzeNaIpOlmVx7MgRHDtyBOvWfgoAEInEmDJtOgpnzkTBjJkoLCpC5sSzfF02ISSAlXgRALISJbhtkZyTOoYa/Ps9sUKOC9886vGxSzb9hFtuvd2L6siZUADwoa7OTtxxy42wWMweH8NiMaOyvAyV5See9Y0dNw75hUUonDkT+QUzkDt1KtLSx4Ph6ss8QkhAO1pf7/G+tyxIgSjM+78Vww3+ADAnIxI5SRLUdXrWn+DoEc9/RzIyFAB86IN33vRq8D+d3p4ebN9agu1bS9zrIqOikJ2Ti5wpU5GTm4ecvCnInTIFcfEyzs9PCOFPb0+PV39XLpkR73UNZxr8+y3PifE4AHR2KD3aj4wcBQAfsVjM+Oi9//ntfPq+PlTsLztlVrCExCTk5E1BTp4rFORNwaScXERERPitNkIId7o6Pb/5Lz1OjGnpkV6df6SDPwAsnhyNl7d7Vq83vycZGQoAPqLuUqGnu5vvMqDq6oSqqxM7f93qXscwDCZkZCInbwqy8/KcoSA7BxMysyCVSvkrlhByRl2dHR7vOzFJ4tW5RzP4A0BmvOdzAnjze5KRoQDgI2Zz4PblZlkWzU2NaG5qdD+BADiDQVJyMiZkZiEzayIysiYiIzPT9ZqFmNhYHqsmhADefTKWezFJz2gHfwBIjvb8SQO6AuB7FAB8xGq18V3CqLEsiw6lEh1KJfbt2X3K+3Fx8c4wkHUiFGRkTURmVhZkCYn+L5iQEKTV9nq8b1yEZ3/yPRn8AUAcxkASLoDJOvqugVaLBSaTCRKJd1ctyOlRAPCRiZMmITklBR3KsXMjS3e3Bt3dmkFPJPSLjIpyBoLMLKRPyIA8NRUpqanOV3kaEpOSIBR6P90oIaEuPt7zm/g6ddZR7+Pp4A8AeovDo8EfAKRSKQ3+PkYBwEeEQiEuvfJqvPHKf/guxS/0fX2oPnwI1YcPDfm+MCwMScnJkMtTkZKa5goGroCQmobU1DQkJSdDGEb/kyRkOIlJyR7vq+ixjGp7bwZ/AFBqRx84+nnze5KRob+2PnTdTTfjkw/ehU6r5bsU3tltNrS3taG9rQ3AviG3EQgESExKcgYE+YkrCEnJKYiXyRAvS4BMloD4hATqF05CVlKy5wNjfbsBdgcLoeDM8wB4O/gD8PgRQMC735OMDAUAH5qQkYl3PvoMN151+YhmAgx1DofDfQ/CAewfdtvIqChnGJAlID5BhoSEROeyTAZZgnO9LOFEYKBLiWSkHA4HdFottNpe52tvL4xGIxKTkpCWns773BrefDLW6G3YdUSLBTnD39DLxeAPAD/X6zzel64A+B4FAB87e85cvPH+R3jk/vvQ2nKc73LGDH1fH/R9fTje3DSi7SMiIpyhIDERMpkMMbGxiI6OQXRM/z/nz1HR0YjpX+d6PzIqCgIBNc4MFhaLGdreXmh7e08ZyE9e1rqW+7fT9vbCoNeDZU8/8qWkpuL+hx7F5Vddw8vsmxGRkYiIiIDBYPBo/28r1MMGAK4Gf5YFNtV5fvUzMSnJuwLIGVEA8IOFi5Zga2k5fvzuG3zwv7dRWb4fVsvovosj3jEYDDAYjnsUwhiGQWRU1IlQEB19SnCIjolBVFQUJBIJxK5/EokUYrEYEtfNTGKxBBKp5MSyREKNnkbg2JEjOHzwAHp7e04ZrE8Z4Ht7fTL75kBKhQL337UG77/9Jt75eC0vA9W0gkKU7t7l0b7vbu/AwxdPQFzkqX/+uRr8AWD9oR6v7gGYVlDofRFkWBQA/EQoFOKiSy/HRZdeDovFjOrDh1C5fz8OVOxHxf79aG5s4LtEchosy6JPp0OfTod2tHF6bKFQCLFYDLFECon0RDCQSKQQS8TusCAUCiEQCiEQMM5lgdC9TigUQsAw7uX+9wUCAYRCgXP9gO0HHqP/E2xkVBSmTs9Hbt6UgAgl3Ro1nnnycWwr+SVgnwc/dKASa357Iz5Z/y3CRZ4/X++Jpeev8DgA9BhseO6HFjz7m8Gd9rgc/K12Fs/+3O7x/gKBAIuXLfe+EDIsZrhLXaM+GMOkAPDov3pCYhL2VdVxVkuw6e7W4EB5OSrLy3CgfD8OlJeju1vDd1kkxIhEYixbeQH++uw/eJvboXT3Lvzp9t9D2e75AOJPN/3+Vjz5zD/8es6Go0ew5JxZHu8vFQmw5/FCTE1zTgvM5eAPAP/a0oFnfvH8EegZM4ux/sefz7hdl6YHeqPR4/Pw4aIFs6Hv8/jeiDiWZXu4qoUCQABrbmxAhesqQeX+/ag+fMjnlzcJAYC4eBmee/FlLF2x0q/nPXSgEpetWAq73e7X83ojIiIClfWNfr8KsGhOMZoajnm8f1aiBLsfL0RsGDgd/DdU9+KmT5rgzdBy/8OP4c577jvjdhQAvEMBIIhYLRZUHz6EA5UVqKupRl11FerraukxQ+ITYrEY32/+FZOys/1yPofDgctWLsPBinK/nI9LH637GvMWnOvXcz79xKN4+7X/enWMuWdF4+PrMxAr5maSrp2Nfbjmg0YYLJ5N/tNv47adyMmbcsbtKAB4h+4BCCLhIhEKimaioGjmoPXtbW2oralGfW01aqurUV9bg6P19XS1gHjFbDbj/rvXYN2Gn/wyi+PXX34elIM/4Pzawt8B4MJVl3odAHYf02HZq0fw6eosnJXg3dwaH+xT44Hv2mC1e/ehclJ29ogGf+I9CgBjgDwtDfK0NCxausy9zm63o6mhwRkKaqpRX1OD2ppqHG9qhMPhXTonoeNA+X5sK9nslxuyyveV+vwcvhIVFe33cxYWFWPR0mXY8suZvysfzjGVGcteO4K/LEnBLbNlEAlH92hjS48FT29S4osD3HQ/vfeBhzg5DjkzCgBjlFAoxFmTJ+OsyZOx8uJV7vUmkwlH6+ucXyHU1KCp4RiamxpxvKmRJisiQ6osL/NLADh29IjPz+EraenpvJz3zw89iq2bfxl23oKR6DXZ8fCGNry2swt3LUzExVPGISl6+OHhoMKIzyo0eK9UDbONm6+Sp0ybPujvFfEtCgAhRiKRYFp+AablFwxa398J8HhTI5oaG9Dc2IDmpibXayPdZxDCKvcPPysjV9oVCr+cxxcm5+Txct6p0/Ox8uJV+OHbrzk5XkuPBQ9824a/fNeGmekRKEyLgDwmHMnRYTBaWSh1VrT1WvHrMR0UvZ4/43869z/8GC+TK4UqCgAEgHOymxS5HClyOWbNPeeU97s1ajQ1NqK5sRHNjQ1oamxwhYVGaNQqHiom/uKve0mm5RcE5XwYF666DJNzcng7/31/eRg/bfiO0ycnWBYoazGgrMWz2QY9MfPsWYO+xiS+RwGAjEhcvAxx8TLMmFl8ynt9Oh2amxrR1tribPijUEDZ3gZFWxuUCgWUynaa+TCI5RfO8Mt5Zp8zDxu++cov5+JKuEiEBx59nNcazpo8Gdeuvgkfvfc/XuvwhlAoxENP/o3vMkIOBQDitajoaEydno+p0/OHfJ9lWahVXWhXKNCucIYC53KrMywoFFC2t9NTCwFqeoF/AsDS5Svwj789CX1fn1/O563YcePw4mtvYUJGJt+l4LGnnkHVoYOo2F/GdykeeeSvT2Hm2Z5PbEQ8Q/MAkIDAsiw0apU7JLQrFOhUtkOlUkGt6oJGpYJapYJarUKfzvMOY2R0MrIm4setOyCVSv1yvnVrP8X9d63xy7m8UVhUjBdffxMZmVln3thPOjs6sGr5oqCZQbHfVdfdgH+8+LJH+9I8AN6hKwAkIDAMA1lCImQJiafcoHgyi8UMjUoNlaoLGrUrGLj+adQq53qVGmpVF9RqFQx6vZ9+i7GFYRg89+LLfhv8AeCKq69FRdk+fPz+u34758kYhkFEZCRiYmMRExPrfI2NxbhxcSieNRvnLl4KeVoab/WdTlJyMt547yNcdckFMJuD42paUfHZeOq5f/FdRsiiKwBkzDOZTK4rCF3QaDTQubrH6XRa6HQ66LRa9PW/9ulcHeZOrAvFryZEIjEefPxJ3HLr7byc/5eNP+LRB+5Dh3L088kLBAJERkUNGrwHLkfHxJz+PVdnR39MfOQrX3/5Oe5dcxvfZZxRSmoqvt20xatuinQFwDt0BYCMeRKJBKnp6Uj18Fltq8VyaljQad3LWq0W+r4+mExGmEwmmIxGmE2mQT+bTCaYzWbnOqPzPbPJFJBz3hcUzcRz/3kF2Tm5vNWwdMVKnLNgISr270P14UOoq6mBQCAYNGBHx8ScMoDHxMQiKjo6pB8lu/TKq2AyGvH4Qw8E7M23EydNxtsffsJLK2VyAl0BIIRHNqvVFQ5MrrAwIDiYjDAbTbDarHDY7bDb7bDZ7HA4nMv96+wOx4llu8316lo3aFvHgPed6wBAGBaG6OhoTJmej/zCGUhLH8/z/1UIF8pK9+KOW26Eqiuw2ikvXrYcL772FqJjYrw+Fl0B8A5dASCER2Hh4YgKD0dUtP+nkiVjW/Gs2fju5y249eYbcKiygu9yAAB33nMf7nvwEQgEAr5LIQDovwIhhIxRKamp+OK7H3HlNdfxWkdkVBT++/a7uP/hx2jwDyD0X4IQQsYwsViM51/6L9b9sAmzz5nn13OLRGL89rY7sL2sEhdccqlfz03OjAIAIYSEgKLis/HZ19/j/bVfnvFRW28JhUL85trrsWVPGR772zOIi5f59HzEM3QPACGEhJCFi5ZgwXmLsfH7b/Hl2k+x69dtnHUCTZHLsWjZ+fjtrXdgUnY2J8ckvkMBgBBCQgzDMFh58SqsvHgVTCYTdu/YjpJNG1HyyyYoWltHfByBQIAZJxQntgAAEJFJREFUM4uxaNn5WLxsOfKmTvNh1YRrXD8GGAvAo0cUwkUiHDjS5NdZxwghhAzW3taGjo52dHV2oqujA52dHVB1dkIskSApORmJSclITEpCYlIy0tLHc/I4n6e6NN3QG7m5euEPBn0fLl44Fw6Hx/N/SFiW5WxmMk6vALAs28swjAWAaLT7Wi0WlO3djQXnLeayJEIIIaMgT0sLyKmOh2J3OPguYVQqy/Z5M/jruBz8Ad/cBOhxc/jNm37isg5CCCFjmN0eXAFg969bvdm9i6My3HwRANo83fGj9/6HA+X7uayFEELIGORwsLDZbXyXMWKHK8ux4et13hzC47H1dHwRAH71dEe7zYZ71twGg8HAZT2EEELGGKPZBA5vYfMpo8GAZx97CKx3X1ns4Kqefr4IAL94s3NTwzE88eD/gcubEwkhhIwtekNw3PzHsiz+8/enoGht8fZQW7ioZyBOnwIAAIZhIgFo4MGNgANdec11+Pu/XwrqtpyEEEK4ZzSb0aHS8F3GGdntdjz35KPY9P033h7KAmcjIE4vj3N+BYBlWT2Az709zpeffYLbb1kNszn0erETQggZGsuy0PRo+S7jjMwmEx69949cDP4AsJbrwR/wwRUAAGAY5mwApVwca9bcc/D2h5/y+qwpIYSQwNCj60OP1uN2un6h02rx0N13oOoAZ10Yi1iW5bylo096AbAsuw/Abi6OVbp7Fy5buRSV5WVcHI4QQkiQstps6NX18V3GsA5VlGPN6qu5HPy3+mLwB3x0BQAAGIY5D0AJAIaL4wkEAvzu9jW478FHIJFIuDgkIYSQIMGyLDrUGpjMFr5LGZLJaMRbL/8bX639xNu7/QdiAcxnWXYXVwccyGcBAAAYhnkLwO+5PGbmxLPw3Isv4+w5c7k8LCGEkADlYFl0BvDgX1G6F8//v8fQ3jbyPgoj9BrLsmu4Pmg/XweAcQCqAcg5Pi5W//b3+MtjTyIiIoLLQxNCCAkgDocDHWoNzBYr36WcwqDX4/UXn8f3677wxaPrCgB5LMv67I5HnwYAAGAYZjGAHwCIuT52UnIy7rj7Xlx7480Qizk/PCGEEB7ZHQ50qDSwWANr8DebTfj288/wyXtvo0fjk8cRzQBWsizL+bP/A/k8AAAAwzCXAvgSgE8e6k9OScGaP92Ha1bfCJGIggAhhAQ7u90OpUoDqy1wpvu1WMz47svP8cn/3oJG7XHbmzOxAbiSZVlOnh8cjl8CAAAwDLMawPvg6KbAoaTI5Vhzz59xzfWrES7yah4iQgghPDGZzVB198Jm97hzHqesFgu+X/8FPv7fW1B3dfryVA4AN7Is+7EvT9LPbwEAABiG+SOAl319HnlaGu6858+46trrKQgQQkiQYFkWml4tdPrA6Adjs1qx4et1+PidN9DV0eGPU97Bsuzr/jgR4OcAAAAMwzwC4Cl/nCtFLsdV16/G1detRmp6uj9OSQghxAMmiwWq7h7YbPx/6u9UtmPDV+uw4asvff2Jf6C/sCz7nL9OBvAQAACAYZjnAdzvr/MJBAKct2Qprl19MxYtW079BQghJECwLIturQ7aPj2vdTgcduz+dRu+W/c5Snft4PJZ/pF4mmXZR/15QoCnAAAADMM8AeAx+OjGwNOhqwKEEBIYTBYL1N29vN7o19GuwIavvsQPX6/356f9fjYAj7Ms+6y/TwzwGAAAgGGYeQA+ApDp73PTVQFCCOGHxWpFt1YHo4mfZm92ux27tm3B9+s+x749u/z9ab/fMQDXsyy7l4+TAzwHAABgGCYWwGsAruWrhhS5HKuuuAorLroIBTNmgmF89qACIYSELKvNhm6tDgajye/nZlkW1Qcr8evmX7D5x++hVnX5vYYB3gfwR5ZleW1swHsA6Od6TPC/AKL5rCNFLsfylRdi+YUXYc7ceRCGhfFZDiGEBD2bzY4enQ59BqOfz2tDZVkptm/+GTu3lvA96ANAD4DbWZZdy3chQAAFAABgGGYigI8BzOG7FgAYFxeHJctXYMWFF2PBosU02yAhhIyCzW5Hr64PfXoD/DXSmM0mlO7cgR0lv2DXr1vQpwuY1sHbAdzAsuxxvgvpF1ABAAAYhgkD8DiAh+HnGwSHExERgXOXLMOKCy/G4mXLERXN64UKQggJWCazBTq9AQaTyRdz5J+iT6fD7l+3YvuWX1C6czvMJv9/xTAMG4C/AniGZVlebjY4nYALAP0YhpkG4GkAl/Bdy8nCRSLMW7AQy1deiHnnnocJGZl8l0QIIbxyOBzoMxih0xv8cld/W8tx7N+7G9tLfkHlvr2wBdCUwQOsA/AYy7I1fBcylIANAP0YhpkD4FkA5/FcymmlpY/H3PkLcM6ChZg7bwFSUlP5LokQQvzCbLFCpzdAbzT69NN+p7IdFfv2orx0LyrL9qJTqfTZuTjwC4CHWJYt47uQ4QR8AOjHMMxyAM8AmMl3LWeSOfEsZyCYvwBz5y+ALCGR75IIIYQzLMu6P+37qlOfRq1Cxb69qCjdi4p9e6FobfHJeTi2F8DDLMuW8F3ISARNAAAAxvl83hUA/gYgl+dyRiw7JxdzFyzE3PkLMOec+YgdN47vkgghZFRY1tmkR280wmA0wcHx2KHt7UFlWSkq9pWionQPmhsbOD2+j1UBeJRl2a/5LmQ0gioA9GMYRgjgJgBPAJjAczmjIhAIMGXadMydvwBz5y/EzLNnISY2lu+yCCHkFCxcg77BBIPJBAeHE+botFocrix3Xdbfg4Yj9X65YZBjTXCOQx8F2g1+IxGUAaAfwzBiAL8HsAbAFJ7L8QjDMMjImoiCGTOQX1iE/BlFmDo9H1KplO/SCCEhymS2uD/p2zkY9E1GI+prqlFXdQh11VWorTqEtpaAeRrOE4fgnLfmXZZlLXwX46mgDgADMQwzH8BtAK4EIOG5HK8IhUJMzslFwYwi5BfOQP6MIuTmTUFYeDjfpRFCxiiuBn2b1YpjR+pQW3UYdVWHUFt1GM0NDXA4+O/y5yUjgM8BvMGy7G6+i+HCmAkA/RiGiYfz64FbEUT3CZyJSCTGlGnTkT9jhjMUFBbhrMmTIRAI+C6NEBKE7A4HjCYzjGYzTCazR4M+63CgubEBta6Bvq7qEI7W18HmoxsDeVIN4A0AH7As28N3MVwacwFgIIZhzoXzqsAVAEQ8l8O5yKgoTMsvQE7eFOTk5iE7Nw+Tc3LpJkNCyClYloXZYoXRbIbRZB713fu63l40HjuKxmNH0HTsKBqO1KG+phomo3+n9/UTE4Av4fy0v4PvYnxlTAeAfgzDJAC4Gc6rApP5rcb3klNSkJ07Bdm5ucjOzUN2bi4mZ+ciMiqK79IIIX5ktdlgMltgNJlgMltGdOe+Qd+HpoZjaDzqHOj7XwNgHn1/qAXwJoD3WZbV8F2Mr4VEAOjneoxwEYDr4ZxhMIHfivyHYRikpqUjJy8Pk3PyXK+5mJSdA4kkqG+ZIIS42B0OmM0W56d8sxk22+m/dzebTGhuHDzQNx47ik5lux8rDgidAL6F807+bXwX408hFQAGcj1KuADAZa5/4/mtiB8CgQDjMzIxOScHWRPPwoTMLGRmZWFCZhbS0sdDKAyYdgyEkJP0f8I3WywwW6ynTMFrt9vR2a5AW8tx57/WFrQdb0bTsaNoV7SB5fCxviDTDOArAOsB7AzGR/i4ELIB4GQMwxTDGQQuxxi6edAbYeHhSEsfj8ysLGRkZiEja6L7dXxGBnVHJMSPWJaFxWqFyWKF2TXo2x0OWCxmtLe2ugd5RWuL87XlOJSKNtjtQX/3PVeq4Bz0v2JZtpzvYgIBBYAhMAyTixNhoJjncgISwzBISU0dFAz6rxxMyMhEdEwM3yUSEtQcDgfMFitMFgvUajWaGhtdg3wzFC0t7mVVZ2cwTqDjDyyAUpwY9Ot5rifgUAA4A4ZhxuPE1wQLEEAtigNZZFQUUuRypKSkIiU1FSlyOZLlqZDLU5Esl0OemgpZQiKct2UQEpocDgfUKhUUijbn5fmWVrQr2qBUtqOjvR2qzk6oujpg0Ov5LjVY2ABsg3PQ/5pl2Tae6wloFABGgWEYGYDFcN5IuAj0VYFXwsLDkZSc7AoFzpCQIk9FijwV8lRnUEhOSYFIRF81kOBjsZihbHcO5O0KBTqUCijb26Foa4Oy3bms6uwI1Da2waQawBbXvxKWZbt5ridoUADwAsMwcjiDwP9v79x+2yiiOPydXZRdq7HrZB2uhRIaIQF9Q5F45h8vj0iFNx4oCioUWipiO4lt5EuzOzzM2l1vnKQVCevL75OOZubMaHUsP5zf7tymouCzaiNaP8yMZnOHZK/FbtIiSVrsJgnJ3t6svpu0aO3tsZsk7OwmWrgoboX0/Jxut0u306bT9tbttOl02nTbbbqdDu328az/9ER56JY4Ik/2wHfOuaW+F3iZkQC4QczsPq+/DnwL3Ks2os3DzLjbbJK0CoKh1SJpTcVDi91WQrO5Q73RoF6vU683dMzyhvFqMmEw6NPr9Rj0+5yentA5LiT0TofO8fGs3u20OTs91Vx7NTzDJ/tHwCPn3ErcC7wKSADcImZ2wPyUwXvVRiQuI45jtusN6o0G2/U6jbovp20vFnLB0GgsHHtne1trGm4Z5xz/DAb0ez36gz79PIH3e2e+7Pfo971/1lfwTceOx+Oqf4q4nL+Y/6S/UvcCrxISAP8jZvYlXgh8AxwCnwPKGGuCmbG1tUVcqxHHMXFcI4oiorwdRTFxzft9O5qNnfZF8cWxURQRhiFBGBKGAWEwrYcEQUAQeP/UFwYhFgS+Hk77w9kzgsBmzwDI0pQ0S8ky5+u5ZVlKmmakaYrLMtIs96fen2UpWZa99uXjp88Yj8eMRkNGwxHj8YjRaMS41B4Nh/m40cWxw6EvC2Mnk4newteLDHgCPAa+x7/h/1xtSJuDBECFmFkDv83wsGCfVBqUEELcHr/hk/3UfnTO9SuNaIORAFgyzOxd5gXBIbBXaVBCCPH2/M18sn/snNuICwVWBQmAFcDMPmVeEHwN1CsMSQghivSAH5hP9s+qDUlchwTACpJfarQPPAS+ysuH+HMJ1u7aYyHE0jDG35j3U8l+d0omK4cEwBphZu/grzsuC4MDdIKhEOLNOcfvty8n+iPnnC4XWBMkADYAM4uAL7goDO6jXQhCbDIOvzCvnOifOOe0V3LNkQDYYMxsG78V8UFuB4X6R0BQXXRCiBsiA/4Efs3tqFD/xTmniwY2FAkAsZD8q8E+F4XBg9yvtQZCLA9j4CmLk/xT59ykwtjEkiIBIN4aMwvwxxyXxcE+8DF+26KmFoS4ORx+W90fLE70z51zWXXhiVVEAkDcOGa2hZ9CuFewcvt9tDBRCIAUeIn/TH+ZPXfOvaosQrGWSACISjCzEPiAeVFQtg8B3dIjVpkJ8IKrk/tLrawXVSABIJaW/LyDHaCFn1Yo2mW+WiXBik1hCBwD7bwsW9l/qv3xYlmRABBrhZnd4Xqh0ATuAo1CqemIzSLFn153VihPuJjA59paMS/WCQkAIZgJh7vMC4OySLiuv4YWP942Dv8WPk3aZ5fUr+xXIhdCAkCIGyOfsojwQmCRxVf0XTU2wp/JEJbsJnzg34azvCzaf/WN8cl6aqNS+ypbONY5N3rDv0MIcQ3/AqxOsJeMO2R2AAAAAElFTkSuQmCC;" vertex="1" parent="1">
          <mxGeometry x="145.75" y="-354" width="159" height="159" as="geometry" />
        </mxCell>
        <mxCell id="Vk-62K6m2aPXj279RXAr-2" value="&lt;font size=&quot;1&quot;&gt;&lt;b style=&quot;&quot;&gt;&lt;font style=&quot;font-size: 40px;&quot; color=&quot;#123f67&quot;&gt;Master&amp;nbsp;&lt;/font&gt;&lt;br&gt;&lt;/b&gt;&lt;/font&gt;" style="text;html=1;strokeColor=none;fillColor=none;align=center;verticalAlign=middle;whiteSpace=wrap;rounded=0;" vertex="1" parent="1">
          <mxGeometry x="133" y="-176" width="184.5" height="32" as="geometry" />
        </mxCell>
        <mxCell id="Vk-62K6m2aPXj279RXAr-3" value="" style="shape=image;verticalLabelPosition=bottom;labelBackgroundColor=default;verticalAlign=top;aspect=fixed;imageAspect=0;image=data:image/png,iVBORw0KGgoAAAANSUhEUgAAAgAAAAIACAYAAAD0eNT6AAAABHNCSVQICAgIfAhkiAAAAAlwSFlzAAAN1wAADdcBQiibeAAAABl0RVh0U29mdHdhcmUAd3d3Lmlua3NjYXBlLm9yZ5vuPBoAACAASURBVHic7N15fFx1vf/x15mZZCZ72+xpmqRpmybd05buLbRsBQooiLKIIu6KIuqPK9crLlevKFdFryLuiOKCUNkpUAqllO77kqXNvu/LJLPPnN8fM0mTNm3TycycmeTzfDzmMSdn5pzzCQ+a7/t8zznfr6KqKkKIwFEURQHigAQg0fdKGPIeDUQBhvO8X+izS32/2HcUwAW4h7y7R1h3vvdL+a4LsAH9vpdlyHL/RdZbVPljJURAKfJvSggvRVFiOX+jnXiRz4YuxwO6EJc/EVi4tNDQC7QDbb73dqBdVdX+kFcuRBiSACDGFUVRDEAqkOF7pfve04AkLtx46zUoWYSelSGBgLMCwkjrVFV1aVOqEMEjAUCEPUVRdEAKZxrzoQ372etS8HZrCxFI3Vw4NJz9c7dcshDhTgKA0IyiKFMYuRE/e10qcnYuIosL6ODCgaENqAXqVFW1aFSnmMAkAIigUBQlDZgx5DWNcxv4KM0KFCK8tOMNAwOvmrN+bpEeBRFoEgCEXxRF0QM5DG/kh77itatOiHHHDtRzbjCoBaqBalVVnZpVJyKSBABxXr674vMZuYHPRc7ghQgXLqAKKD/rVQY0Su+BGIkEgAlOUZQUzn8Wn6lhaUKIwOgHTnFuOChXVbVLy8KEtiQATBCKoiQANwPzGN7IJ2pZlxBCU+14ewnODgenVVW1aVmYCD4JAOOcoigLgG8AHwBiNC5HCBEZPMBp4PCQ1yFVVZs1rUoElASAcUxRlLXAy8hZvhAiMFo4KxQAp1RV9WhalfCLBIBxSlGU1cCbyFm/ECK4LMBRhoeCY6qqWjWtSlyUBIBxSlGUHcAaresQQkxIbrz3EgwEgsPAYVVV2zStSgwjAWAcUhRlFbBT6zqEEOIsjXjDwC7gHWCvqqoOTSuawAxaFyCC4jatC5jodHo9MbFxmGLjiImLwxQTS0xcPKaYWKJjYjDoDegNBnR6PXqDAb3egN63rNPrMRgGPvd9Zhj+uV5vwDBs+zP70Z31/bP3rTec+RwUPG43Ho8Hj9uFx+PB7Xbj8bi9690e3+du3/oz3xu2fsj3BvbnHvo9txu324XDZsNus2G3WX3L1sHXwGcOmxW73YbDeuYzp0PaiHEiy/e63vezVVGUXcB2vIFgj6qqdo1qm3AkAIxPcVoXEIkURYcpNtbXYPsa7tg477rYeN/70PXnfmbybRttNGr964ya3mDwTbQQrXEl56eqniEBYaTgYPV+Zrdht1qxWfvp6+nG3N2Nuacbc08XfT3d9Pf24PHI/WphJAbY4HsB2BRF2Y03EGwHdsnjiMEjlwACRFEUBViEN90mAEbgLVVV6zWo5Sng7lAfN1wYDFEkTplC0uRkEqckkzQleXA5Ni5+2Fm5KS6emJhYTHFxGE1yv+R4p6oe+s1mXzjowtzT7V32BYTh67wvu1Xm6dGQHdiLt3dgO/C+3FwYOBIAxsA3it61wEbfe+pZX1GB94BHVVV9KVh1/OntAzFAEd5Bfub+6dHv3brjtRdnBOt4WtDp9SROmkLSlGQSJ08haUqK7z2ZxMm+Rt73WVyCPPUoAsfpcJwJB73dw4KCubuLvrPW9fX24HG7tS57vHIA+xgeCPo1rSiCSQC4BL4JcJbhbfCvA5YAulFs6gG+pKrq42Ot4U9vH8gALvO95uNt9POH1tFQXcm37v3wWA8VdIqiI2HSpDNn6pOnkDglxXfGPsW3ztuwxyUm4e1kESK8qaqKpc882IvQ19NNb3cnvd1d9HR1Ye7upKu9jc7WZrrbWnC7XFqXHMmcwH7OBIKdqqr2aVpRBJEAcBGKomTgbfA3AlcDU8awu/tUVf3VaL/8p7cPJAFLOdPgLwOyR7Pt9z53N9XlJX4VGShxCYmkZWWTNjWb1KxsUjOzmZyS6jtbTyE+aRI63WjykxDjk8PlpKOtldbGBtqaG2lvbqKrtYmu1ha627wvl1Mm+bsELuBd4HngBVVVazWuJ6xJADiLoigGYBVnzvIXAoE69ewE8lRVNZ/9wZ/ePmACijnT2F8GFPh77NpTZfzoq5/F2h+8MKwoOqakppHqa+TTsrwNfVpWNqmZU4mNTwjasYUYr1xuN063G5fbjd3ppKujna7WZrpam+luax1c7mprobu1BZdTnpC4gIN4w8C/VVU9rnUx4UYCAIM38K0B7sT7CF1yEA/30B+37f8R3q77Zb7XQHd+QJ/KKD92iJ8+eB8Ou/9P1UQbjaRkTD3TuA9p6FMyMjEYZEZgIYJJVVWcbjcOlwuny4XD7Wbo3+2+7q7BQNDlu6zQ1dpCt2+dcwz//seZCrxh4Hm89w5M+MdBJnQAUBRlEd5G/3ZgWiiOmZ6d0/3DpzZ7GNulhFFrqqliyzN/Ydebr+FyjdyVGJ80idRMbyM/8Er1NfRJU1Lk2rsQYcbpdnvDgMuF0+3GfYFHG/t6umlvqKOltpqW2ipa6qppqa3GYu4NYcVhpxV4EXga2K5O0IZwwgUARVFmAHfgbfiLQn389OwcfvjU5lAflp7ODqrKTmC3egdaiYmLH2zoY2Jl2AAhIpnb4xkMAw6XC9conkLo6+7yhoK6gWBQQ2ttNTbLhLupvhp4CnhKVdUKjWsJqQkRAHw38n0Yb6O/XMtakqYk87NnX9eyBCHEOOfxeLC7XNhdLhxOJ55L+Dvf0942LBS01FTRWl8zUS4lvAc8CfxLVdVx30UybgOA72a+DwH34h1lSq9tRV55BUU8/MRftC5DCDGBOH03FNp99xFcKlVV6Wpt9oaC2hpaaqtorauhraF2vD6lYAX+DfwZ2Dpe7xcYdwFAUZRJwGeALzHKR+ZC6fYvfJVrPnSn1mUIISYoj6ricLmwO504XK4L3j9w0X15PHQ2NdBcW01T1Wlqy05Sd6oUh21cDdbXAPwaeEJV1Q6tiwmkcRMAFEWZCdwPfIIwHQtfbzDwv/94haQpwXzIQAghRs/ldmN3ubA5nX71DpzN4/HQXFNJbdlJaktPUFN2gq6W5gBUqjkL3h6Bn6mqekrrYgIh4gOAoiiXAw8ANzK6Ufk086mHvseqq6+/+BeFEEIDbo8Hm9MZsDAwwNzd6QsEJ6kpO0FjRXkkXzpQgZeAn6iq+q7WxYxFRAYARVGigI/gbfgXa1zOqNz6qS9yw52f0LoMIYQYlcEw4HDgDPDcBm6Xi8bKU9SUnqC27AQ1pScwd3UG9Bghsh/4Kd6bBiNuTOeICgC+G/s+BzyEd9a9sDdnyTJuuvtTFCyIiJwihBDnCGYYGNDV2uztJSg7SU3pCZprKiNpUqU64IfAb1VVjZiiIyYAKIpyHfATNHh2/1IoisK0mQXMv2wVS9auJ2/2HK1LEkKIgHF7PFgdDqwOx5huILwYh81G/ekyakqOU3ZwD3XlJURAe3UC+JqqqhHxrHfYBwBFUYrwdrFs1LqW84lPmsS8pSuYt2wV85auIHFySAb5E0IITdmdTiwOB/YQXM/v7+2hbP9uSvbv4tThA+H+pMGreINAqdaFXEjYBgBFUZKB7+Dt8g/oGPljpdPrmVE0j3nLVjH/spXkFhSiKGF9/6EQQgSN2+PB4nBgtdsvadAhf7mcTiqPH6Z03y5K9u+ip70t6Mf0gwt4HPiuqqpheYND2AUA3w1+XwQeBiZrXM6gpOQUFq5Yw/zLVjFnyTJi4uK1LkkIIcKOzenEYrfjCOBTBBfTVFVByf5dlO7bRUNFebhdKugEvgs8Hm43CoZVAFAUZTXwR7zT4GoucfIUll5+FcuuuIpZ8xfJWb4QQoySy+0e7BUIZStj7uqk1HepoOLIQZyOsBnC+CDw4XCabyBsAoCiKF8BHkXj7v6ESZNZsnYDy9ZfzeyFi6XRF0KIMXB7PPTZbFgdjpAf2+mwU3H0ECX73qd0/+5weNSwF/i0qqrPaF0IhEEAUBQlHvgD3sl6NBGfmMSStRu47IqrKSxeik4njb4QQgSSyxcEbBoEAfDOZ9BQUc7h7Vs5tH0r1j6zJnX4PAE8oKqqTcsiNA0AiqIUApvR4NE+gyGKJes2sPraTcxZvAydPizmChJCiHHN5XZjttlC8uTAeWtwOjm5dycH3trC6SMHtLpn4AjeSwLlWhwcNAwAiqLchvd6f0jvpkvJyOLyTR9k7fU3kzhJHtcTQggtON1uzFZrSG8WHEl3eysH3trCwbffoKs15HMW9AGfU1X16VAfGDQIAL7R/H6MdxjfEB1Tx/xlK9lw823MX75KrusLIUSYsDoc9Fqtmt+5r6oqFccOsX/ra5zc816o5yr4T1VVfxjKA4I2AeD3wCdDcayESZNZe91NXLHpVlIyI2LkYCGEmHDcHg+9Fgt2jXsDBlj7zOx94xV2vvQsfT3doTrsfaqq/ipUB4MQBwBFUf4L+O9gHydt6jRu/OgnWb7hGgxR0cE+nBBCiACwOByYw6A3YIDTYWf/1tfY8fwzdLe3BvtwKnCPqqpPBftAA0IWABRFuRsI6i+WnJbBjXd/ijUbb5Sb+oQQIgK5PR56LBbN7w0Yyu12cWT7W2z/9z9oa6gL6qGA21RV/XcwDzIgJAFAUZQNwBYgKhj7T0pOYdNd93L5pg9iMATlEEIIIUKoz2ajz6bpU3LnUFWVE7vf453n/kZj5algHcYB3Kiq6hvBOsCAoAcARVHmAjuBpEDvOz5pEtff8XE23Pxhoo3GQO9eCCGEhix2O73W8Jv0R1VVDr3zJlue+m2w7hGwAGtVVT0YjJ0PCGoA8E3ocxDICeR+dXo9133kY9xw5ycwxcYGctdCCCHCiNXhoMdi0bqMEdn6+3j96T+w9/WXg3Hfwm5VVVcGeqdDBTsAPAL8RyD3OXX6DD75H98hryDkYwcJIYTQgM3ppLu/X+syzquhopwXfvNz6k+XBXrXd6qq+vdA73RA0AKAoigpQBUBGuhHp9dzwx33cOPHPiXX+YUQYoKx+0JAeDwfcC5VVdn92gu8+uQTuAN3A2MtUKiqalCugwQzAATs7D8zJ4/PfPP75M4qDMTuhBBCRKBwvSdgqPpTpfzt0e8F8rHBb6mq+v1A7WyooASAQJ79Fy5awn3f+19i4xPGXpgQQoiI1mE243S7tS7jgvp7e/jnz/6H00cOBGJ3fUCBqqpNgdjZUMEaE/frBKDxX3HVdXz1x7+Uxl8IIQQAiRFw43dcYhKfePgRVm+6NRC7iwe+HYgdnS3gPQCKoiQB9YwxAGy6614+eO/nURQlMIUJIYQYF3qtVix2u9ZljMrzT/yMvW+8MtbddAJpqqoGtOsjGD0A6xhj4796443c8skvSOMvhBDiHAkmEzpdZEzqdvNnv8L81ZePdTdTgLUBKGeYYAUAv02dPoO77w/ok4NCCCHGEUVRiI2OjHleFEXhw/c/REZu/lh3tSkQ9QwVjACwxt8NjaYYvvDtHxFtNAWyHiGEEOOMMSpyHgfXGwzcet/Xx9prMS9Q9QwIRgDI83fDZRuuITPH782FEEJMEFF6PboIukw8dUYBi664eiy7yA1ULQOCEQCS/d1w0coxXT0QQggxgegj5D6AAYVLVoxl8/AOAL4nAPzql9EbDMxZsiyQ5QghhBjHIuVGwAEzFxSPpeYYRVEmBbKeQP/Xi/F3Q9XjweV0BrIWIYQQImw4nQ48Ho/WZQwKm/jk8Xg4sX+31mUIIYSIEO4wakxHo+LoIa1LGCZsAgDAgXe3aV2CEEKICBFOZ9OjcWzndq1LGCasAsC+7Vs5/P67WpchhBAizDlcLjxBnM4+0I7ufIeSfe9rXcYwYRUAAP746Pfo6WjXugwhhBBhzB5B94yZuzp54Tc/17qMc4RdAOjr6eZ3jzwcyPmUhRBCjCNujweLw6F1GaPicjr4188fwdpn1rqUc4RdAAA4eWAvP3voy9gsFq1LEUIIEWbMVivBmMo+0Gz9ffzxOw9y+uhBrUsZUVgGAPCGgEce+DQ9nR1alyKEECJM2J1ObBHQ/d/b2c5vvvkVqkuOa13KeYVtAACoPVXGD770CVrqa7UuRQghhMZUVaXXatW6jItqra/liW98mZbaaq1LuSAlkN0oiqJkAE0B26FPXEIid973dVZefX2gdy2EECJCmK1W+u12rcs4L1VV2fvGy7z259/isAUlqExWVbU7UDuLiAAwYP6yVXzsq/9JclpGsA4hhBAiDPXb7ZjD+Oy/q6WZzY//hIpjQR3sZ+IGAABjTCwf+vR9bLj5NpQImglKCCGEf/psNvpsNq3LGJGqquzZ8iJb/vI7HMGvcWIHgAEz5y7gE1//Fpm500NxOCGEEBoI527/jqYGNj/+E6pOHA3VISUADNAbDKy+dhOb7rqXlIysUB1WCCFECPRarVjCsPHvbmvh7Wef5uC2N3C7QzpmjQSAs+kNBtZceyObPnovyemZoT68EEKIABq4298aZoP99LS38c5zf2P/W69pNVidBIDz0RsMrNl4E5vu+oQEASGEiEAOl4seiyWsZvrr7Wznnef+zv6tr2o9bb0EgIvRGwysve4mbrjrXnliQAghIoCqqvTZbGF1vd/c1cn2zX9n7xuv4HKGRW+EBIDR0hsMFK++nMs33cKcxcvkqQEhhAhDTt9ZvysMzvpVVaXi6EH2vfkqJ/fsDPU1/ouRAOCP1MyprLvhA6zZeBNJU5K1LkcIISY8Fe8jfv1h8IifuauTA9u2sG/rq3S1NGtdzvlIABgLnV5P8arLuXzTB5m7dDmKEtajIQshxLhkdTjos9k0vdavqirlh/ay781XKd2/G4/brVktoyQBIFBSMrJYd/0HWHPdjUxKTtW6HCGEGPdsTid9Vqum3f097W3sf+s19r/1Gj3tbZrV4QcJAIGm0+uZd9lKlq7bwKJVlxOfmKR1SUIIMa7YnE76bDZcGp1l93Z2cHLvTk7s3kHlscMRMZ3wCMZnADBERaHX6bBrfAeoTqejYMFiFq9dz5I165mcmqZpPUIIEcnsvobfqUHD39ncyIk973Fi93vUlZdo3ugbTSZcTidu//9bjM8AkJKaxj9feJkH77+PA/v2BqymsVAUhbyCIpas28DitRvIyM7RuiQhhIgINqeTfrsdZ4gHzGmuqeLE7h2c2P0ezTWVIT32hSxYvJQHv/N9PnvnbfT3mf3dzfgNAPtOlOHxePjbU0/y6A++R29PT8BqC4Ss3HyWrF3P4rXryZ1VqHU5QggRVtweD1aHA4vdjidEZ9uqqlJ/qpTju3dwcs9OOpoaQnLc0UpISuKz93+N6z9wK4qisGntcgkAZxsIAAM6O9r50X9/l3/9/WnNu21GkpyeyeI1VzB3yXIKFizGFBurdUlCCKEJu9OJxeHAHqJR8izmXqpOHOX00QOU7H2f3s6OkBz3UiiKwsabP8hnvvxVJk2eMrheAsAIzg4AA04cO8oj3/sO721/e6zlBY1OpyNv9hwKFy2lqHgpM+ctxGiK0bosIYQIGo+qDp7tB/tRPrvFQtXJo1QcO0Tl8cM0V1eG5YnhgKUrVvGZ+7/GrMKicz6TADCC8wWAAW9vfZNHf/A9Sk4c97e8kNEbDOQXzqVw0VIKi5cyc+5CoqKjtS5LCCHGzO50YnM6sTkcBKsJdths1JQep/LYYSqOH6axohxPGIwSeDEFRXP51H33c9mqNef9jgSAEVwsAID3Ws+Wl1/ksR8/QnlZqT+H0YQhKpoZc+ZRVHwZhcVLyS+ah8EQpXVZQggxKgONvt3pDMq1fZfTQW3ZSW+Df+wQ9afKwm0I3gvKnzWbT3z+Ptasv/Ki35UAMILRBIABqqry5pZX+fXPH+Pwwf3+HE5T0UYjM+ctpHDRUgoWFJNXMIdoo1HrsoQQYpDD5cLqu64f6EbfabdTX1FG9YljVBw7RG3ZyXCZbOeSFM1fwEc/+VlWrrti1HPNSAAYwaUEgKF2vbeD3//6l7y99c2wviZ0IXqDgZyZs5k5dwH5RfPInVVIenaOTF4khAgph8uFzeHAFsBGX1VV2hvraagop668hNqykzRVV0TCsLsjUhSF5WvW8eG776H4suWXvL0EgBH4GwAGVJ4+xZ9++wSbn/kHFovF7/2EC1NsLDkzC8krKCR3ViF5BUVk5OTK3AVCiIDxqCoOlwt7gLr3PR4PbQ21NFaeoqHiFI0V5TRWVeCwWQNUsXZi4+K4+oabuPWOjzItb7rf+5EAMIKxBoABfWYzzz/3L/725z9FxA2Dl8JoiiFnZgG5BUXkFRSRW1BEZk4eOp2EAiHE6DjdbuxOJw6XC8cYBunxuN201tfSWFFOQ+UpGipP0VR1GqfGo7kG2szZhdz0odu56vpNxATgcW8JACMIVAAY6sC+vfzjL3/m1ZdewNLfH9B9h4too4lpMwq8PQW+3oLMnDwMUfLUgRDCe5Zvdzqxu1w4/DzLdzkdtNbX0lR5mgZfg99cXYnTMb4a+wGxcXFccfVGbrjlQ8yZvzCg+5YAMIJgBIABVquVLS+/yHP/+Du7du6IiMdJxkKn05GalU1W7nSycvO973n5ZObkEW00aV2eECLIHC7XYIN/KWPwO2w22hpqaa2vobWuhtY673Jnc2PE3mM1WopOx5JlK7hm082su/JqjKbg/K2UADCCYAaAoVqam3np38/x4uZnOXbkcNCPF04URSE5I9MXCvKZ6gsGWbnTMcbISIZCRCLVdx3f6XYPvl/s77rdavE28PW+Rt633N3WMu4b+rPNKiziims2cvX1N5Ganh7040kAGEGoAsBQVRWneenfm3n5hc2cKgvtscNNclrGYBjIys0nPXsaqZnZTEpJlacRhAgjbo8Hp8uFw9fgn296XVVV6e1op7OlifbG+iENfg09HW0hrjq85M8qYP0117Fh4/VkZU8L6bElAIxAiwAw1KmyMra8/CJbXnmJk8ePaVZHuDFERZOSkUlq5tQzr6yppGR432Ni47QuUYhxzeVr6B1uN06Xa9iwuzZLP50tTXQ2N9HV2jRkuZmu1mbcIZ6JL5wVFM1l7YarWHfV1eTk5WtWhwSAEWgdAIZqqK9j65bX2Pr6Fvbs2onTEXkDVIRKfGISKWeFg1RfOEhOy0Cn12tdohARw+3x4HS7cbndON1ubHYbXa0t3oa9pZmuFl8j73tZ/W9Ixr2o6GgWLV3G6svXs3LdetIyMrQuCZAAMKJwCgBD9ff1sWP722zf9hbbt22lqSG8ppoMZzqdjilpGUxOSWVSShqTU1KZnJLGpJTUwXWTklNlFEQxIVmtVtpbmuhoa6WjrYWutlZ6Otrp7Wynp7Od3o52ejvaxv1Ny4GUnpnFstVrWLZqLUuWrwzIY3uBJgFgBOEaAM5WXlbK9re2sn3bW+zbvQvHOH0MJpTiEhJ9oSBtWFg4sy6NhEmT5V4EERFUVcXc3UVXeytd7a10t7fR0dpCZ3srXW2tdHe00dPRLmfvARBtNLJwyWUsW7WGZavXaNq1P1oSAEYQKQFgKJvNxp73d7LjnW28v+NdSk+emHB30IaK3mAgaUoyCUmTiUtIJC4hkdiEROISEoiN977HJSQRm5Dg/Tw+kdiEBGLi4iU4CL+oqoq1vw+L2Ux/Xy/95l7vsrmHfrMZS1+v993s/azf3Iu5u4uerg659h4kOp2OornzWLV2HWuvWE/+7Lk4I6yHRALACCIxAJytp7ubvbvfZ8/7O9m98z1KThyX7juNKYqO2Pj4M4EhPsEXHAZeAwEi0RcekrzrEhIxxcRKeIhwqqpis1p8jbS38fY24r2DDfhA420x99Lfd6ZBt/T1oary71dLOp2OufMXsHzVapavXM1lK1aSNGnS4Odtnd30WyNrmOFwCgCGQO1IQNKkSVy98Xqu3ng94A0E+/fsZt+e3ezfs4ujRw7LDYUhpqqewT/wl0qn0xEbn0BcYpL3/azAMFIvRGxCIkajCb3BgN4QhcFgkBsh/eRxu3G5XLhdTtwuF3a7bbAhH+nse2iDbukz09/bg6XPLCE8gkRHG1mwaBFLl6/ksuUrWLp8BYlJSVqXNW5JAAiipEmTuPLajVx57UYA7HY7xw4f4tCB/Rw5dJCjhw5SV1ujcZXifDweD329PfT19oxpP4qioNcb0BsMGKKiBpf1UQYMegP6qCjvz/rhnw8sG4Z9brjg5/oob+gYWB7cZuj+hywDuJxO3G4XbpfrrGWXd9m3zuU6szz0uy6nt4H2Lrsu8vmZ7d1OJy63C7fTNfxz37JcThv/puXksnDxEhYsKqZ4yVIWFBcTHS03BYeKBIAQMhqNLPWl2gFdnR0cOXSIIwcPcPTwQQ4fPEhnR7uGVYpAU1UVl8uJy+XEPg5mRRPCH8kpqSwsLmZh8RIWFC9mYXExk6cka13WhCYBQGOTpyRzxZVXccWVVw2ua6iv48jBA95gcOgAx44cHreTGQkhxp+4+HjmL1zEwuIlLCwuZkHxYqaGeMQ9cXESAMLQ1OxpTM2exvU3fQDwdkWfPlXu7SU4dJAjhw9RXnIS+zibdlMIEXlMJhMFRXNYuKjY152/mBmzZsk05RFAAkAE0Ol0FMwupGB2IbfdcRfgDQW11VWUl5VSXlJCeVkJ5aWlVFaclhsNhRABFx1tJH/mTAoKCykonON7L2JaTq409hFKAkCE0ul05OXPIC9/Btdcd8PgerfLRVVlJeWlJ73hoLSU8tKTVFdVybPJQoiL0hsM5M+YwazZRd4Tj6IiCmYXkZefj16eaBlXJACMM3qDgZkFBcwsKOD6IeudDgcVp09RXlrKqbISykpKKC8rpb62BvclzBcuhBgf9Ho903LzmF1YxKzCQgpmFzG7qIjp+TOIio7WujwRAhIAJoio6GgK58ylcM7cYeudDgf1dbVUV1VRW11FdVWl772KutoauZwgRASLjjYyLTeH3On55OZNJ296vm85j+xpOYOPgoqJSQLABBcVHc30GTOZPmPmOZ95PB6aGhuoqaqipqrynJBgsVg03ydEJAAAIABJREFUqFgIMVRsXNxg456TN5286dMHG/yMrCy5Pi/OSwKAOC+dTjf4RMKqtevO+byttZWa6oFwUEl9bQ1NjY00NzbS3NQoTykIEQAmk4n0zCwys7LIyMwiJy+P3Lzpg2fyKalpWpcoIpQEAOG31LQ0UtPSWLps+Yifd3V1+sJAE82NDTQ3N53zc2/P2EbZEyKSJSYlkZHpbdgzs7LIyMoiIyOTjKypZGRmkpGZxaTJk7UuU4xTEgBE0EyePIXJk6dQNHfeeb9jsVi8YaCpieamIeHA93N7exud7e3SmyAiitFoJDk1leSUVDIyMn2N+5lGPSPT28jHxMRoXaqYwCQACE3FxsaSP3MW+TNnXfB7lv5+bxjoaKezvYOOjnY6O9rpaO+gw7e+o6ODznbvemuEzRAmwltMTAxTklOYkpJCSkqKdzk5heSUZN97KsnJyUxJSSE5OYXYuDitSxbioiQAiIgQGxdHTlwcObl5o/q+1Wr1BoN2XzAYEhh6erox9/bSZ+7F3NuL2dyL2WzG3NuLpb9fJqEZpxRFITYujoTERBISEkhISCQhMZF433tS0qTBBn1KcsqZBj0lVc7UxbgkAUCMSzExMWRPyyF7Ws4lbefxeOjv6zsnGPSZzZh7ezCbvcu9vb1n1vvWWa0WbFYbdrsdm82K3W6XxyjHKCo6GpPJhNFo8r6bjMTExBI/rAFPIDHRtxyfQEJikvfzxEQSB9clEhcfL3fECzGEBAAhhtDpdN4zxMTEgOzP4/GcCQQ2O3ZfMLBZrdhsNux2m/fd5nv3fTZ0G4fDjsftxu124/Z4ziy7Xb73Ies8bjxuNy6XG49n4HvedQPbulze7Twet+931qPX6zEYDOj0evQ6nffd99Lp9BgMet9nvnV6PXq9zvcdw5l1Ot3gcnS0EaPJiMkUg9FoxBTjezeZMJq8DfrZnxlNMcO2kQZbiOCRACBEEOl0OmJiYqQLWQgRdiReCyGEEBOQBAAhhBBiApIAIIQQQkxAEgCEEEKICUgCgBBCCDEBSQAQQgghJiAJAEIIIcQEJAFACCGEmIAkAAghhBATkAQAIYQQYgKSACCEEEJMQBIAhBBCiAlIAoAQQggxAUkAEEIIISYgCQBCCCEuyOPxaF2CCAKD1gUIIYTQnt1uZ9d7O9i/Zxctzc20tbbQ1tpKa0sLnR3tREVFkZaeQWpaGqlp6aSmpZGTl8e69Vcyu2iO1uULP0gAEEKICaq5sZFtb77Otq1v8P6727Faref9rt1up662hrrammHr/+c7D5M5dSobrrqGDVdfy8q164iJiQl26SIAFFVVA7czRckAmvzZNiU1jX0nygJWixBCiJEdPrif//3B99m5Y3vA920ymbjrnnv54le+yuQpyQHf/1Btnd30XyC0hKNNa5fT32f2d/PJqqp2B6oWuQdACCEmiPKyUj778Y/ywY1XB6XxB7DZbPzhicdZu3QRP3/0R1j6+4NyHDF2EgCEEGKca25s5Gv3fZ7rLl/NG6+9EpJj9vf18dijj7B26SKe/N1vcLvdITmuGD0JAEIIMY7t3vke129Yx+Zn/qHJ3fydHe1895vf4BN3fJie7oD1XosAkAAghBDj1FN/+B0fve2DdHV2aF0KO97Zxs3XbKC8rFTrUoSPBAAhhBhnnA4H33jgy3z7oQdxu1xalzOoprqKD268KmSXIcSFSQAQQohxxNLfz+0f2MQ/n/6L1qWMyNLfz+fuuZvfPf5/Wpcy4UkAEEKIcUJVVR74wmc5uH+f1qVckKqq/PC732bLKy9pXcqEJgFACCHGiccefSRiutdVVeVrX/wcZSUntS5lwpIAIIQQ48BrL73A//3kUa3LuCQWi4VP330nXV2dWpcyIUkAEEKICFdy4jhf/9IXCOTIrqFSV1vDF+79eFjdrDhRSAAQQogI5vF4+MrnP4PFYtG6FL/t3vkef/jN41qXMeFIABBCiAj24ubnKC8tCeoxjAYdOiWoh+DXv3iMPrPfY+QLP8hsgEIIEaHcLheP/fiHAd1nbLSOa+ZP5qbiZJbmJZA5KZrJcQZcHpWWHif1nXa2nuzipUOdHKg2E6irDt1dXfzu17/kgQcfCswOxUVJABBCiAj1zN/+Sk11VUD2lWDS88DGbL66cSrxRv05nxt0ClMnRzN1cjTLZyTwzRtzKGm08M1nq3nxUGBGGvzDE49zz6c+E/RZBIWXXAIQQogIZLfb+cVPA3PX/y1LUzj16GU8fHPOiI3/+RRlxbL5y3N456EFTJ0cPeY6+vv6+PUvHhvzfsToSAAQQogI9PLzm2lubBzTPhQFvnVzDv/8QhEp8VF+72dNQRK7Hy5mWX7CmOoB+Ouf/oDNZhvzfsTFySWAEOrv6+Pl5zdTcfo0RpMRo9FE3vTpLFy8hGk5uVqXJ4SIIG+9vmXM+/jxR/J54NqpAagGMidFs+0bC9jwyFH2Vvp/M5/VauX9d7ez4ZprA1KXOD8JACFg6e/ne//1EC9ufhar1TridyZPSWbR4sUsLF7CoiVLWVBczOTJU0JcqRAiEjgdDra//daY9nH36rSANf4DTFE6Nn95Diu+e5j6Lrvf+9n6xhYJACEgASDIOjvauef22zh25PAFv9fV2cHbW9/k7a1vDq7LzZvOwiGhYO78BRiNxmCXLIQIc7vffw9Lf7/f2xdkxPDEPbMCWNEZGUnR/P0Lhaz9wRG/97HtjS2o6k9RlCA/ezjBSQAIIpfTyYdvup6KU6f82r6muoqa6ipe3PwcAIaoKAqL5rCweDELFy9h0eKlzJg1C51ObuUQYiLZOsbu//++NQ+jIXh/N1bOTOSWpSls3t/u1/Ytzc0cP3qE+QsXBbgyMZQEgCB66fnNfjf+I3E5nRw/eoTjR4/w9J//BEBsXBwFs4uYPWcOswuLmF00h9lFRSSnpAbsuEKI8LL9ra1+b7skL55bl6YEsJqRff/WPJ4/0I7Hz3ECtr+1VQJAkEkACKLf//pXQT+Gpb+fwwf3c/jg/mHrk1NSKSyaQ0HRmVBQUDiH2NjYoNckhAgej8dDfX2d39vfvTo9gNWcX0FGDJflJ7Cnwr8bAmtrqgNbkDiHBIAgaWlu5uTxY5odv6O9jZ07trNzx/bBdYqiMC0nl4KiIgqL5jC7aA4FRXOYMWMmeoP8ryBEJOjq7BjTxDk3FodukJ3rF07xOwC0tbYEuBpxNvmrHyQ228h3+2tJVVVqa6qpralm65bXBtdHRUeTN306udPzyZueT07e9MGfp07NlnAgRBhpa231e9uCjBhyk0N3I/GVRZP4NjV+bTuW31OMjvxlDxK73f9HYELN6XBwqqyMU2Vl53ymNxjInpZD7pBQkJvnfc/JyyU6Wp5KECKUxnJmPG1KaP+9Tks2+b2t9AAEnwSAIMnIyCQ62ojDETlBYCRul4uaqkpqqip59+3hnymKQkZW1vBeg7zpZOfkkpmVRXJKqjzGI0SAtbb43zBmBWC43kuRnhSFTsGvGwE72tvxeDzylFMQSQAIksSkJK7aeB2vvvi81qUEjaqqNDU00NTQwK73dpzzeVR0NOnpGWRkZZGZlUVmVjaZWVnenzOzyMiaSmpamvwDF+IS2McwTG5M1OjH+Q8Eg04hSq/D7vJc8rZutxuXyym9jEEkASCIPnLXR8d1ALgYp8NBfV0t9XW15/2O3mAgLT2drKypZGRN9QaEzCxfUJhKZmYWqWlpGKL8H6dciPEkJS3N722behwBrOTiuvpdfjX+AAmJidL4B5kEgCBat/5KvviVr/Krx36qdSlhy+1yDfYiXEhiUhJTklNITk4mOSWVKSne5SnJKUxJTiElNWVwOTk5majo0HZ1ChEqaen+P8bXOIbhef3R1O1/4BjL7ylGRwJAkH39P79FT3c3f33yj1qXEtF6e3ro7emhurJiVN+PT0ggOSXVGxJSUkhOTmGKLzwkp6SQmJhEQmLimVdCIvEJCXI5YpxyOhyYzb2Ye3u9/y/5loe9hqzrPetnq9VCalo6U6dmM2f+fD73pfuZkhz8wXRGkprmf8NY0mjB6vAQEx2a/88P1vT5ve1Yfk8xOhIAQuC/f/wTbv7Qh/ndr/6Pra+/hsfjX5eYGL0+s5k+s5maqspRb6MoCjGxsSQOCQXegJB05ueEhHOCw8ByfHw8JlMMRqNRHp0MoGGN95DGurenZ1SNt7m3JyBP5fT39VFdWcHOHdv5+1/+zH0PfI1Pf+FLIQ+NqWO4BGBxeHjrZDebFoVmorFXj3T6ve1Yfk8xOvJXKkSWLlvO0mXLaWpoYP/ePd7R+w7s58SxoxH1yOB4pqoqlv5+LP39NDc1jWlfeoMBk8mE0WjCFGMaDAYmkwlTzMByDKYY73eMJt93TL71poF1Jm+g0OvR6fXodDr0Ou+yXq/zvuu8673r9Oh9yzqdzrudzvvdkfahqioulxOX04nT6cLtduF0On3rziwPfDbwPe86Jy6Xd53L5Rr83tD9uVwDnw1sO2TfLidul2v4Nr7vWSyWgDbegdZnNvPI975Dn9nM1x76r5AeOzrayKTJk+nu6vJr+38faA9JALA5Pbxx3L8aAdIzMgNYjRiJBIAQy5w6lRs/eAs3fvAWwDu+f8nJExw+eIDDB/Zz+OABqipOo6p+DqAtwoLb5aK/r4/+Pv+7QEX4+9VjP2XO/AVct+mmkB536fIVwwbzuhR/29XKN2/KIT/V/2f0R+NXbzXSbfF/xMKly1cEsBoxEiWQDY2iKBmAX6dOKalp7Dtx7kA0E1FvTw9HDx/k8IEDHDq4nyMHD9LR3qZ1WUKIEWRlZ7PzYGiH/f7nX5/iG1+93+/tb1+eyl8/VxjAiobrtrgoeHAfnf3+BYDoaCOHyisvOndJW2c3/dbwG3X1QjatXU5/n3/DIwOTVVXtDlQt0gMQhhKTklhz+XrWXL5+cF19Xe1gD8GRQwcpKzmJubdXwyqFEACN9fWcKitj1uzZITvm+quvRVEUv3sK/7m3jY8sTw3avABf+kuF340/wIrVa2TishCQABAhsqflkD0th00fuGVwXVNDA2WlJZSXnqT05EnKS0s4XV4WltdMhRjPtm/bGtIAkJaezryFizh2+JBf26sqfOy3Zez81iLmZAW2of3hy3X8fffYxvG/8tqNAapGXIgEgAiWOXUqmVOncsWVVw2uc7vd1FRVUlZaQlnJScpLSigtOUltdRVut1vDaoUYvyz9/SE/5lXXbPQ7AACYbW5u+tkJXv7qXAozAxMCnni7iYc3V495P1dec+3YixEXJQFgnNHr9eTPnEX+zFnDbkyy2+2cKiulvLSEspISykpOUFZaQktTk9xwKMQYZWVnh/yYN9/6IX7xkx+PKdhXt9tY/d9H+NvnC7l2/mS/9+PyqDzwdAW/3ja2p2cAlq1cxdTsaWPej7g4CQAThNFoZN6ChcxbsHDYepvNRm1NNTVVlVRXVlJbXUV1VRU1VZU0NtRLr4EQo5A1NfQBIHd6Ph+6/U7++fRfxrSfHquLG392nLtXp/PtD+SSc4nTBb9xvItvPFPF0brA9IJ8PcSPVU5k8hSAOC+X00l9XS011b6AUFVJTbU3HNTV1Eb8TIdCBEL+zFm8vn2nJvNVNNbXs37F0oD9WzQadNy9Oo2bFyezvmgSpqiRBzlq7Hbw6pFO/rarlXfLegJybIDLN1zJk/94dtTfl6cAxkZ6AMR5GaKiyMufQV7+DODKYZ95PB6aGxuprjrTa9BQX0dTQz1NTY20NDfjdvl/F7AQkeKhh7+r2WRVWdnZ3Pnxe3jyd78JyP7sLg+/397M77c3ExutoygrlqzJRjKTorE63TR2OajvtFPWHPhGV1GUkA+qNNFJD4AICo/HQ1trK82NDTQ1NXon/GlspKmxwbuusZGWlmZcTqfWpQrht9vv/jg//MljmtbQ3tbK5ZcVY7FYNK1jrK7bdBOP//HPl7SN9ACMjfQAiKDQ6XSkZ2SQnpHBQpaM+B2Px0N7WxvNjQ00NjbQ3NjoCwn1NDU20trcTHt7myZ3WAtxIYaoKL79g0f46D33al0KKalpfOXBb/A/33lY61L8lpCYyH9869talzHhSAAQmtHpdKSlp5OWns6C4sXn/Z7NZqOzvZ2O9jY6OjroaG+js6Od9rZ2OjuGrG/zrrdG2BmBiAxGo5Ely5ZzxZVXcfXG632XxsLDp7/wJU4cO8oLz43++nm40Ol0/OI3fyB3er7WpUw4EgBE2DOZTGRlZ4/6USuLxeINBm3DA0NHezudHR3eWeTOng62zyyXI8YxnU5HfELCsGmgE5OSBmdzTDzr5zOfn/l+TEyM1r/GBf3osV9SVVnJ0UMHtS7lknzj4e8OG8tEhI4EADHuxMbGEhvrHTnxUthstsEZ6IZOMds7wpSzw372TT1ss1mx2WwSJAJMURRi4+J8DXXSmemafT8PnbJ5WAM/5OfYuDgURdH6Vwkqo9HIb//8NDddfQWtLS1alzMqt3z4dj79hfu0LmPCkgAghI/JN/3uWOch93g82Gw27HYbdqv33WazYbfZBtcP/9mOzWr1vtus2G2+d7sdu82K0+nC43bjcrlwe9x43G7cbo/33ePG7T6zzu124Xb71nkG1rnPfNflOrPO40ZRFAyGKAxRBqIMURiioogyGDBEnbVsiCIqyuBb5/2+d12U73ODd3ngewP7Grrs21eU7/tn9nXu8aOio4lPSBg8I9fpRn4cTQyXnpHBb//8NB+5+YawHxJ88dLL+OFPtb2BcqKTACBEgOl0Ol8vRCz4P7iaEH5ZuHgJ/3zhFT57z0dpaW7WupwRXXPdDfzs8d8QHX1pgw6JwJJYLYQQ48zCxUt48c13WLR4qdalDKMoCl/++oM88eRfiI2L07qcCU8CgBBCjENp6en888WXueXDt2tdCuC9N+dXv/8TDzz40Li/HyNSSAAQQohxKjrayE9++Wse/v4PNT3jLphdyLOvvM51N96sWQ3iXGETAGTYWCGECI5PfOZz7Nh/mE985nMhve4+NXsa//t/j/Pa9p0UzZ0X8P27PZE3WZnbHT5tXdgEgK6uTmprqrUuQwghxqUpySk8/P0f8vbu/dx2x13o9fqgHuvbP3iEt3fv59aP3BG0pziczvBpTEejprICWxgNVBZWTwHs2vEuObl5WpchhBDjVlZ2Nj/++S/57H338/xzz7Dtjdc5efzYmPdrMplYtXYd66++lltu+0hILjkEci6bUDi4d7fWJQwTNpMBASwoXszmV15HbwirXCKEEONac1MTb7/5Otu2vsH+Pbvp7uq66DZ6g4Hs7GmsW7+B9Vdfy8o1azGZTCGo1sujqtQ2hudjjiNxuVx87q7bqCgf06R3AZ0MKKwCAMCXv/4gDzz4UIAqEkIIcakcDjttra20tbbQ2tJCe2srRpOJtPR0UtPSSU1LY/KUZE0HaOq32mjrvHhQCRe//+VjPP2H3451N+M7AOj1ev718haKl4TX86tCCCHCR1tnF/1Wm9ZljMqJo4f58ifuxjP2mxYDGgDC5ibAAW63my9+6h4qT5/SuhQhhBBhyOZwREzjX1ddxff+46uBaPwDLuwCAEBTQwMf2nRdxM1qJYQQIrhUFTq6e7QuY1RKjh3lvnvuojVMh2QOywAA0NXZwR233MSOd7ZpXYoQQogw0dvXFxGP/+15710e+Mw99PYErMc+4MI2AABY+vu5967b2fzMP7QuRQghhMZcbjfd5j6ty7ioV/79LN/8yhex28L7MkXY3QR4PtfdeDP//aNHSU5JDcbuhRBChDFVVWnp6MRmd2hdynl1drTz0+9/h53B67ke3zcBns9rL73A1WtW8tK/N2tdihBCiBBSVZXWzq6wbvzfeOVF7rllUzAb/4CLmB6Aoa69fhPff/QnpKSmBftQQgghNORRVVrD+My/o62Vn3z/O+x6951QHG5i9gAM9fqrL3PNmpU887e/4naH36MVQgghxs7jUWlpD8/G3+1289Kzz3DPrTeGqvEPuIjsARgqd3o+93/9QW665UNBndxCCCFE6Hg8HprbO3E4nVqXMozH4+aNl1/kqd89QVN9XagPP75HAvTX9Bkz+fLXHuSmW27VdHhKIYQQY2N3OGnv6sYZRtPEezxutr72Ck/95nEa6mq1KkMCwIXkz5zF/V//DzZ94IMSBIQQIoKoqkq3uY+eMHrUT/V42Pb6qzz5m8ep137KegkAozGzoIAvfuXr3HDTzURFR2tdjhBCiAtwOJ20d/WETZe/y+nknTdf56+/f4KaqkqtyxkgAeBSTElO4daP3MGdH/s4efkztC5HCCHEECrQY+6jx2wmgM2R3+prqnl587/Y8uLz9HSH3WyDEgD8oSgKK1av4Y6772HjDZukV0AIITTmcDrp6O7B7tD2rN/pcPDutjd5+bl/cXj/Xk1ruQgJAGMlvQJCCKEdp8tFd28f/VarpnXUVVfx0uZ/8fqLz4f1mP1DSAAIlKG9AtfecAPR0UatSxJCiHHL5XbT3Wumz6Jdw+9w2Hl365u89NwzHD24X7M6/CQBIBji4uNZf9U1XHv9Day/6hri4uO1LkkIIcYFl9tNj7mPPotFk+v8/X1mdu/Yzo5tW9n7/ntYLZbQFxEY4zMAxMbFkZObR+nJEwGrx1/R0UZWr1vHtddv4qqN18kEREII4Qe3x0OPuQ9zv4VAtjWj0dnRzs63t7Hj7a0c2rcHVxg8XTCraA41FRU4HHZ/dzE+A0BKahq7Dh/nV4/9lF/9/Kc4HeEx9KNOp2PJsuVce/0mrrn+Bqbl5GpdkhBChDW7w4m5v59+qy2kDX9jfR07tm1lx7atnDx2BNXjCdmxLyQ62sjHPvN5br/nk9x8xSr6+8z+7mr8BoB9J8oAqDh1im9/4/+xc8f2gNUWKHPmzR8MA4Vz5mpdjhBChAVVVem3Wunts4T0Wf7TZaXs2LaV997eSuWp8pAdd7SWrljF/Q99i2zfyeOmtcslAJxtaAAY8OqLz/M/33mYhtCPtzwq03JyWX35Faxas44Vq9eQmiazEwohJhany4W530KfxYonBGfcHe1tHN63h4N793Bgzy5amhqDfkx/pGdm8bkH/h9XXH3tsPUSAEYwUgAAsNvt/OGJx/n1L35Gn9nv/2ghMWv2bFauXsvKtetYsWoNkyZP1rokIYQIOBWwWG2Y+/uDPlNfT3cXh/fv49De3Rzat5fa6rAZlW9EcfEJ3Hnvp/jQXR8b8ckyCQAjOF8AGNDV1clv/u8XPPWH32LV+NnR0VAUhaK581i1dh0rV69l2cpVxCckaF2WEEL4zeZwYLHa6LdacbuDc7bf32fmyIH9HPKd5VedLg/5DYT+iImN5ZY7PspHPnYvCYmJ5/2eBIARXCwADGhva+WJ//s5f3/qSSwR9CiHXq9n3sJFrFqzllVr17Fk2QpiYmK0LksIIS7I7nDQb7XRb7XhdrsDvn+b1crRQwc4tG8Ph/bu4VRpCR5P4I8TLDGxsdx82+3cfs8nSZp08V5fCQAjGG0AGNDV1cmTv/sNf/79b+npjogRnIaJio5m0eIlXLZ8BQuKF7Nw0WIysrK0LksIIbA7nPRbrVisNlwBbvRbm5spPXGU0hPHOXboIKXHj+IKo2l/RyshMZFb7ribW+/4KAlJSaPeTgLACC41AAywWCw8+/en+eNvw2rGJr+kpad7w0DxEhYWF7Ng0WKSJk3SuiwhxARgdzixWK30B7DR7+3ppvTEcUpPHKPsxHFKjh+lq6MjIPvWytRpOdx6591cd/MtmPzoxZUAMAJ/A8AAj8fDtjde58nf/5b3d2yPiGtGo5E7PZ+FxcUsLF7CguLFzJ2/QC4dCCHGzOPxYLU7sNrs2Oz2MTf6NquV8pKTlJ04RumJ45ScOEZTmD7BdakURWHpytV84MN3sHLt5Sg6nd/7kgAwgrEGgKGqKk7z1yf/yOZn/kF3V9hN5zgmeoOBgtmFLChezKLixSwoXszMggKZx0AIcVF2hxOr3Y7VZsc+hsHWHA47NRUVg2f3pSeOUV1REVHX7kcjMWkS1954Mzfddvvgc/xjJQFgBIEMAAMcDjtvvPoKm5/5B+++vS0oN7CEA71eT15+PgWziygoKqJgdiEFhXOYnp+P3mDQujwhhEbcHg9Wmx2r3Y7NZsd9ic/pu1wu6muqqa44TdXpU1RVet8b6+rGXWM/QKfTc9mq1Vx38y2svnw9hqiogO5fAsAIghEAhmprbeX5Z//Js//4O+WlJUE7TjiJio4mf8ZMCgq9gaCgsJDZhUVMy81DN4YuLCFEeFJVFbvDMdi1P9oR+TweN411dVRVnKaq4tRgg19fUx2RN+j5I3/WbDbeeDNXXX8jk5OTg3YcCQAjCHYAGOrEsaO88Ny/eOn5zTQ3hucoUsFkMpmYWTCbWbMLmV1UxKzZRcyaPZup2dMkGAgRQdxuDzaHA7vv5XA4udBfdI/HTUtjI9WVFcMa+tqqqrFMUBOx0jIyWX/NRq68bhOzCotCckwJACMIZQAYoKoqhw8e4NUXn+fVl16gsb4+pMcPN1HR0WRPyyE3L4+cvOnk+l45edPJycvDaJT7DITQktPlwmb3NvY2hwOX69xueLvdRlN9PY31dTTU1dJYX0ej7725sWHCnNGfT0bWVK64+louv+paCufND/nxJQCMQIsAMJSqqhw7fIgtr7zEG6+9QsWpU5rVEo4URSE9I2MwGJwJCN6wIMMeCxFYqqricDqxOZzY7d4Gf2CsfXNPDw31dTTW19JY531vqPM2+J3tbePmKahAyc2fwdoNV7F2w1UUFGk7iZsEgBFoHQDOVl1ZwdbXt/DWG1vYt2c37gmemi8madKkM+EgN5eMrKlkZmaRkZVFRmYmySmpKIqidZlChCVvY+/C4XRidzhobm6mqaGBttYW2lqaaWtpobGhjobaWhrra8N+XhStGQy8+WPRAAAgAElEQVQG5i9ewqp161l9+Xoys6dpXdIgCQAjCLcAMJS5t5edO7azfdtbbN+2laaGBq1LijhR0dGkp2f4AkEWmUPfs6aSkZFJWnq6PLUgxjW3y0VzSzN1tbXU19XR1NhAU2MDLU1NtLa00N7aQntbK64QTqc7XqSmp7N0xSqWrVrLZatWExcfnnOvSAAYQTgHgLOVl5Wy/a2tvPv2Nvbtfh+7feLdPBMMOp2O1LS0wUCQkeUNCOkZmSSnpDAlOYXk5BSmpCTLuAcirDgcdjrbO2hvb6Ozo52O9nZamptoamigsbFxsJHv7GgPyZS5E4HJZGLR0mUsWbGKy1atIXd6vtYljYoEgBFEUgAYym63s3fXTt7fsYM977/H0SOH5XJBCMQnJHjDQHIyU1JSSElJ9S4np5CcknJWYEiRGxjFJbHb7XS0tdHR0U5nRwedHe20t7UNLnd0tNPR1j643N/Xp3XJ457eYGDBwkWs9E2odtmKlfT0WemPgNlhhwqnACD9rWNkNBpZe8UG1l6xAQBLfz8H9u1h98732PXeDgkEQdJnNtNnNlNTXTWq78fFx/sCg7cHYdKkySQkJpKQkOB7TyQ+IZGExETiExJITEwkPt77WVx8vDweGWE8Hs/g/yNmcy9msxlzb6/3594e+vq8P/f61nV3d9HR3k5nu7dBt/T3a/0rTHiGqCgWLipm5Zq1LF+1msWXLSc2Nvasb0VW4x9uJAAEWGxc3LBAYLVaOXxgP/v37Gbfnt0cOrBPbuDRQH9fH/19fdTWVF/ytoqiEBsXdyYwnCcsxCckYDKZMMXEeN9NMRhNRowm789GowlTjHe9yWTCaDJO+EsZDocdm9WG3W7HZrP6lm3YbDbsZ/1ss1qx2WwXbdTNZjOW/n65Ez7CxCcksHjpMi5bvoKly1ewaMlSTCaT1mWNaxIAgiwmJoaVa9aycs1awHtmcvpUOUcOHuDooYMcOXSQkpMn5KafMKaq6mCAaA7wvnU6HUajEaPJ5AsFA+HAdCZEGI3o9Xp0ej16vc67rNP73nXe9QPvvpei6HzLA5/rB/eh0ymD+wDv4DButxuPR8Xj9i67PW7fsge3242qet/dbt96jweP243H4/Ft69vO7Rncx2CjbrNhtw1p1If8LI30xBQVHU3hnLksXFTMwsXeic5mziqQnrYQkwAQYjqdzjtW/+xCbrvjLsB7FnTy+DGOHjrE4YMHOHr4IJWnT8sfxwnA4/FgtVqxRth1TCFGS1EU8mfO9E1zvpiFxYspmjdvwvd+hQO5CTBMmXt7OXbkMEcOHeTIwQMcOXxwQg5bLISILJlTp7KoeAkLfNOYz1+4iPiE4DyS19bZLTcBjoH0AISphMREVq1dx6q16wbXtba0eC8bHD5I6ckTlJeUUFdbIz0FQoiQ0+l0TMvNo2B2IYVz57Jw0WIWLl5MSmqa1qWJUZIAEEHS0tO5auN1XLXxusF1VquV02WllJeVUl5aSnnpScrLSif8vAZCiMBQFIWsqdmDE4d5ZxctYmbBbLlJL8JJAIhwMTExzF9UzPxFxcPW9/f1+UJBie/lDQetLS0aVSqECHcZmZnMml3ka+wLvY397CJi4+K0Lk0EgQSAcSouPp7iJUspXrJ02Pqe7m5OlZVS5gsGladPU1NVSWNDPW73uTOLCSHGF71ez9TsaeROzyd/5kxmFxYxq7CIgtmFJCYlaV2eCCEJABNM0qRJLPU9ZzuUy+mkvq6W6qoqaqurqK6qpKa6ipqqSupqaifkXOFCRCqj0ci03Fxyp+d7Z+30vedNn072tByZc0MAEgCEjyEqirz8GeTlzzjnM4/HQ3NjI9VVlb5wMDwkyKhpQoReXHz8OY17Tt508qbnk5GVJbNviouSACAuSqfTkZWdTVZ29rCnEga0t7VSXVVFfW0NTY2NNDc20NzURFPT/2fvvsPaOLO2gd8jgQrVIJoAG3BsigtgTFzikrjGTnPapjtlS4qzySbZvNn0ZL9N2U12s9kkm55NL05ipzpxnBjbcccYcKHaphgQAiQBEuplvj8kZLAxBmmkkdD5XZcvDaMphzf78twazTzHuaxWUQMUQkZDIBAgITHxlMZYKfI0TMjMREZmJmQJiXyXSYIcBQDitYTEJCQkJqF41uwh37fbbOhQKqFUtrvDgbJdAWW7whUYFOjoUMJqsfi5ckL8TyQSIzmlvzW2HCnyNKTI5dQam/gd/S+M+JwwLMx9BQE4e8htWJaFRq1yhgOFwh0WVK4GLRq1yrmsVkHb2+vfX4CQM2AYBjGxsa4OlK6ulImJkCUkIEWeCrk81T3gx8XL6PI8CQgUAEhAYBgGsoREyBISMXV6/rDb2qxWaDSaIduyatRqd0c3tSsw9Pb00GRJZFQYhkHsuHGntJWOl8lcraedXSX7O0zKZDL6xE6CDv0vlgSdsPBwJCUnIyk5eUTb2202dHdroFGroVap0NvbM6CLnHZQZznnete6AZ3lSPCJiIx0dmp0dXCMjol1Lg/o6tjf0TE6Jgaxsf0Dvgxx8TIIhUK+fwVCfIoCABnzhGFh7vsUPGG326Hv63OHgj6dDtr+sNDnakWr08Hoalfb37bWZDLCbDSd6IhnNsFkNLnfM5lMId8FMiw83N310NlK+UQHRIlECrF04HvOV6lU6hq0Y12tmZ0tmaMHDPaRUVE0gBNyBhQACDkDoVCImNhYn0ySYrfbXa1xja5w0B8WzO4gYbGY4XA43O15T7TvdQxo3ztUe15XK1+HA3bHgFa+dodzX4dz4ieBwNlW2N062NU+mBEMaCk8RPvhE+2FB7YoFrjXiUTiQQN3/6DuHuQlEhqkCeERBQBCeCQUChERGUlTrRJC/E7AdwGEEEII8T8KAIQQQkgIogBACCGEhCAKAIQQQkgIogBACCGEhCAKAIQQQkgIogBACCGEhCAKAIQQQkgIogBACCGEhCAKAIQQQkgIogBACCGEhCAKAIQQQkgIogBACCFkWA6Hg+8SiA9QN0BCCCEwm83YvWM7yvbuRodSia7ODnR1dqKzowMatQrh4eFISk5BYlISEpOSkZiUhAmZmVi4aAly8qbwXT7xAAUAQggJUUqFAiU//4SSXzZh16/bYDQaT7ut2WxGy/FmtBxvHrT+mScfhzwtDYuXLsfiZedj7oKFkEqlvi6dcIBhWZa7gzFMCoB2T/ZNSEzCvqo6zmohhBAytMryMvzz6aewc/s2zo8tkUhw/c2/xZ333Ie4eBnnxx+oS9MD/TChJRBdtGA29H06T3ePY1m2h6ta6B4AQggJEfV1tbjtphtw2YplPhn8AcBkMuGd11/FguJC/Of5f8Cg1/vkPMR7FAAIIWSMUyoU+PMf78DKc+dh048b/HJOfV8fXnz+71hQXIj33noDdrvdL+clI0cBgBBCxrA9O3fggsULsf7zz3i5m1+jVuGvjzyIW669Cr09nF29JhygAEAIIWPUB++8hRt+cxm6NWq+S8H2rSVYtXwx6utq+S6FuFAAIISQMcZqseDBe+/GEw89ALvNxnc5bs1NjbhsxVK/fQ1BhkcBgBBCxhCDXo9rLr0Iaz/+kO9ShmTQ63H7zavx1qsv811KyKMAQAghYwTLsrh3zW0oL9vHdynDYlkWz/71CWzc8B3fpYQ0CgCEEDJGvPj834Pm8jrLsvjznbejrqaa71JCFgUAQggZA3787hu8/K/n+S5jVAwGA/6w+jp0d2v4LiUkUQAghJAgV1N1GPfftQZczuzqLy3Hm7HmtzcF1M2KoYICACGEBDGHw4F77rgVBoOB71I8tmfnDrzzxqt8lxFyKAAQQkgQ+3b9OtTX1vj0HALGp4cHALz20ovo03k8Rz7xAHUDJISQIGW32fDic89yeswIkQDLp8fhkhkyzMyMQlKMCLKocFjtDnT0WqHoNmNzTQ++q9Bgf5MOXH3r0NPdjbdeewX3PvAQNwckZ0TdAAkhJEh9+sF7ePj+ezk5VrREiHtXpOO+FWmIEgtHtE+NwoBHvmzCtxXczDQYGRWF7WWVI+4iSN0AvUNfARBCSBAym8146QVu7vq/vDgBR54/G4+vmjDiwR8A8lIjsP7uKdj6UD7S4kRe16Hv68NrL73o9XHIyFAAIISQIPT91+uhVCi8OgbDAI+tmoC1a/KQEBXu8XHmZ8diz+MzMGtitFf1AMBH774Dk8nk9XHImdE9AH6i7e3F91+vx7q1n6KxoQFiiRhisQSZWVkoKJqJghkzUVhUhHhZAt+lEkKCwOafNnp9jOeunoh7z0/joBpAPk6EkgfzsfjvB1Ha4PnNfEajEbt+3YbFy8/npC5yehQA/GDnr1tx6003wKDXn/Jec2MDtpVsdv+cPn4CCmcWo2BGEQqLZmJqfgGkUqk/yyWEBDirxYJtWzafecNhrJ6XxNng308SLsD6u6dgzl8r0dpt9vg4v2zaSAHADygA+NiP33+LP93+B1gtlhFt39pyHK0tx/H91+sBAMKwMGTn5A4KBZOycyAUjvx7OkLI2LJn144hP1CMVHaKFK/fPJnDik5IiRXh0zW5WPD0AY+PUbJpI1j2BTCMH54/DGEUAHxI2d6Ou2/7PWxWq8fHsNtsqKk6jJqqw/j0g/cAABEREZhWUIjComLkFxYiJ28qsiZOhDCM/nMSEgp+8fLy/9+uyIQ4zHe3gM2dFIPLixOwvkzl0f4dSiUOHzyA6QWFHFdGBqIRw4feffN1rwb/0zEYDCjdvQulu3e514lEYpw1eTJy8vKQnTsFObl5yM7LQ1r6eErRhIwx2zb/4vG+MzOjcEWx7+81euqKTHy9XwWHh0+ab9v8CwUAH6MA4CMmkwmffvie385nsZjdVwoGioyKQnZOLrLzToSCnNw8JCQm+a02Qgh3HA4HWltbPN5/9bxkDqs5vewUKc6eGI29xzy7IfB4cxO3BZFTUADwEY1KBZ1Wy3cZ0Pf1oWJ/GSr2lw1aHy9LcF0tcAaCyTm5yMiaiMQkCgaEBLJujdqrxjkXzxjZJDtcuKAg3uMA0NXZwXE15GQUAHzEbA7s51g1ahV279iO3Tu2D1ofERGBjKyJyMya6HrNcv+cLJfT1wmE8Kyrs9PjfbNTpMiQiTmsZnhL8sbhCTR7tK83vycZGQoAPmKz2fkuwSMGg2HIrxIAQCKRYEJGpjMQTBwcEFLT0iEQ0LxShPiaN5+Mx8f7b/AHgPEyicf70hUA36MA4CNnTZ6MlNRUr2fqCiQmkwn1dbWor6s95b1wkQjjJ2QgMysL6RMyIE9NRYo8zfmamgp5aipEIv/+8SFkLOrs8HxgTOVgut7RSI4Nh4CBRzcCqlUqOBwO+mDhQxQAfEQgEODy31yNV//zb75L8QurxYKGo0fQcPTIabeJlyWcCATyVKSkugKCPBWpaWlIlqfSpEeEnIHZi2lypeH+nT8kTMAgXCiA2eYY9b52ux02m5U+OPgQBQAfuvbGm/HJB++hp7ub71ICgkatgkatQtWhg6fdZlxcHFLkqa6gkAa5PBVJycmIT0hAvCwBMpkMsoRERMfE+LFyQgJHghc36rb3jmxCMq50620eDf4AEB0TQ4O/j1EA8KH08RPw/mdf4rorVkHf18d3OUGhp7sbPd3dqK2uGna7sPBwyGQyxMucwSAhMcG9LJPJEJ+QAFlConubmNhYuoGRnJHdZoNWp4VOq4W2txc6rRY6nRZGgxEpcjnGT8hAslzO60ycScmeP8an8GJ6Xk+093geOLz5PcnIUADwsfwZRXjv0y/wyP33DvndOfGMzWpFh1KJDqVyRNsLw8IQHx/vCgXOQBAdE+P8Fx3jXo6KjkbMSeuiY2IhFtMnkUDncDig7+tzDt5a1+DtWta6lge/1+sc5HUn3jMYDGc8jywhEff95SFcfcONvASBxCTPB8YahQFGiwNSkX++Vy9v9vyDjze/JxkZCgB+UDx7Djb+ugtbft6Ed996A+X79o7oDw3hjt1mQ1dnp8ePFoWLRM5QEB09ZHCIjolBVFQUJBIpxGIxxBIpJFIJxGIJJBIJJFLneolE4txGIoZEIoVEIgmpKZwdDgdsNitsVhusVivsdhusVptrndW9bDAYBnwKdw7SAz+Ra0/6hK7t7YW+rw8s6+G0c6OgVnXhkf+7D++/8xbeX7sOKXK5z885kDdzdRgsDmyu7sFFhfEcVnR6PxzQeLwvzUnie6Hzl4dnDMNg8fLzsXj5+bDb7ThSV4sD5ftRWVGOyv1lOFJXC7s9OB8dDAVWi8V9DwPXhEIhxEMEA7FY4goRYgiFQgiEQggYgXtZKBRAIBA6fxYIXOuEELqWBQLXtgLntkMdg2VZ2KxW2GzOwdc5IFtd61zL/e/ZbO5l56tzILfZnNu63xuwj/s917LD4dn3wYGovrYGt9+yGp9/u8Gv31WLRGKMi4vz+N6ir/ar/BIATFYHNh32/P6n5BT/BqtQRAGAB0KhELlTpiJ3ylRcfcONAJzP31cdPIDK8jJUlpfjQPl+tHkx3ScJHna7HQa93qvuboQfB8r34/898hCeev4Fv563ePYc/LLxR4/2/WR3Jx65ZAImJnr+jP5I/HezAj0Gz2csLJ49h8NqyFAYLi+ZMQyTAqDdk30TEpOwr6qOs1rGAlVXJw6Ul6OyYj8q9+/HwcpyaHt7+S6LEDKAVCpFRX2jX+8TWfvRB3jwvj95vP81sxPx0e25HFY0WI/BhuwH9kGj9ywAiERiVNQ3ICIiYtjtujQ90BuNHp2DLxctmA19n2fTIwOIY1m2h6ta6ApAAEtITMKS81dgyfkrAAAsy6Kp4RgOVFSgrqYadTVVqKutgaK1ledKCQldRqMRpbt3YsF5i/12zkXLzgfDMB7f87C2tAtXz070WV+Auz485vHgDwBz5s0/4+BPvEcBIIgwDIOssyYh66xJg9b36XSoq61BfU01amuqUV9bg7qaGnRr1DxVSkhoKd2z268BICk5GdMKCnGossKj/VkWuPHNOux8rBBTUrkdaJ/9vgWf7vFuHv/+Dz3EtygAjAFR0dGYefYszDx71qD1XZ2dqK+tRm21MxTU1lTjaF0tPYFACMdiY8f5/ZxLl6/wOAAAgM5kxyX/rsL3901FrpybEPD6lnY8vr7J6+MsWX6+98WQM6IAMIYlJiUhMSkJ8xae517Hsixajje7vkKoQVPDMTQ3NqCpsRGqLuq+RYgn0tLT/X7OVVdciZf+9ZxXTw81qUyY97cD+OSOXJw/Pc7j49gcLO79+BheK/HoFrBBZs09B2np470+DjkzCgAhhmEYTMjIxISMTCxbccGg9/R9fWhuanQHAudrA5oajqGzo8Mvz1gTEmwYhkF27hS/nzcjayKuvOY6rP34Q6+O02u04eJ/H8bqecl44tIMTBhlu+BNh7vx4OeNONjCzVMs9z/0KCfHIWdGTwGQETEajTje1IimxoZTAoJSoRhTz3cTMhqXXnkV/v3qG7ycW9HaikVzimGxcDPFrzhMgNXzknBFcQLOzR0HUdjQ02d3aq3YcECDD3d24Nc67p5MOnfxErz32Zcj3p6eAvAOBQDiNYvFjONNzWhrbUF7Wyva2xVQKhRQtLVB2d6GdoWCeiGQMUkikaBkdxnkaWm81fDXRx7Ee29xH0BipEJMS49EcowISTHhMFkd6NBa0NZtQVWr3qMWv8NhGAbfbCrB9ILCEe9DAcA79BUA8ZpIJMak7GxMys4+7TY6rRbt7Qq0t7VBqWhzL7crFFC2t0HR1kYhgQQVWUIiXvvf+7wO/gBw5z334fOPP+T85l6t0Y5dR7ScHnM4Ky68eFSDP/EeBQDiF/3z5WfnnH7ykT6dDu0KBdoVrWhXKNCpVEKl6oJGrYZGrYJa5ZyKV6PRwG7z/BljQrzBMAxmnzMPL7zyOu+DP+C8enrPAw/imScf57sUj0XHxOAvjz3BdxkhhwIACRhR0dGYnJODyTk5w27Hsiy0vb1Qu8KBWq2CRqWC2hUUNGoVVF0q97JGo4HV4t8+6CR4SSQSRMfEODtGRp/oGjkuLg7Fs2Zj4aLFkCUk8l3mIH9YcxeqDh3EN+tG/v15oBAIBHjpjXeQkTWR71JCDgUAEnQYhkHsuHGIHTcOEydNHtE+Oq3WHQbcHeZcneScrzp3S9iB7WF1Wi20Oi1dcQgS7q6NMTGIiYlBTEzsoI6NA392DvADtnX9HBYezvev4ZF/vPgKGhsacLCinO9SRuXBx/+K85Ys5buMkEQBgISE/j/6nn7KMBqNAwJC76CAoNPp0Neng8logslkhMlkgtlkHPSzyWiC2WxyLrveM7veC7UnKMLCwxEmFCIsPBzhYeEICw9zrQtzrQtDuEiEKFfr5UGDdkwsYoYc0J2vEolvG9wEMrFYjDff/xiXLDsPnR0dfJczIpdfdQ3+sOaPfJcRsigAEDICUqkUUqkUScnJnB/barHAbDYPCgsDg4TVaoPDbofdYYfD4XAu2+2w2x1gWYdr2e7axnHSNnbXNo4B25w4DsMwAwbfMISFhSM8PHzQIO1cFzbkdsKwMISHhQ3azrku3L1dWNiJgV0YRn9yfCk5JQVvvv8xrl51Icxmbh4N9JWi4rPx7Asv8l1GSKP/bySEZ+EikfsTLyHeKiiaibXfbMBtN9+ADqWS73KGtHzlhfj3q29AJPJfB0VyKgHfBRBCCOFWQdFMfPvzVhQWFfNdyiAMw+Du+x/A6+99iIjISL7LCXkUAAghZAxKSk7G2m+/x+VXXcN3KQCAiIgI/Pftd3HvAw+BYYaeYZD4FwUAQggZo0QiMf71ymt4/Klnef3EnZ2Tiy83/ISVF6/irQZyKgoAhBAyxt1y6+3YXlaJW2693a/fu6elj8c/X34VP27bibyp0/x2XjIyFAAIISQExMsS8PhTz2LLnjL85trrIRQKfXquJ57+O7bsKcMVV18LgYCGmkAUMM2AoqKjcejYcc5qIYQQcnrHjhzB1+s+R8mmn1B9+JDXx5NIJDhnwUIsWnY+Lv/N1X75yqFDrYHRFNiPOw7EOhxYMXemN90bx2Y3QADYWlqOjMwszuohhBByZsr2dmz5+SeU/LIJZXv3oKe7+4z7CMPCkJ4+HgsXLcaiZedj7vwFfp+I6Xh7R1BNpNXa3ITVl17gzSHGbjfAH7/7BrffdQ/fZRBCSEhJkctx7Y0349obbwbgbPHd1dmJrs4OdHZ0QNXZCbFEgqTkZCQmJSMxKQlx8TLeL+1z+QHWH7aX/MJ3CYME1BWAqOhobN27P+AabRBCCAksdrsdLcpOvssYsR6NBtdfsgIGvVdtzzm9AhBQd2b06XR4/pmn+C6DEEJIgDME0Xf/APD2Ky96O/hzLqACAACs/egDvP/2m3yXQQghJID1GQx8lzBi6z/7GBu+CrxWzQEXAADgr488iPWff8Z3GYQQQgKQTm+A2WLlu4wR2fT9N3jluWf4LmNIARkAWJbFA3/6IzZu+I7vUgghhAQQu8OBbq2O7zJGZPvmn/GPJx4N2JsVAzIAAM4bPO783c145YV/Buz/8QghhPhXd6824B/9Yx0OfPDmq3jigXvhcNj5Lue0AuopgNM5d/ES/Pu1NxEXF8/1oQkhhAQJk9kCpUrNdxnD6unW4OlH/oKy3Tt9cfix+xTA6Wwr2YwLFy9EZXkZ36UQQgjhgc1uh6qbs7HPJw5XluMP11zhq8Gfc0FxBaBfWHg4brvzLqy558+IiIjw1WkIIYQEEKvNhg6VBjZ7YF5ONxoM+OCt1/DFh+/B7tsax+5UwCOVIpfjwcf/H1ZdcaWvT0UIIYRHVqsNSrUadnvgfe/Psix+/uE7vPniv6BWdfnjlBQA+hXPmo0nn30OU6fn++uUhBBC/MRitUKp0gTkTX/1NVV46R/PoOpAhT9PSwFgIIFAgKuuX40/P/gwEhKT/HlqQgghPmK2WNCh1sDhCKynwLrVavzv1Zew4et1YP0fTCgADEUsFuM3116PP9x5FyZkZPJRAiGEEA706vrQo+sLqEfA21tb8Nn7/8PGb7/2pp2vtygADEcoFOLCVZfi9rvuQd7UaXyWQgghZBSsNhtU3T0BNcvfkdoafPre29j286ZAeKafAsBInbdkKe64+17MmnsO36UQQggZhrZPj26tLmA+9Vfs24tP33sH+3bt4LuUgSgAjFZR8dn43e1rsHTFSohEYr7LIYQQ4mKzOZ/vN1ksfJcCi8WMHVs244uP3kft4UN8lzMUCgCeGhcXh0suuwJXXnMdphfO4LscQggJWSzLQqs3oCcAPvXXHj6Ejd9+hc0bN6BPF9B9BigAcCE7Nw9XXnMdLvvNVfT0ACGE+AnLOlv59uj6fD1pzrA0ahV+3vAdfvxmPZobjvFWxyhRAOCSMCwM5y1ZiiuvuQ5Llp2PcJGI75IIIWRM6jMY0aPV8Tajn81qxa5ft2Djt1+jdOd2XgOIhygA+EpcXDwuvuxyLL/wIsyecw7CwsP5LokQQoKe3mhCj1YHq83m93PbbDYc2L8PO7ZsRsnGH6DtDex+AmcwNgNAXFw8fnPdDXjn9f8GRCqLiY3FoqXLsGzFBThvyTJERkXxXRIhhAQVg8mEHm0fLFb/PtZn0Pdh747t2Lm1BHt3/hoQ3+sLBEJcdePN+PaLz2DQ6z09zNgMAAmJSdhXVYdDlRW4/+47UV9bw1ld3goXiTB33gIsv+BCLD1/JZJTUvguiRBCApLd4UCf3gCdwQCbzX8f5ro6OrBrWwl2bC1BZVkpbH4OHcOZODkHDzz5N+RMmYaLFsyGvs/jQDK2AwAAWC0WvP36q3jlhedhMBg4q48LDMNgeuEMLFtxAZavvADZuXl8l0QIIbwzWSzQ9RlgMJn8dld/w5E67Nhagp1bSlBfU+WXc45GRGQkbrx1Da68/kYIhUIAoAAwlIEBoJ+yvR3/fOZv+OqLtQHZDAIAMjKzsHDRYsydvwCzz8bR+pcAACAASURBVJmHeFkC3yURQohfOBws+gwG6PQGv3y/36PRoLKsFBX79qJ01w4oFW0+P6cnGIEAKy+5DL/7459OGRMoAAxhqADQr/rwITzzxGPYuX2bN+X5HMMwmJyTi7nzFzgDwdx5GBcXx3dZhBDCKbPFCp3eAL3R6NNP+7093Tiwfx8q9jkH/WB4XG/WOfNx+73/h6xJk4d8nwLAEIYLAP1279iOF/7+NMpK93pyCr9jGAa5U6Y6A8G8BZg19xzExMbyXRYhhIyaxWqF3miCwWjy2ad9nVbrGvD3orKsFI1Hj/A+SdBIFcw8G79dczfyi2YOux0FgCGMJAD02761BC+/8E/s27Pbk1PxRiAQYOr0fMyZNx9z5i3ArDlzERUdzXdZhBAyJKvVBr3RCL2PBn19nw4H9pehsqwUlWWlOFpfx0eLXa/kF83E6t/fjuK580a0PQWAIYwmAPQr27sHr7/yH5Rs+iloUuJAQqEQuVOmIn9GEQoKZ6CgaCYm5+S6bxYhhBB/s9ps0BtN0BuMnA76drsdjUePoLbqEGoPH0Jt1SE0Hj0aCB32Ro0RCDB3wbm45qbfYfqMolHtSwFgCJ4EgH5NDcfwvzdew5effQKj0ejRMQKFVCrF1PwCFMwoQn5hEQqKipCRmcV3WYSQMcxitcFgMsFgNMJi9X7QZ1kWbS3HUVd1CDWHD6G26jCO1tbAbDZxUC1/pBERWHHJZbjiutVIGz/Bo2NQABiCNwGgn7a3F+vWfooP330HjceOenWsQDIuLg75hUXInzEDBYVFKCiaicQk6l9ACPGMw+GA0WyB0WSGyWz2empedVcnaqsOo+bwQdRVHUZd9WHotFqOquVfRtZEXHr1dVh+0SWIiPRuUjgKAEPgIgD0Y1kWO7ZtwWcffYifN/4AawC0meRaSmoqCmfMRP6MIuTkTUFOXh5S09LBMAzfpRFCApDZYoXRbIbRZIbZw7+JLMtCqWhD07GjaDhS77ycX3UYqs4OjqvlX7hIhAWLluLCy69E0aw5nB2XAsAQuAwAA3Vr1Fi39jN88enHATW7oC9EREYiOycP2bm5yM7tf51CMxcSEoLsDgeMJrP7U759lDfXdXV0oOnYETQeO4KmY0fRePQImhqOwRTkX7OeyVnZOVi56nIsv/ASRPvgqS0KAEPwVQAYqPrwIXz1xVp8u/5LdHaMvcR6OjGxsa5AkIec3DxMzslFTl4eTVpEyBhidzhgtlhgNltgNFtGPP9+t1rtHOCPHUFj/0B/7Kg3g1TQSUhKxtKVF2LZhZdg4uRsn56LAsAQ/BEA+jkcDpTu3oUN33yFH777Fhq1yi/nDTTxsgTk5DkDweScXGRNnIgJmVlITUunJxEICXBWmw1mixUmswVmi2XYO/btdjs62xVoa21B2/FmNDUccw/0vT3dfqw6cIyLj8e5S8/H4vNXYnphERiBwC/npQAwBH8GgIHsdjt27/gV33/9FTb9+AO6NWq/1xBohGFhSB8/ARmZWcjIzMSEzCxkZGUhIzML4zMyIZVK+S6RkJDCArBYrDBbLDC5PuWffEnfbDKhreU4FK0tULQeh6KlBW2tLVC0HEdHuyIguqzybVxcPOYvXopFy1egsPhsCAT+/6BDAWAIfAWAgex2O/aX7sXPG3/Azz/+gOamRl7rCVRJycnOUOD6NyEzC5lZWZiQlYW4uHi+yyMk6NkdjsEDvsUKlmXR29MNRYtzgHcO7icGe7Wqi++yA1Jq+njMW7QE889bgumFM/z2Sf90KAAMIRACwMmO1tdj86YfsXnTTyjfV0oJegSiY2IwISMTKampkMtTkZKahhS5fNDPERERfJdJSMCw2+0wW23o6e1BW0srFG2tULYr0NXRAVVnB7o6O9DVoYSitTWkvpf3lEAgxLTCQsxdcB7mnrsIGVkT+S5pEAoAQwjEADBQd7cGv5aUYOvmn7F96xZK216IjolxhwF5aipSUlORkiI/8bM8FbHjxvFdJiGc6enuhrJdgdbWVihaW9HW1op2RRs62tvR2aFEV0cHDe5eiJcl4Oxz5mPWvPk4e848n9y9zxUKAEMI9AAwEMuyqK+twY5tW7F9awlKd+8K+hkIA41UKkWyPBXy1FQkp6RAlpCIeFkCZDIZ4hMSIEtIdC7LEhAdE8N3uSQEaXt7oVGroFaroVGroFGpoFKpoFGroOrqgrK9Hcr2NnQolTCbgnsGvEATERGB2efMw4xZczG9qBiZZ03iu6QRowAwhGAKACezWiyo2F+GXTt+xe4d21Gxv2xMTj4UqMJFIncYiJclQJYgGzYwUEdGcjKWZU8Z0NVdXScGd7UKqi6Ve1mtVsM2wsfsiPfCRSLMmFmMc+YvxDkLFqKwaCbCRSJ0aXqgD7IPXxQAhhDMAeBkJpMJ+/ftRenuXdi3ZzcqyvbBRJ8AAkZYeDhiY8chOiYG0dHRrtcYRLmWo6KjERMTg6io/p9jnNvExCDatS4yKopmXQwQDocD+r4+9Ol00Om00Ol00Gm10Gm16NNpB63r63/tc75qXet6e3toQA8gUqkURcWzUDxnDs6eMxczz54NiURyynYUALwTxtWByAkSiQTzFpyLeQvOBQDYrFYcPFCJ0t07sW/PblSWl4fs3AOBwGa1Qq3q8uo+DoZhEBkV5QwLrvAQFR0DiUQCiVQCiUQKiUQCseufRCKFWCyGROpcL3GvH/zeyduKxeKgDRosy8JsNsNkNDpfTUaYTaZBP5tMJpiMJpjNJtfyMNsanducPKgb9Pqg7AZKToiXJaBw5kzMmjMXs+bOw/T8AoSFh/Nd1phHVwB40tpyHAcrynGgogIHK8tx6EAl9H19fJdFApBIJIZQKIBAKIRQKIRQIHQtCyAQuNa71znXM4zAtexaLxC4lwUCgXt7AHDY7bA77HA4HM5lux32gct2O1jWAbvdAbvdfmJ7u3Mfu93hXud+3+6AxWLm+f9yJBBFRUdjekGhs8FZYSHyZxQh3cPOenQFwDt0BYAn6eMnIH38BFxwyaUAnJcxG44excHKchyoKMfBigpUHz5Ef0QJ/W+ABC2xWIwp06Yjf0aRu8X5xEmTgvaq1lhDASBACAQCTMrOxqTsbFx+1TUAnJeqa2uqXYHAGQyO1tfRfASEkIAjDAtDdk6uc7AvnOHsVJqbR5fyAxgFgAAWFh6OafkFmJZfgOtvugUAYDQaUXXwAGqqq1BfU436ulrU19agpzs05/MmhPhfXFw8svOczcWy86Ygd8pUTJ2eP+SNeiRwUQAIMlKpFMWz56B49uD+1J0dHaivrUZdTQ3qa2tQX1uL+roaGPR6niolhAS7yKgoZOfkIjtvinOwd7UYT0xK4rs0wgEKAGNEUnIykpKTMf/cRe51LMuirbUF9TU1qKutQX1tNepra3G0vp6+VyaEuInFYkzKznG2DM/Lw+Qc52ta+ni+SyM+RAFgDGMYxn2z4eLl57vX2+12NDc2oK62Bg1Hj+J4UyOamxrR3NiADqWSHqkiZAxiGAbJcjkysya6m3hNnDQJObl5mJCZRS3AQxAFgBAkFAoxcdJkTJw0+ZT3zGYzjjc1nQgFrmDQ3NSE1pbjNFkKIQEsXCRC+vgJzu6cJ3XsHJ+RAbFYzHeJJIBQACCDiMViTM7JweScnFPes9vtaFe0obmpEccbG9Hc1OQKB86gQPcbEOJ7kVFR7oE9I2siMjIznYN9VhbkqWkQ8NzulgQPCgBkxIRCofsrhf5ZDgfq1qihaGuDUqFAe7sCSkUb2hUKKNsVzsYoijYYDAYeKickOERERiJF3t86O9XVLTPtxM9paYiLi+e7TDJGUAAgnImLlyEuXoap0/NPu422txfKdoUzGCjaXEFh8M86rdaPVRPiHzGxsc7B/eRB3dUCO0WeSo2qiF9RACB+FRMbi5jYWGTn5p12G4Ne77py0AZVlwrdGjXUahU0ajU0KhXUatc6lRq9Pd1wOBx+/A0IcRIIBIgdFwdZgszVeTIBcTIZ4mUyyPo7UyYmuAb6NERERPBdMiGDUAAgASciMhJnTZ6MsyafepPiyRwOB3q6NVCr1MMGhf42rhqNhlo1kyGFi0SIj48f1FY6Lt41mCckDBrY42XxGBcXT9+3k6BGAYAENYFA4P6DPVJGo/FEq1itdogWsq62stqT2sjqet3LdC9DYImIiHC3co6OjnW3do5xr4s58X5/G2j3OuerVCrl+9cgxK8oAJCQI5VKIZVKkZSc7PEx7DYbdDqdu698n04Ho9Hgbm/b3+rW7G5ja3S3xjWZXK1vXe+Z+9viDmh5298eN9ivVoSLRCfaH4tPbpUsHfSzs5WydNC2Yvd7/dtKIJVGDBjInYM6PcNOyOhRACDEA8KwMIyLi8O4uDifnsfhcMBisQxq1evob7vrYE9pw+tuz+sY0MrX4YDdMaCVr90OB+s8HgBni2DmRLtgoat9MCMY0FJYcFL74QEtiAUCZsA2J1oOi0QiukROSACjAEBIABMIBNRghRDiExTPCSGEkBBEAYAQQggJQRQACCGEkBBEAYAQQggJQRQACCGEkBBEAYAQQggJQRQACCGEkBBEAYAQQggJQRQACCGEkBBEAYAQQggJQRQACCGEkBBEvQAIIYQAADqUSuwv3YMOpRJdnR3o6uxEZ0cHVF2dEIvFSEpOQWJSEhKTkpGYlIQJmZkonj0XYrGY79KJBygAEEJIiHI4HDhYWY6SnzehZNNPqDp0cNTHkEqlOGfhuVi8dDkWLV0OeVqaDyolvkABgBBCQky3Ro3XXnoR6z9fC7Wqy6tjGY1GbP5pIzb/tBEAkDtlKv6w5o+49MqrqB10gKP/OoQQEiL0fX34z/P/wILiQrz16iteD/5Dqa2uwp//eAdWnjsPP2/8gfPjE+5QACCEkDHOYjHjnddfxYLiQrz4/N+h7+vz+Tnr62px643X44oLlmPvrp0+Px8ZPQoAhBAyhilaW3HZimV46vFH0K1R+/385WX7cM2lF+GZJx+H3W73+/nJ6VEAIISQMWrfnt24eNkiVB8+xHcpeOvVl/G766+GtreX71KICwUAQggZgz55/11cd8UqaNQqvktx21ayGZeuWIpjR47wXQoBBQBCCBlTWJbF43+5H4/8332wWa18l3OKxmNHcdnKpdi+tYTvUkIeBQBCCBlDXvj70/jw3Xf4LmNYOq0Wt9+8GjVVh/kuJaRRACCEkDHi+6/X45V//4vvMkbEYDDgD6uvC6ivKEINBQBCCBkDDh88gP+7+06+yxiVttYW3HbzalgtFr5LCUkUAAghJMh1dXbiDzdeB5PJxHcpo1a2dw8ee/D/+C4jJFEAIISQIHffnbdDqVDwXYbH1n70Ab5Z9yXfZYQcCgCEEBLEdm3/FTu2beG7DK+98PenA/KphbGMmgERQkgQ++czf+P8mBNkYlyQH4+izCikjhNDPk4Eo8UORY8FLRozttb2YnNVNwwWB2fnPN7chLWffITrb7qFs2OS4VEAIISQILX5p42o2F/G2fFWFcnw6CUTMCMjatjt/rQ8DSarA9+Uq/HE+mYc7TRycv5XXngeV15zHcRiMSfHI8OjrwAIISQIsSyLfz77FCfHmpYeiV2PFWLdXVPOOPj3k4QLcPXsRBx+dib+c8NZkIR7P5wo29vxwTtveX0cMjIUAAghJAiVbPoJtdVVXh9nVZEMOx4twKyJ0R7tHyZgcOeSVGx9KB+p40Re1/PGKy9R0yA/oQBACCFB6Kcfvvf6GL9dmIIv/zgFUWKh18cqzorG9r9MQ7qXIUCt6sL+0r1e10POjAIAIYQEGZZlseWXn706xvzsWPz3xklgGG5qspqsGMfa8fENmYgQeTe0bN70EzdFkWHRTYB+YjabsfH77/DFJx/h2LEjEIslEIvFyMyaiIKimSgoKkJBYRGioj27DEcICR0HKvZD1dXp8f6J0eH4/M48hAu5Gf2tJisM3UaABabJpXjxsvG4dW2zx8fbvOlHPPTEXzmpjZweBQA/2L+vFH9YfR26NepT3quvrcGmHzcAABiGwcRJk1BYVIyCopkonFGEvKnTEBYe7u+SCSEBzNtPyA9fPAFJMdz8XRk4+Pe7In8c3t6tQulxvUfHPHbkCJqbGpGRmcVJjWRoFAB8rOTnTbjzdzeNaIpOlmVx7MgRHDtyBOvWfgoAEInEmDJtOgpnzkTBjJkoLCpC5sSzfF02ISSAlXgRALISJbhtkZyTOoYa/Ps9sUKOC9886vGxSzb9hFtuvd2L6siZUADwoa7OTtxxy42wWMweH8NiMaOyvAyV5See9Y0dNw75hUUonDkT+QUzkDt1KtLSx4Ph6ss8QkhAO1pf7/G+tyxIgSjM+78Vww3+ADAnIxI5SRLUdXrWn+DoEc9/RzIyFAB86IN33vRq8D+d3p4ebN9agu1bS9zrIqOikJ2Ti5wpU5GTm4ecvCnInTIFcfEyzs9PCOFPb0+PV39XLpkR73UNZxr8+y3PifE4AHR2KD3aj4wcBQAfsVjM+Oi9//ntfPq+PlTsLztlVrCExCTk5E1BTp4rFORNwaScXERERPitNkIId7o6Pb/5Lz1OjGnpkV6df6SDPwAsnhyNl7d7Vq83vycZGQoAPqLuUqGnu5vvMqDq6oSqqxM7f93qXscwDCZkZCInbwqy8/KcoSA7BxMysyCVSvkrlhByRl2dHR7vOzFJ4tW5RzP4A0BmvOdzAnjze5KRoQDgI2Zz4PblZlkWzU2NaG5qdD+BADiDQVJyMiZkZiEzayIysiYiIzPT9ZqFmNhYHqsmhADefTKWezFJz2gHfwBIjvb8SQO6AuB7FAB8xGq18V3CqLEsiw6lEh1KJfbt2X3K+3Fx8c4wkHUiFGRkTURmVhZkCYn+L5iQEKTV9nq8b1yEZ3/yPRn8AUAcxkASLoDJOvqugVaLBSaTCRKJd1ctyOlRAPCRiZMmITklBR3KsXMjS3e3Bt3dmkFPJPSLjIpyBoLMLKRPyIA8NRUpqanOV3kaEpOSIBR6P90oIaEuPt7zm/g6ddZR7+Pp4A8AeovDo8EfAKRSKQ3+PkYBwEeEQiEuvfJqvPHKf/guxS/0fX2oPnwI1YcPDfm+MCwMScnJkMtTkZKa5goGroCQmobU1DQkJSdDGEb/kyRkOIlJyR7vq+ixjGp7bwZ/AFBqRx84+nnze5KRob+2PnTdTTfjkw/ehU6r5bsU3tltNrS3taG9rQ3AviG3EQgESExKcgYE+YkrCEnJKYiXyRAvS4BMloD4hATqF05CVlKy5wNjfbsBdgcLoeDM8wB4O/gD8PgRQMC735OMDAUAH5qQkYl3PvoMN151+YhmAgx1DofDfQ/CAewfdtvIqChnGJAlID5BhoSEROeyTAZZgnO9LOFEYKBLiWSkHA4HdFottNpe52tvL4xGIxKTkpCWns773BrefDLW6G3YdUSLBTnD39DLxeAPAD/X6zzel64A+B4FAB87e85cvPH+R3jk/vvQ2nKc73LGDH1fH/R9fTje3DSi7SMiIpyhIDERMpkMMbGxiI6OQXRM/z/nz1HR0YjpX+d6PzIqCgIBNc4MFhaLGdreXmh7e08ZyE9e1rqW+7fT9vbCoNeDZU8/8qWkpuL+hx7F5Vddw8vsmxGRkYiIiIDBYPBo/28r1MMGAK4Gf5YFNtV5fvUzMSnJuwLIGVEA8IOFi5Zga2k5fvzuG3zwv7dRWb4fVsvovosj3jEYDDAYjnsUwhiGQWRU1IlQEB19SnCIjolBVFQUJBIJxK5/EokUYrEYEtfNTGKxBBKp5MSyREKNnkbg2JEjOHzwAHp7e04ZrE8Z4Ht7fTL75kBKhQL337UG77/9Jt75eC0vA9W0gkKU7t7l0b7vbu/AwxdPQFzkqX/+uRr8AWD9oR6v7gGYVlDofRFkWBQA/EQoFOKiSy/HRZdeDovFjOrDh1C5fz8OVOxHxf79aG5s4LtEchosy6JPp0OfTod2tHF6bKFQCLFYDLFECon0RDCQSKQQS8TusCAUCiEQCiEQMM5lgdC9TigUQsAw7uX+9wUCAYRCgXP9gO0HHqP/E2xkVBSmTs9Hbt6UgAgl3Ro1nnnycWwr+SVgnwc/dKASa357Iz5Z/y3CRZ4/X++Jpeev8DgA9BhseO6HFjz7m8Gd9rgc/K12Fs/+3O7x/gKBAIuXLfe+EDIsZrhLXaM+GMOkAPDov3pCYhL2VdVxVkuw6e7W4EB5OSrLy3CgfD8OlJeju1vDd1kkxIhEYixbeQH++uw/eJvboXT3Lvzp9t9D2e75AOJPN/3+Vjz5zD/8es6Go0ew5JxZHu8vFQmw5/FCTE1zTgvM5eAPAP/a0oFnfvH8EegZM4ux/sefz7hdl6YHeqPR4/Pw4aIFs6Hv8/jeiDiWZXu4qoUCQABrbmxAhesqQeX+/ag+fMjnlzcJAYC4eBmee/FlLF2x0q/nPXSgEpetWAq73e7X83ojIiIClfWNfr8KsGhOMZoajnm8f1aiBLsfL0RsGDgd/DdU9+KmT5rgzdBy/8OP4c577jvjdhQAvEMBIIhYLRZUHz6EA5UVqKupRl11FerraukxQ+ITYrEY32/+FZOys/1yPofDgctWLsPBinK/nI9LH637GvMWnOvXcz79xKN4+7X/enWMuWdF4+PrMxAr5maSrp2Nfbjmg0YYLJ5N/tNv47adyMmbcsbtKAB4h+4BCCLhIhEKimaioGjmoPXtbW2oralGfW01aqurUV9bg6P19XS1gHjFbDbj/rvXYN2Gn/wyi+PXX34elIM/4Pzawt8B4MJVl3odAHYf02HZq0fw6eosnJXg3dwaH+xT44Hv2mC1e/ehclJ29ogGf+I9CgBjgDwtDfK0NCxausy9zm63o6mhwRkKaqpRX1OD2ppqHG9qhMPhXTonoeNA+X5sK9nslxuyyveV+vwcvhIVFe33cxYWFWPR0mXY8suZvysfzjGVGcteO4K/LEnBLbNlEAlH92hjS48FT29S4osD3HQ/vfeBhzg5DjkzCgBjlFAoxFmTJ+OsyZOx8uJV7vUmkwlH6+ucXyHU1KCp4RiamxpxvKmRJisiQ6osL/NLADh29IjPz+EraenpvJz3zw89iq2bfxl23oKR6DXZ8fCGNry2swt3LUzExVPGISl6+OHhoMKIzyo0eK9UDbONm6+Sp0ybPujvFfEtCgAhRiKRYFp+AablFwxa398J8HhTI5oaG9Dc2IDmpibXayPdZxDCKvcPPysjV9oVCr+cxxcm5+Txct6p0/Ox8uJV+OHbrzk5XkuPBQ9824a/fNeGmekRKEyLgDwmHMnRYTBaWSh1VrT1WvHrMR0UvZ4/43869z/8GC+TK4UqCgAEgHOymxS5HClyOWbNPeeU97s1ajQ1NqK5sRHNjQ1oamxwhYVGaNQqHiom/uKve0mm5RcE5XwYF666DJNzcng7/31/eRg/bfiO0ycnWBYoazGgrMWz2QY9MfPsWYO+xiS+RwGAjEhcvAxx8TLMmFl8ynt9Oh2amxrR1tribPijUEDZ3gZFWxuUCgWUynaa+TCI5RfO8Mt5Zp8zDxu++cov5+JKuEiEBx59nNcazpo8Gdeuvgkfvfc/XuvwhlAoxENP/o3vMkIOBQDitajoaEydno+p0/OHfJ9lWahVXWhXKNCucIYC53KrMywoFFC2t9NTCwFqeoF/AsDS5Svwj789CX1fn1/O563YcePw4mtvYUJGJt+l4LGnnkHVoYOo2F/GdykeeeSvT2Hm2Z5PbEQ8Q/MAkIDAsiw0apU7JLQrFOhUtkOlUkGt6oJGpYJapYJarUKfzvMOY2R0MrIm4setOyCVSv1yvnVrP8X9d63xy7m8UVhUjBdffxMZmVln3thPOjs6sGr5oqCZQbHfVdfdgH+8+LJH+9I8AN6hKwAkIDAMA1lCImQJiafcoHgyi8UMjUoNlaoLGrUrGLj+adQq53qVGmpVF9RqFQx6vZ9+i7GFYRg89+LLfhv8AeCKq69FRdk+fPz+u34758kYhkFEZCRiYmMRExPrfI2NxbhxcSieNRvnLl4KeVoab/WdTlJyMt547yNcdckFMJuD42paUfHZeOq5f/FdRsiiKwBkzDOZTK4rCF3QaDTQubrH6XRa6HQ66LRa9PW/9ulcHeZOrAvFryZEIjEefPxJ3HLr7byc/5eNP+LRB+5Dh3L088kLBAJERkUNGrwHLkfHxJz+PVdnR39MfOQrX3/5Oe5dcxvfZZxRSmoqvt20xatuinQFwDt0BYCMeRKJBKnp6Uj18Fltq8VyaljQad3LWq0W+r4+mExGmEwmmIxGmE2mQT+bTCaYzWbnOqPzPbPJFJBz3hcUzcRz/3kF2Tm5vNWwdMVKnLNgISr270P14UOoq6mBQCAYNGBHx8ScMoDHxMQiKjo6pB8lu/TKq2AyGvH4Qw8E7M23EydNxtsffsJLK2VyAl0BIIRHNqvVFQ5MrrAwIDiYjDAbTbDarHDY7bDb7bDZ7HA4nMv96+wOx4llu8316lo3aFvHgPed6wBAGBaG6OhoTJmej/zCGUhLH8/z/1UIF8pK9+KOW26Eqiuw2ikvXrYcL772FqJjYrw+Fl0B8A5dASCER2Hh4YgKD0dUtP+nkiVjW/Gs2fju5y249eYbcKiygu9yAAB33nMf7nvwEQgEAr5LIQDovwIhhIxRKamp+OK7H3HlNdfxWkdkVBT++/a7uP/hx2jwDyD0X4IQQsYwsViM51/6L9b9sAmzz5nn13OLRGL89rY7sL2sEhdccqlfz03OjAIAIYSEgKLis/HZ19/j/bVfnvFRW28JhUL85trrsWVPGR772zOIi5f59HzEM3QPACGEhJCFi5ZgwXmLsfH7b/Hl2k+x69dtnHUCTZHLsWjZ+fjtrXdgUnY2J8ckvkMBgBBCQgzDMFh58SqsvHgVTCYTdu/YjpJNG1HyyyYoWltHfByBQIAZJxQntgAAEJFJREFUM4uxaNn5WLxsOfKmTvNh1YRrXD8GGAvAo0cUwkUiHDjS5NdZxwghhAzW3taGjo52dHV2oqujA52dHVB1dkIskSApORmJSclITEpCYlIy0tLHc/I4n6e6NN3QG7m5euEPBn0fLl44Fw6Hx/N/SFiW5WxmMk6vALAs28swjAWAaLT7Wi0WlO3djQXnLeayJEIIIaMgT0sLyKmOh2J3OPguYVQqy/Z5M/jruBz8Ad/cBOhxc/jNm37isg5CCCFjmN0eXAFg969bvdm9i6My3HwRANo83fGj9/6HA+X7uayFEELIGORwsLDZbXyXMWKHK8ux4et13hzC47H1dHwRAH71dEe7zYZ71twGg8HAZT2EEELGGKPZBA5vYfMpo8GAZx97CKx3X1ns4Kqefr4IAL94s3NTwzE88eD/gcubEwkhhIwtekNw3PzHsiz+8/enoGht8fZQW7ioZyBOnwIAAIZhIgFo4MGNgANdec11+Pu/XwrqtpyEEEK4ZzSb0aHS8F3GGdntdjz35KPY9P033h7KAmcjIE4vj3N+BYBlWT2Az709zpeffYLbb1kNszn0erETQggZGsuy0PRo+S7jjMwmEx69949cDP4AsJbrwR/wwRUAAGAY5mwApVwca9bcc/D2h5/y+qwpIYSQwNCj60OP1uN2un6h02rx0N13oOoAZ10Yi1iW5bylo096AbAsuw/Abi6OVbp7Fy5buRSV5WVcHI4QQkiQstps6NX18V3GsA5VlGPN6qu5HPy3+mLwB3x0BQAAGIY5D0AJAIaL4wkEAvzu9jW478FHIJFIuDgkIYSQIMGyLDrUGpjMFr5LGZLJaMRbL/8bX639xNu7/QdiAcxnWXYXVwccyGcBAAAYhnkLwO+5PGbmxLPw3Isv4+w5c7k8LCGEkADlYFl0BvDgX1G6F8//v8fQ3jbyPgoj9BrLsmu4Pmg/XweAcQCqAcg5Pi5W//b3+MtjTyIiIoLLQxNCCAkgDocDHWoNzBYr36WcwqDX4/UXn8f3677wxaPrCgB5LMv67I5HnwYAAGAYZjGAHwCIuT52UnIy7rj7Xlx7480Qizk/PCGEEB7ZHQ50qDSwWANr8DebTfj288/wyXtvo0fjk8cRzQBWsizL+bP/A/k8AAAAwzCXAvgSgE8e6k9OScGaP92Ha1bfCJGIggAhhAQ7u90OpUoDqy1wpvu1WMz47svP8cn/3oJG7XHbmzOxAbiSZVlOnh8cjl8CAAAwDLMawPvg6KbAoaTI5Vhzz59xzfWrES7yah4iQgghPDGZzVB198Jm97hzHqesFgu+X/8FPv7fW1B3dfryVA4AN7Is+7EvT9LPbwEAABiG+SOAl319HnlaGu6858+46trrKQgQQkiQYFkWml4tdPrA6Adjs1qx4et1+PidN9DV0eGPU97Bsuzr/jgR4OcAAAAMwzwC4Cl/nCtFLsdV16/G1detRmp6uj9OSQghxAMmiwWq7h7YbPx/6u9UtmPDV+uw4asvff2Jf6C/sCz7nL9OBvAQAACAYZjnAdzvr/MJBAKct2Qprl19MxYtW079BQghJECwLIturQ7aPj2vdTgcduz+dRu+W/c5Snft4PJZ/pF4mmXZR/15QoCnAAAADMM8AeAx+OjGwNOhqwKEEBIYTBYL1N29vN7o19GuwIavvsQPX6/356f9fjYAj7Ms+6y/TwzwGAAAgGGYeQA+ApDp73PTVQFCCOGHxWpFt1YHo4mfZm92ux27tm3B9+s+x749u/z9ab/fMQDXsyy7l4+TAzwHAABgGCYWwGsAruWrhhS5HKuuuAorLroIBTNmgmF89qACIYSELKvNhm6tDgajye/nZlkW1Qcr8evmX7D5x++hVnX5vYYB3gfwR5ZleW1swHsA6Od6TPC/AKL5rCNFLsfylRdi+YUXYc7ceRCGhfFZDiGEBD2bzY4enQ59BqOfz2tDZVkptm/+GTu3lvA96ANAD4DbWZZdy3chQAAFAABgGGYigI8BzOG7FgAYFxeHJctXYMWFF2PBosU02yAhhIyCzW5Hr64PfXoD/DXSmM0mlO7cgR0lv2DXr1vQpwuY1sHbAdzAsuxxvgvpF1ABAAAYhgkD8DiAh+HnGwSHExERgXOXLMOKCy/G4mXLERXN64UKQggJWCazBTq9AQaTyRdz5J+iT6fD7l+3YvuWX1C6czvMJv9/xTAMG4C/AniGZVlebjY4nYALAP0YhpkG4GkAl/Bdy8nCRSLMW7AQy1deiHnnnocJGZl8l0QIIbxyOBzoMxih0xv8cld/W8tx7N+7G9tLfkHlvr2wBdCUwQOsA/AYy7I1fBcylIANAP0YhpkD4FkA5/FcymmlpY/H3PkLcM6ChZg7bwFSUlP5LokQQvzCbLFCpzdAbzT69NN+p7IdFfv2orx0LyrL9qJTqfTZuTjwC4CHWJYt47uQ4QR8AOjHMMxyAM8AmMl3LWeSOfEsZyCYvwBz5y+ALCGR75IIIYQzLMu6P+37qlOfRq1Cxb69qCjdi4p9e6FobfHJeTi2F8DDLMuW8F3ISARNAAAAxvl83hUA/gYgl+dyRiw7JxdzFyzE3PkLMOec+YgdN47vkgghZFRY1tmkR280wmA0wcHx2KHt7UFlWSkq9pWionQPmhsbOD2+j1UBeJRl2a/5LmQ0gioA9GMYRgjgJgBPAJjAczmjIhAIMGXadMydvwBz5y/EzLNnISY2lu+yCCHkFCxcg77BBIPJBAeHE+botFocrix3Xdbfg4Yj9X65YZBjTXCOQx8F2g1+IxGUAaAfwzBiAL8HsAbAFJ7L8QjDMMjImoiCGTOQX1iE/BlFmDo9H1KplO/SCCEhymS2uD/p2zkY9E1GI+prqlFXdQh11VWorTqEtpaAeRrOE4fgnLfmXZZlLXwX46mgDgADMQwzH8BtAK4EIOG5HK8IhUJMzslFwYwi5BfOQP6MIuTmTUFYeDjfpRFCxiiuBn2b1YpjR+pQW3UYdVWHUFt1GM0NDXA4+O/y5yUjgM8BvMGy7G6+i+HCmAkA/RiGiYfz64FbEUT3CZyJSCTGlGnTkT9jhjMUFBbhrMmTIRAI+C6NEBKE7A4HjCYzjGYzTCazR4M+63CgubEBta6Bvq7qEI7W18HmoxsDeVIN4A0AH7As28N3MVwacwFgIIZhzoXzqsAVAEQ8l8O5yKgoTMsvQE7eFOTk5iE7Nw+Tc3LpJkNCyClYloXZYoXRbIbRZB713fu63l40HjuKxmNH0HTsKBqO1KG+phomo3+n9/UTE4Av4fy0v4PvYnxlTAeAfgzDJAC4Gc6rApP5rcb3klNSkJ07Bdm5ucjOzUN2bi4mZ+ciMiqK79IIIX5ktdlgMltgNJlgMltGdOe+Qd+HpoZjaDzqHOj7XwNgHn1/qAXwJoD3WZbV8F2Mr4VEAOjneoxwEYDr4ZxhMIHfivyHYRikpqUjJy8Pk3PyXK+5mJSdA4kkqG+ZIIS42B0OmM0W56d8sxk22+m/dzebTGhuHDzQNx47ik5lux8rDgidAL6F807+bXwX408hFQAGcj1KuADAZa5/4/mtiB8CgQDjMzIxOScHWRPPwoTMLGRmZWFCZhbS0sdDKAyYdgyEkJP0f8I3WywwW6ynTMFrt9vR2a5AW8tx57/WFrQdb0bTsaNoV7SB5fCxviDTDOArAOsB7AzGR/i4ELIB4GQMwxTDGQQuxxi6edAbYeHhSEsfj8ysLGRkZiEja6L7dXxGBnVHJMSPWJaFxWqFyWKF2TXo2x0OWCxmtLe2ugd5RWuL87XlOJSKNtjtQX/3PVeq4Bz0v2JZtpzvYgIBBYAhMAyTixNhoJjncgISwzBISU0dFAz6rxxMyMhEdEwM3yUSEtQcDgfMFitMFgvUajWaGhtdg3wzFC0t7mVVZ2cwTqDjDyyAUpwY9Ot5rifgUAA4A4ZhxuPE1wQLEEAtigNZZFQUUuRypKSkIiU1FSlyOZLlqZDLU5Esl0OemgpZQiKct2UQEpocDgfUKhUUijbn5fmWVrQr2qBUtqOjvR2qzk6oujpg0Ov5LjVY2ABsg3PQ/5pl2Tae6wloFABGgWEYGYDFcN5IuAj0VYFXwsLDkZSc7AoFzpCQIk9FijwV8lRnUEhOSYFIRF81kOBjsZihbHcO5O0KBTqUCijb26Foa4Oy3bms6uwI1Da2waQawBbXvxKWZbt5ridoUADwAsMwcjiDwP9v79x+2yiiOPydXZRdq7HrZB2uhRIaIQF9Q5F45h8vj0iFNx4oCioUWipiO4lt5EuzOzzM2l1vnKQVCevL75OOZubMaHUsP5zf7tymouCzaiNaP8yMZnOHZK/FbtIiSVrsJgnJ3t6svpu0aO3tsZsk7OwmWrgoboX0/Jxut0u306bT9tbttOl02nTbbbqdDu328az/9ER56JY4Ik/2wHfOuaW+F3iZkQC4QczsPq+/DnwL3Ks2os3DzLjbbJK0CoKh1SJpTcVDi91WQrO5Q73RoF6vU683dMzyhvFqMmEw6NPr9Rj0+5yentA5LiT0TofO8fGs3u20OTs91Vx7NTzDJ/tHwCPn3ErcC7wKSADcImZ2wPyUwXvVRiQuI45jtusN6o0G2/U6jbovp20vFnLB0GgsHHtne1trGm4Z5xz/DAb0ez36gz79PIH3e2e+7Pfo971/1lfwTceOx+Oqf4q4nL+Y/6S/UvcCrxISAP8jZvYlXgh8AxwCnwPKGGuCmbG1tUVcqxHHMXFcI4oiorwdRTFxzft9O5qNnfZF8cWxURQRhiFBGBKGAWEwrYcEQUAQeP/UFwYhFgS+Hk77w9kzgsBmzwDI0pQ0S8ky5+u5ZVlKmmakaYrLMtIs96fen2UpWZa99uXjp88Yj8eMRkNGwxHj8YjRaMS41B4Nh/m40cWxw6EvC2Mnk4newteLDHgCPAa+x7/h/1xtSJuDBECFmFkDv83wsGCfVBqUEELcHr/hk/3UfnTO9SuNaIORAFgyzOxd5gXBIbBXaVBCCPH2/M18sn/snNuICwVWBQmAFcDMPmVeEHwN1CsMSQghivSAH5hP9s+qDUlchwTACpJfarQPPAS+ysuH+HMJ1u7aYyHE0jDG35j3U8l+d0omK4cEwBphZu/grzsuC4MDdIKhEOLNOcfvty8n+iPnnC4XWBMkADYAM4uAL7goDO6jXQhCbDIOvzCvnOifOOe0V3LNkQDYYMxsG78V8UFuB4X6R0BQXXRCiBsiA/4Efs3tqFD/xTmniwY2FAkAsZD8q8E+F4XBg9yvtQZCLA9j4CmLk/xT59ykwtjEkiIBIN4aMwvwxxyXxcE+8DF+26KmFoS4ORx+W90fLE70z51zWXXhiVVEAkDcOGa2hZ9CuFewcvt9tDBRCIAUeIn/TH+ZPXfOvaosQrGWSACISjCzEPiAeVFQtg8B3dIjVpkJ8IKrk/tLrawXVSABIJaW/LyDHaCFn1Yo2mW+WiXBik1hCBwD7bwsW9l/qv3xYlmRABBrhZnd4Xqh0ATuAo1CqemIzSLFn153VihPuJjA59paMS/WCQkAIZgJh7vMC4OySLiuv4YWP942Dv8WPk3aZ5fUr+xXIhdCAkCIGyOfsojwQmCRxVf0XTU2wp/JEJbsJnzg34azvCzaf/WN8cl6aqNS+ypbONY5N3rDv0MIcQ3/AqxOsJeMO2R2AAAAAElFTkSuQmCC;" vertex="1" parent="1">
          <mxGeometry x="473.5" y="-354" width="159" height="159" as="geometry" />
        </mxCell>
        <mxCell id="Vk-62K6m2aPXj279RXAr-4" value="&lt;font size=&quot;1&quot;&gt;&lt;b style=&quot;&quot;&gt;&lt;font style=&quot;font-size: 40px;&quot; color=&quot;#123f67&quot;&gt;Slave&lt;/font&gt;&lt;br&gt;&lt;/b&gt;&lt;/font&gt;" style="text;html=1;strokeColor=none;fillColor=none;align=center;verticalAlign=middle;whiteSpace=wrap;rounded=0;" vertex="1" parent="1">
          <mxGeometry x="460.75" y="-176" width="184.5" height="32" as="geometry" />
        </mxCell>
        <mxCell id="Vk-62K6m2aPXj279RXAr-5" value="" style="shape=flexArrow;endArrow=classic;html=1;rounded=0;fontSize=16;fontColor=#000000;fillColor=#FDD276;strokeColor=none;endWidth=35.714285714285715;endSize=7.885714285714285;width=20.714285714285715;" edge="1" parent="1">
          <mxGeometry width="50" height="50" relative="1" as="geometry">
            <mxPoint x="346.75" y="-265.5" as="sourcePoint" />
            <mxPoint x="433.99" y="-266" as="targetPoint" />
          </mxGeometry>
        </mxCell>
        <mxCell id="Vk-62K6m2aPXj279RXAr-6" value="" style="shape=image;verticalLabelPosition=bottom;labelBackgroundColor=default;verticalAlign=top;aspect=fixed;imageAspect=0;image=data:image/png,iVBORw0KGgoAAAANSUhEUgAAAgAAAAIACAYAAAD0eNT6AAAABHNCSVQICAgIfAhkiAAAAAlwSFlzAAAN1wAADdcBQiibeAAAABl0RVh0U29mdHdhcmUAd3d3Lmlua3NjYXBlLm9yZ5vuPBoAACAASURBVHic7N15fFx1vf/x15mZZCZ72+xpmqRpmybd05buLbRsBQooiLKIIu6KIuqPK9crLlevKFdFryLuiOKCUNkpUAqllO77kqXNvu/LJLPPnN8fM0mTNm3TycycmeTzfDzmMSdn5pzzCQ+a7/t8zznfr6KqKkKIwFEURQHigAQg0fdKGPIeDUQBhvO8X+izS32/2HcUwAW4h7y7R1h3vvdL+a4LsAH9vpdlyHL/RdZbVPljJURAKfJvSggvRVFiOX+jnXiRz4YuxwO6EJc/EVi4tNDQC7QDbb73dqBdVdX+kFcuRBiSACDGFUVRDEAqkOF7pfve04AkLtx46zUoWYSelSGBgLMCwkjrVFV1aVOqEMEjAUCEPUVRdEAKZxrzoQ372etS8HZrCxFI3Vw4NJz9c7dcshDhTgKA0IyiKFMYuRE/e10qcnYuIosL6ODCgaENqAXqVFW1aFSnmMAkAIigUBQlDZgx5DWNcxv4KM0KFCK8tOMNAwOvmrN+bpEeBRFoEgCEXxRF0QM5DG/kh77itatOiHHHDtRzbjCoBaqBalVVnZpVJyKSBABxXr674vMZuYHPRc7ghQgXLqAKKD/rVQY0Su+BGIkEgAlOUZQUzn8Wn6lhaUKIwOgHTnFuOChXVbVLy8KEtiQATBCKoiQANwPzGN7IJ2pZlxBCU+14ewnODgenVVW1aVmYCD4JAOOcoigLgG8AHwBiNC5HCBEZPMBp4PCQ1yFVVZs1rUoElASAcUxRlLXAy8hZvhAiMFo4KxQAp1RV9WhalfCLBIBxSlGU1cCbyFm/ECK4LMBRhoeCY6qqWjWtSlyUBIBxSlGUHcAaresQQkxIbrz3EgwEgsPAYVVV2zStSgwjAWAcUhRlFbBT6zqEEOIsjXjDwC7gHWCvqqoOTSuawAxaFyCC4jatC5jodHo9MbFxmGLjiImLwxQTS0xcPKaYWKJjYjDoDegNBnR6PXqDAb3egN63rNPrMRgGPvd9Zhj+uV5vwDBs+zP70Z31/bP3rTec+RwUPG43Ho8Hj9uFx+PB7Xbj8bi9690e3+du3/oz3xu2fsj3BvbnHvo9txu324XDZsNus2G3WX3L1sHXwGcOmxW73YbDeuYzp0PaiHEiy/e63vezVVGUXcB2vIFgj6qqdo1qm3AkAIxPcVoXEIkURYcpNtbXYPsa7tg477rYeN/70PXnfmbybRttNGr964ya3mDwTbQQrXEl56eqniEBYaTgYPV+Zrdht1qxWfvp6+nG3N2Nuacbc08XfT3d9Pf24PHI/WphJAbY4HsB2BRF2Y03EGwHdsnjiMEjlwACRFEUBViEN90mAEbgLVVV6zWo5Sng7lAfN1wYDFEkTplC0uRkEqckkzQleXA5Ni5+2Fm5KS6emJhYTHFxGE1yv+R4p6oe+s1mXzjowtzT7V32BYTh67wvu1Xm6dGQHdiLt3dgO/C+3FwYOBIAxsA3it61wEbfe+pZX1GB94BHVVV9KVh1/OntAzFAEd5Bfub+6dHv3brjtRdnBOt4WtDp9SROmkLSlGQSJ08haUqK7z2ZxMm+Rt73WVyCPPUoAsfpcJwJB73dw4KCubuLvrPW9fX24HG7tS57vHIA+xgeCPo1rSiCSQC4BL4JcJbhbfCvA5YAulFs6gG+pKrq42Ot4U9vH8gALvO95uNt9POH1tFQXcm37v3wWA8VdIqiI2HSpDNn6pOnkDglxXfGPsW3ztuwxyUm4e1kESK8qaqKpc882IvQ19NNb3cnvd1d9HR1Ye7upKu9jc7WZrrbWnC7XFqXHMmcwH7OBIKdqqr2aVpRBJEAcBGKomTgbfA3AlcDU8awu/tUVf3VaL/8p7cPJAFLOdPgLwOyR7Pt9z53N9XlJX4VGShxCYmkZWWTNjWb1KxsUjOzmZyS6jtbTyE+aRI63WjykxDjk8PlpKOtldbGBtqaG2lvbqKrtYmu1ha627wvl1Mm+bsELuBd4HngBVVVazWuJ6xJADiLoigGYBVnzvIXAoE69ewE8lRVNZ/9wZ/ePmACijnT2F8GFPh77NpTZfzoq5/F2h+8MKwoOqakppHqa+TTsrwNfVpWNqmZU4mNTwjasYUYr1xuN063G5fbjd3ppKujna7WZrpam+luax1c7mprobu1BZdTnpC4gIN4w8C/VVU9rnUx4UYCAIM38K0B7sT7CF1yEA/30B+37f8R3q77Zb7XQHd+QJ/KKD92iJ8+eB8Ou/9P1UQbjaRkTD3TuA9p6FMyMjEYZEZgIYJJVVWcbjcOlwuny4XD7Wbo3+2+7q7BQNDlu6zQ1dpCt2+dcwz//seZCrxh4Hm89w5M+MdBJnQAUBRlEd5G/3ZgWiiOmZ6d0/3DpzZ7GNulhFFrqqliyzN/Ydebr+FyjdyVGJ80idRMbyM/8Er1NfRJU1Lk2rsQYcbpdnvDgMuF0+3GfYFHG/t6umlvqKOltpqW2ipa6qppqa3GYu4NYcVhpxV4EXga2K5O0IZwwgUARVFmAHfgbfiLQn389OwcfvjU5lAflp7ODqrKTmC3egdaiYmLH2zoY2Jl2AAhIpnb4xkMAw6XC9conkLo6+7yhoK6gWBQQ2ttNTbLhLupvhp4CnhKVdUKjWsJqQkRAHw38n0Yb6O/XMtakqYk87NnX9eyBCHEOOfxeLC7XNhdLhxOJ55L+Dvf0942LBS01FTRWl8zUS4lvAc8CfxLVdVx30UybgOA72a+DwH34h1lSq9tRV55BUU8/MRftC5DCDGBOH03FNp99xFcKlVV6Wpt9oaC2hpaaqtorauhraF2vD6lYAX+DfwZ2Dpe7xcYdwFAUZRJwGeALzHKR+ZC6fYvfJVrPnSn1mUIISYoj6ricLmwO504XK4L3j9w0X15PHQ2NdBcW01T1Wlqy05Sd6oUh21cDdbXAPwaeEJV1Q6tiwmkcRMAFEWZCdwPfIIwHQtfbzDwv/94haQpwXzIQAghRs/ldmN3ubA5nX71DpzN4/HQXFNJbdlJaktPUFN2gq6W5gBUqjkL3h6Bn6mqekrrYgIh4gOAoiiXAw8ANzK6Ufk086mHvseqq6+/+BeFEEIDbo8Hm9MZsDAwwNzd6QsEJ6kpO0FjRXkkXzpQgZeAn6iq+q7WxYxFRAYARVGigI/gbfgXa1zOqNz6qS9yw52f0LoMIYQYlcEw4HDgDPDcBm6Xi8bKU9SUnqC27AQ1pScwd3UG9Bghsh/4Kd6bBiNuTOeICgC+G/s+BzyEd9a9sDdnyTJuuvtTFCyIiJwihBDnCGYYGNDV2uztJSg7SU3pCZprKiNpUqU64IfAb1VVjZiiIyYAKIpyHfATNHh2/1IoisK0mQXMv2wVS9auJ2/2HK1LEkKIgHF7PFgdDqwOx5huILwYh81G/ekyakqOU3ZwD3XlJURAe3UC+JqqqhHxrHfYBwBFUYrwdrFs1LqW84lPmsS8pSuYt2wV85auIHFySAb5E0IITdmdTiwOB/YQXM/v7+2hbP9uSvbv4tThA+H+pMGreINAqdaFXEjYBgBFUZKB7+Dt8g/oGPljpdPrmVE0j3nLVjH/spXkFhSiKGF9/6EQQgSN2+PB4nBgtdsvadAhf7mcTiqPH6Z03y5K9u+ip70t6Mf0gwt4HPiuqqpheYND2AUA3w1+XwQeBiZrXM6gpOQUFq5Yw/zLVjFnyTJi4uK1LkkIIcKOzenEYrfjCOBTBBfTVFVByf5dlO7bRUNFebhdKugEvgs8Hm43CoZVAFAUZTXwR7zT4GoucfIUll5+FcuuuIpZ8xfJWb4QQoySy+0e7BUIZStj7uqk1HepoOLIQZyOsBnC+CDw4XCabyBsAoCiKF8BHkXj7v6ESZNZsnYDy9ZfzeyFi6XRF0KIMXB7PPTZbFgdjpAf2+mwU3H0ECX73qd0/+5weNSwF/i0qqrPaF0IhEEAUBQlHvgD3sl6NBGfmMSStRu47IqrKSxeik4njb4QQgSSyxcEbBoEAfDOZ9BQUc7h7Vs5tH0r1j6zJnX4PAE8oKqqTcsiNA0AiqIUApvR4NE+gyGKJes2sPraTcxZvAydPizmChJCiHHN5XZjttlC8uTAeWtwOjm5dycH3trC6SMHtLpn4AjeSwLlWhwcNAwAiqLchvd6f0jvpkvJyOLyTR9k7fU3kzhJHtcTQggtON1uzFZrSG8WHEl3eysH3trCwbffoKs15HMW9AGfU1X16VAfGDQIAL7R/H6MdxjfEB1Tx/xlK9lw823MX75KrusLIUSYsDoc9Fqtmt+5r6oqFccOsX/ra5zc816o5yr4T1VVfxjKA4I2AeD3wCdDcayESZNZe91NXLHpVlIyI2LkYCGEmHDcHg+9Fgt2jXsDBlj7zOx94xV2vvQsfT3doTrsfaqq/ipUB4MQBwBFUf4L+O9gHydt6jRu/OgnWb7hGgxR0cE+nBBCiACwOByYw6A3YIDTYWf/1tfY8fwzdLe3BvtwKnCPqqpPBftAA0IWABRFuRsI6i+WnJbBjXd/ijUbb5Sb+oQQIgK5PR56LBbN7w0Yyu12cWT7W2z/9z9oa6gL6qGA21RV/XcwDzIgJAFAUZQNwBYgKhj7T0pOYdNd93L5pg9iMATlEEIIIUKoz2ajz6bpU3LnUFWVE7vf453n/kZj5algHcYB3Kiq6hvBOsCAoAcARVHmAjuBpEDvOz5pEtff8XE23Pxhoo3GQO9eCCGEhix2O73W8Jv0R1VVDr3zJlue+m2w7hGwAGtVVT0YjJ0PCGoA8E3ocxDICeR+dXo9133kY9xw5ycwxcYGctdCCCHCiNXhoMdi0bqMEdn6+3j96T+w9/WXg3Hfwm5VVVcGeqdDBTsAPAL8RyD3OXX6DD75H98hryDkYwcJIYTQgM3ppLu/X+syzquhopwXfvNz6k+XBXrXd6qq+vdA73RA0AKAoigpQBUBGuhHp9dzwx33cOPHPiXX+YUQYoKx+0JAeDwfcC5VVdn92gu8+uQTuAN3A2MtUKiqalCugwQzAATs7D8zJ4/PfPP75M4qDMTuhBBCRKBwvSdgqPpTpfzt0e8F8rHBb6mq+v1A7WyooASAQJ79Fy5awn3f+19i4xPGXpgQQoiI1mE243S7tS7jgvp7e/jnz/6H00cOBGJ3fUCBqqpNgdjZUMEaE/frBKDxX3HVdXz1x7+Uxl8IIQQAiRFw43dcYhKfePgRVm+6NRC7iwe+HYgdnS3gPQCKoiQB9YwxAGy6614+eO/nURQlMIUJIYQYF3qtVix2u9ZljMrzT/yMvW+8MtbddAJpqqoGtOsjGD0A6xhj4796443c8skvSOMvhBDiHAkmEzpdZEzqdvNnv8L81ZePdTdTgLUBKGeYYAUAv02dPoO77w/ok4NCCCHGEUVRiI2OjHleFEXhw/c/REZu/lh3tSkQ9QwVjACwxt8NjaYYvvDtHxFtNAWyHiGEEOOMMSpyHgfXGwzcet/Xx9prMS9Q9QwIRgDI83fDZRuuITPH782FEEJMEFF6PboIukw8dUYBi664eiy7yA1ULQOCEQCS/d1w0coxXT0QQggxgegj5D6AAYVLVoxl8/AOAL4nAPzql9EbDMxZsiyQ5QghhBjHIuVGwAEzFxSPpeYYRVEmBbKeQP/Xi/F3Q9XjweV0BrIWIYQQImw4nQ48Ho/WZQwKm/jk8Xg4sX+31mUIIYSIEO4wakxHo+LoIa1LGCZsAgDAgXe3aV2CEEKICBFOZ9OjcWzndq1LGCasAsC+7Vs5/P67WpchhBAizDlcLjxBnM4+0I7ufIeSfe9rXcYwYRUAAP746Pfo6WjXugwhhBBhzB5B94yZuzp54Tc/17qMc4RdAOjr6eZ3jzwcyPmUhRBCjCNujweLw6F1GaPicjr4188fwdpn1rqUc4RdAAA4eWAvP3voy9gsFq1LEUIIEWbMVivBmMo+0Gz9ffzxOw9y+uhBrUsZUVgGAPCGgEce+DQ9nR1alyKEECJM2J1ObBHQ/d/b2c5vvvkVqkuOa13KeYVtAACoPVXGD770CVrqa7UuRQghhMZUVaXXatW6jItqra/liW98mZbaaq1LuSAlkN0oiqJkAE0B26FPXEIid973dVZefX2gdy2EECJCmK1W+u12rcs4L1VV2fvGy7z259/isAUlqExWVbU7UDuLiAAwYP6yVXzsq/9JclpGsA4hhBAiDPXb7ZjD+Oy/q6WZzY//hIpjQR3sZ+IGAABjTCwf+vR9bLj5NpQImglKCCGEf/psNvpsNq3LGJGqquzZ8iJb/vI7HMGvcWIHgAEz5y7gE1//Fpm500NxOCGEEBoI527/jqYGNj/+E6pOHA3VISUADNAbDKy+dhOb7rqXlIysUB1WCCFECPRarVjCsPHvbmvh7Wef5uC2N3C7QzpmjQSAs+kNBtZceyObPnovyemZoT68EEKIABq4298aZoP99LS38c5zf2P/W69pNVidBIDz0RsMrNl4E5vu+oQEASGEiEAOl4seiyWsZvrr7Wznnef+zv6tr2o9bb0EgIvRGwysve4mbrjrXnliQAghIoCqqvTZbGF1vd/c1cn2zX9n7xuv4HKGRW+EBIDR0hsMFK++nMs33cKcxcvkqQEhhAhDTt9ZvysMzvpVVaXi6EH2vfkqJ/fsDPU1/ouRAOCP1MyprLvhA6zZeBNJU5K1LkcIISY8Fe8jfv1h8IifuauTA9u2sG/rq3S1NGtdzvlIABgLnV5P8arLuXzTB5m7dDmKEtajIQshxLhkdTjos9k0vdavqirlh/ay781XKd2/G4/brVktoyQBIFBSMrJYd/0HWHPdjUxKTtW6HCGEGPdsTid9Vqum3f097W3sf+s19r/1Gj3tbZrV4QcJAIGm0+uZd9lKlq7bwKJVlxOfmKR1SUIIMa7YnE76bDZcGp1l93Z2cHLvTk7s3kHlscMRMZ3wCMZnADBERaHX6bBrfAeoTqejYMFiFq9dz5I165mcmqZpPUIIEcnsvobfqUHD39ncyIk973Fi93vUlZdo3ugbTSZcTidu//9bjM8AkJKaxj9feJkH77+PA/v2BqymsVAUhbyCIpas28DitRvIyM7RuiQhhIgINqeTfrsdZ4gHzGmuqeLE7h2c2P0ezTWVIT32hSxYvJQHv/N9PnvnbfT3mf3dzfgNAPtOlOHxePjbU0/y6A++R29PT8BqC4Ss3HyWrF3P4rXryZ1VqHU5QggRVtweD1aHA4vdjidEZ9uqqlJ/qpTju3dwcs9OOpoaQnLc0UpISuKz93+N6z9wK4qisGntcgkAZxsIAAM6O9r50X9/l3/9/WnNu21GkpyeyeI1VzB3yXIKFizGFBurdUlCCKEJu9OJxeHAHqJR8izmXqpOHOX00QOU7H2f3s6OkBz3UiiKwsabP8hnvvxVJk2eMrheAsAIzg4AA04cO8oj3/sO721/e6zlBY1OpyNv9hwKFy2lqHgpM+ctxGiK0bosIYQIGo+qDp7tB/tRPrvFQtXJo1QcO0Tl8cM0V1eG5YnhgKUrVvGZ+7/GrMKicz6TADCC8wWAAW9vfZNHf/A9Sk4c97e8kNEbDOQXzqVw0VIKi5cyc+5CoqKjtS5LCCHGzO50YnM6sTkcBKsJdths1JQep/LYYSqOH6axohxPGIwSeDEFRXP51H33c9mqNef9jgSAEVwsAID3Ws+Wl1/ksR8/QnlZqT+H0YQhKpoZc+ZRVHwZhcVLyS+ah8EQpXVZQggxKgONvt3pDMq1fZfTQW3ZSW+Df+wQ9afKwm0I3gvKnzWbT3z+Ptasv/Ki35UAMILRBIABqqry5pZX+fXPH+Pwwf3+HE5T0UYjM+ctpHDRUgoWFJNXMIdoo1HrsoQQYpDD5cLqu64f6EbfabdTX1FG9YljVBw7RG3ZyXCZbOeSFM1fwEc/+VlWrrti1HPNSAAYwaUEgKF2vbeD3//6l7y99c2wviZ0IXqDgZyZs5k5dwH5RfPInVVIenaOTF4khAgph8uFzeHAFsBGX1VV2hvraagop668hNqykzRVV0TCsLsjUhSF5WvW8eG776H4suWXvL0EgBH4GwAGVJ4+xZ9++wSbn/kHFovF7/2EC1NsLDkzC8krKCR3ViF5BUVk5OTK3AVCiIDxqCoOlwt7gLr3PR4PbQ21NFaeoqHiFI0V5TRWVeCwWQNUsXZi4+K4+oabuPWOjzItb7rf+5EAMIKxBoABfWYzzz/3L/725z9FxA2Dl8JoiiFnZgG5BUXkFRSRW1BEZk4eOp2EAiHE6DjdbuxOJw6XC8cYBunxuN201tfSWFFOQ+UpGipP0VR1GqfGo7kG2szZhdz0odu56vpNxATgcW8JACMIVAAY6sC+vfzjL3/m1ZdewNLfH9B9h4too4lpMwq8PQW+3oLMnDwMUfLUgRDCe5Zvdzqxu1w4/DzLdzkdtNbX0lR5mgZfg99cXYnTMb4a+wGxcXFccfVGbrjlQ8yZvzCg+5YAMIJgBIABVquVLS+/yHP/+Du7du6IiMdJxkKn05GalU1W7nSycvO973n5ZObkEW00aV2eECLIHC7XYIN/KWPwO2w22hpqaa2vobWuhtY673Jnc2PE3mM1WopOx5JlK7hm082su/JqjKbg/K2UADCCYAaAoVqam3np38/x4uZnOXbkcNCPF04URSE5I9MXCvKZ6gsGWbnTMcbISIZCRCLVdx3f6XYPvl/s77rdavE28PW+Rt633N3WMu4b+rPNKiziims2cvX1N5Ganh7040kAGEGoAsBQVRWneenfm3n5hc2cKgvtscNNclrGYBjIys0nPXsaqZnZTEpJlacRhAgjbo8Hp8uFw9fgn296XVVV6e1op7OlifbG+iENfg09HW0hrjq85M8qYP0117Fh4/VkZU8L6bElAIxAiwAw1KmyMra8/CJbXnmJk8ePaVZHuDFERZOSkUlq5tQzr6yppGR432Ni47QuUYhxzeVr6B1uN06Xa9iwuzZLP50tTXQ2N9HV2jRkuZmu1mbcIZ6JL5wVFM1l7YarWHfV1eTk5WtWhwSAEWgdAIZqqK9j65bX2Pr6Fvbs2onTEXkDVIRKfGISKWeFg1RfOEhOy0Cn12tdohARw+3x4HS7cbndON1ubHYbXa0t3oa9pZmuFl8j73tZ/W9Ixr2o6GgWLV3G6svXs3LdetIyMrQuCZAAMKJwCgBD9ff1sWP722zf9hbbt22lqSG8ppoMZzqdjilpGUxOSWVSShqTU1KZnJLGpJTUwXWTklNlFEQxIVmtVtpbmuhoa6WjrYWutlZ6Otrp7Wynp7Od3o52ejvaxv1Ny4GUnpnFstVrWLZqLUuWrwzIY3uBJgFgBOEaAM5WXlbK9re2sn3bW+zbvQvHOH0MJpTiEhJ9oSBtWFg4sy6NhEmT5V4EERFUVcXc3UVXeytd7a10t7fR0dpCZ3srXW2tdHe00dPRLmfvARBtNLJwyWUsW7WGZavXaNq1P1oSAEYQKQFgKJvNxp73d7LjnW28v+NdSk+emHB30IaK3mAgaUoyCUmTiUtIJC4hkdiEROISEoiN977HJSQRm5Dg/Tw+kdiEBGLi4iU4CL+oqoq1vw+L2Ux/Xy/95l7vsrmHfrMZS1+v993s/azf3Iu5u4uerg659h4kOp2OornzWLV2HWuvWE/+7Lk4I6yHRALACCIxAJytp7ubvbvfZ8/7O9m98z1KThyX7juNKYqO2Pj4M4EhPsEXHAZeAwEi0RcekrzrEhIxxcRKeIhwqqpis1p8jbS38fY24r2DDfhA420x99Lfd6ZBt/T1oary71dLOp2OufMXsHzVapavXM1lK1aSNGnS4Odtnd30WyNrmOFwCgCGQO1IQNKkSVy98Xqu3ng94A0E+/fsZt+e3ezfs4ujRw7LDYUhpqqewT/wl0qn0xEbn0BcYpL3/azAMFIvRGxCIkajCb3BgN4QhcFgkBsh/eRxu3G5XLhdTtwuF3a7bbAhH+nse2iDbukz09/bg6XPLCE8gkRHG1mwaBFLl6/ksuUrWLp8BYlJSVqXNW5JAAiipEmTuPLajVx57UYA7HY7xw4f4tCB/Rw5dJCjhw5SV1ujcZXifDweD329PfT19oxpP4qioNcb0BsMGKKiBpf1UQYMegP6qCjvz/rhnw8sG4Z9brjg5/oob+gYWB7cZuj+hywDuJxO3G4XbpfrrGWXd9m3zuU6szz0uy6nt4H2Lrsu8vmZ7d1OJy63C7fTNfxz37JcThv/puXksnDxEhYsKqZ4yVIWFBcTHS03BYeKBIAQMhqNLPWl2gFdnR0cOXSIIwcPcPTwQQ4fPEhnR7uGVYpAU1UVl8uJy+XEPg5mRRPCH8kpqSwsLmZh8RIWFC9mYXExk6cka13WhCYBQGOTpyRzxZVXccWVVw2ua6iv48jBA95gcOgAx44cHreTGQkhxp+4+HjmL1zEwuIlLCwuZkHxYqaGeMQ9cXESAMLQ1OxpTM2exvU3fQDwdkWfPlXu7SU4dJAjhw9RXnIS+zibdlMIEXlMJhMFRXNYuKjY152/mBmzZsk05RFAAkAE0Ol0FMwupGB2IbfdcRfgDQW11VWUl5VSXlJCeVkJ5aWlVFaclhsNhRABFx1tJH/mTAoKCykonON7L2JaTq409hFKAkCE0ul05OXPIC9/Btdcd8PgerfLRVVlJeWlJ73hoLSU8tKTVFdVybPJQoiL0hsM5M+YwazZRd4Tj6IiCmYXkZefj16eaBlXJACMM3qDgZkFBcwsKOD6IeudDgcVp09RXlrKqbISykpKKC8rpb62BvclzBcuhBgf9Ho903LzmF1YxKzCQgpmFzG7qIjp+TOIio7WujwRAhIAJoio6GgK58ylcM7cYeudDgf1dbVUV1VRW11FdVWl772KutoauZwgRASLjjYyLTeH3On55OZNJ296vm85j+xpOYOPgoqJSQLABBcVHc30GTOZPmPmOZ95PB6aGhuoqaqipqrynJBgsVg03ydEJAAAIABJREFUqFgIMVRsXNxg456TN5286dMHG/yMrCy5Pi/OSwKAOC+dTjf4RMKqtevO+byttZWa6oFwUEl9bQ1NjY00NzbS3NQoTykIEQAmk4n0zCwys7LIyMwiJy+P3Lzpg2fyKalpWpcoIpQEAOG31LQ0UtPSWLps+Yifd3V1+sJAE82NDTQ3N53zc2/P2EbZEyKSJSYlkZHpbdgzs7LIyMoiIyOTjKypZGRmkpGZxaTJk7UuU4xTEgBE0EyePIXJk6dQNHfeeb9jsVi8YaCpieamIeHA93N7exud7e3SmyAiitFoJDk1leSUVDIyMn2N+5lGPSPT28jHxMRoXaqYwCQACE3FxsaSP3MW+TNnXfB7lv5+bxjoaKezvYOOjnY6O9rpaO+gw7e+o6ODznbvemuEzRAmwltMTAxTklOYkpJCSkqKdzk5heSUZN97KsnJyUxJSSE5OYXYuDitSxbioiQAiIgQGxdHTlwcObl5o/q+1Wr1BoN2XzAYEhh6erox9/bSZ+7F3NuL2dyL2WzG3NuLpb9fJqEZpxRFITYujoTERBISEkhISCQhMZF433tS0qTBBn1KcsqZBj0lVc7UxbgkAUCMSzExMWRPyyF7Ws4lbefxeOjv6zsnGPSZzZh7ezCbvcu9vb1n1vvWWa0WbFYbdrsdm82K3W6XxyjHKCo6GpPJhNFo8r6bjMTExBI/rAFPIDHRtxyfQEJikvfzxEQSB9clEhcfL3fECzGEBAAhhtDpdN4zxMTEgOzP4/GcCQQ2O3ZfMLBZrdhsNux2m/fd5nv3fTZ0G4fDjsftxu124/Z4ziy7Xb73Ies8bjxuNy6XG49n4HvedQPbulze7Twet+931qPX6zEYDOj0evQ6nffd99Lp9BgMet9nvnV6PXq9zvcdw5l1Ot3gcnS0EaPJiMkUg9FoxBTjezeZMJq8DfrZnxlNMcO2kQZbiOCRACBEEOl0OmJiYqQLWQgRdiReCyGEEBOQBAAhhBBiApIAIIQQQkxAEgCEEEKICUgCgBBCCDEBSQAQQgghJiAJAEIIIcQEJAFACCGEmIAkAAghhBATkAQAIYQQYgKSACCEEEJMQBIAhBBCiAlIAoAQQggxAUkAEEIIISYgCQBCCCEuyOPxaF2CCAKD1gUIIYTQnt1uZ9d7O9i/Zxctzc20tbbQ1tpKa0sLnR3tREVFkZaeQWpaGqlp6aSmpZGTl8e69Vcyu2iO1uULP0gAEEKICaq5sZFtb77Otq1v8P6727Faref9rt1up662hrrammHr/+c7D5M5dSobrrqGDVdfy8q164iJiQl26SIAFFVVA7czRckAmvzZNiU1jX0nygJWixBCiJEdPrif//3B99m5Y3vA920ymbjrnnv54le+yuQpyQHf/1Btnd30XyC0hKNNa5fT32f2d/PJqqp2B6oWuQdACCEmiPKyUj778Y/ywY1XB6XxB7DZbPzhicdZu3QRP3/0R1j6+4NyHDF2EgCEEGKca25s5Gv3fZ7rLl/NG6+9EpJj9vf18dijj7B26SKe/N1vcLvdITmuGD0JAEIIMY7t3vke129Yx+Zn/qHJ3fydHe1895vf4BN3fJie7oD1XosAkAAghBDj1FN/+B0fve2DdHV2aF0KO97Zxs3XbKC8rFTrUoSPBAAhhBhnnA4H33jgy3z7oQdxu1xalzOoprqKD268KmSXIcSFSQAQQohxxNLfz+0f2MQ/n/6L1qWMyNLfz+fuuZvfPf5/Wpcy4UkAEEKIcUJVVR74wmc5uH+f1qVckKqq/PC732bLKy9pXcqEJgFACCHGiccefSRiutdVVeVrX/wcZSUntS5lwpIAIIQQ48BrL73A//3kUa3LuCQWi4VP330nXV2dWpcyIUkAEEKICFdy4jhf/9IXCOTIrqFSV1vDF+79eFjdrDhRSAAQQogI5vF4+MrnP4PFYtG6FL/t3vkef/jN41qXMeFIABBCiAj24ubnKC8tCeoxjAYdOiWoh+DXv3iMPrPfY+QLP8hsgEIIEaHcLheP/fiHAd1nbLSOa+ZP5qbiZJbmJZA5KZrJcQZcHpWWHif1nXa2nuzipUOdHKg2E6irDt1dXfzu17/kgQcfCswOxUVJABBCiAj1zN/+Sk11VUD2lWDS88DGbL66cSrxRv05nxt0ClMnRzN1cjTLZyTwzRtzKGm08M1nq3nxUGBGGvzDE49zz6c+E/RZBIWXXAIQQogIZLfb+cVPA3PX/y1LUzj16GU8fHPOiI3/+RRlxbL5y3N456EFTJ0cPeY6+vv6+PUvHhvzfsToSAAQQogI9PLzm2lubBzTPhQFvnVzDv/8QhEp8VF+72dNQRK7Hy5mWX7CmOoB+Ouf/oDNZhvzfsTFySWAEOrv6+Pl5zdTcfo0RpMRo9FE3vTpLFy8hGk5uVqXJ4SIIG+9vmXM+/jxR/J54NqpAagGMidFs+0bC9jwyFH2Vvp/M5/VauX9d7ez4ZprA1KXOD8JACFg6e/ne//1EC9ufhar1TridyZPSWbR4sUsLF7CoiVLWVBczOTJU0JcqRAiEjgdDra//daY9nH36rSANf4DTFE6Nn95Diu+e5j6Lrvf+9n6xhYJACEgASDIOjvauef22zh25PAFv9fV2cHbW9/k7a1vDq7LzZvOwiGhYO78BRiNxmCXLIQIc7vffw9Lf7/f2xdkxPDEPbMCWNEZGUnR/P0Lhaz9wRG/97HtjS2o6k9RlCA/ezjBSQAIIpfTyYdvup6KU6f82r6muoqa6ipe3PwcAIaoKAqL5rCweDELFy9h0eKlzJg1C51ObuUQYiLZOsbu//++NQ+jIXh/N1bOTOSWpSls3t/u1/Ytzc0cP3qE+QsXBbgyMZQEgCB66fnNfjf+I3E5nRw/eoTjR4/w9J//BEBsXBwFs4uYPWcOswuLmF00h9lFRSSnpAbsuEKI8LL9ra1+b7skL55bl6YEsJqRff/WPJ4/0I7Hz3ECtr+1VQJAkEkACKLf//pXQT+Gpb+fwwf3c/jg/mHrk1NSKSyaQ0HRmVBQUDiH2NjYoNckhAgej8dDfX2d39vfvTo9gNWcX0FGDJflJ7Cnwr8bAmtrqgNbkDiHBIAgaWlu5uTxY5odv6O9jZ07trNzx/bBdYqiMC0nl4KiIgqL5jC7aA4FRXOYMWMmeoP8ryBEJOjq7BjTxDk3FodukJ3rF07xOwC0tbYEuBpxNvmrHyQ228h3+2tJVVVqa6qpralm65bXBtdHRUeTN306udPzyZueT07e9MGfp07NlnAgRBhpa231e9uCjBhyk0N3I/GVRZP4NjV+bTuW31OMjvxlDxK73f9HYELN6XBwqqyMU2Vl53ymNxjInpZD7pBQkJvnfc/JyyU6Wp5KECKUxnJmPG1KaP+9Tks2+b2t9AAEnwSAIMnIyCQ62ojDETlBYCRul4uaqkpqqip59+3hnymKQkZW1vBeg7zpZOfkkpmVRXJKqjzGI0SAtbb43zBmBWC43kuRnhSFTsGvGwE72tvxeDzylFMQSQAIksSkJK7aeB2vvvi81qUEjaqqNDU00NTQwK73dpzzeVR0NOnpGWRkZZGZlUVmVjaZWVnenzOzyMiaSmpamvwDF+IS2McwTG5M1OjH+Q8Eg04hSq/D7vJc8rZutxuXyym9jEEkASCIPnLXR8d1ALgYp8NBfV0t9XW15/2O3mAgLT2drKypZGRN9QaEzCxfUJhKZmYWqWlpGKL8H6dciPEkJS3N722behwBrOTiuvpdfjX+AAmJidL4B5kEgCBat/5KvviVr/Krx36qdSlhy+1yDfYiXEhiUhJTklNITk4mOSWVKSne5SnJKUxJTiElNWVwOTk5majo0HZ1ChEqaen+P8bXOIbhef3R1O1/4BjL7ylGRwJAkH39P79FT3c3f33yj1qXEtF6e3ro7emhurJiVN+PT0ggOSXVGxJSUkhOTmGKLzwkp6SQmJhEQmLimVdCIvEJCXI5YpxyOhyYzb2Ye3u9/y/5loe9hqzrPetnq9VCalo6U6dmM2f+fD73pfuZkhz8wXRGkprmf8NY0mjB6vAQEx2a/88P1vT5ve1Yfk8xOhIAQuC/f/wTbv7Qh/ndr/6Pra+/hsfjX5eYGL0+s5k+s5maqspRb6MoCjGxsSQOCQXegJB05ueEhHOCw8ByfHw8JlMMRqNRHp0MoGGN95DGurenZ1SNt7m3JyBP5fT39VFdWcHOHdv5+1/+zH0PfI1Pf+FLIQ+NqWO4BGBxeHjrZDebFoVmorFXj3T6ve1Yfk8xOvJXKkSWLlvO0mXLaWpoYP/ePd7R+w7s58SxoxH1yOB4pqoqlv5+LP39NDc1jWlfeoMBk8mE0WjCFGMaDAYmkwlTzMByDKYY73eMJt93TL71poF1Jm+g0OvR6fXodDr0Ou+yXq/zvuu8673r9Oh9yzqdzrudzvvdkfahqioulxOX04nT6cLtduF0On3rziwPfDbwPe86Jy6Xd53L5Rr83tD9uVwDnw1sO2TfLidul2v4Nr7vWSyWgDbegdZnNvPI975Dn9nM1x76r5AeOzrayKTJk+nu6vJr+38faA9JALA5Pbxx3L8aAdIzMgNYjRiJBIAQy5w6lRs/eAs3fvAWwDu+f8nJExw+eIDDB/Zz+OABqipOo6p+DqAtwoLb5aK/r4/+Pv+7QEX4+9VjP2XO/AVct+mmkB536fIVwwbzuhR/29XKN2/KIT/V/2f0R+NXbzXSbfF/xMKly1cEsBoxEiWQDY2iKBmAX6dOKalp7Dtx7kA0E1FvTw9HDx/k8IEDHDq4nyMHD9LR3qZ1WUKIEWRlZ7PzYGiH/f7nX5/iG1+93+/tb1+eyl8/VxjAiobrtrgoeHAfnf3+BYDoaCOHyisvOndJW2c3/dbwG3X1QjatXU5/n3/DIwOTVVXtDlQt0gMQhhKTklhz+XrWXL5+cF19Xe1gD8GRQwcpKzmJubdXwyqFEACN9fWcKitj1uzZITvm+quvRVEUv3sK/7m3jY8sTw3avABf+kuF340/wIrVa2TishCQABAhsqflkD0th00fuGVwXVNDA2WlJZSXnqT05EnKS0s4XV4WltdMhRjPtm/bGtIAkJaezryFizh2+JBf26sqfOy3Zez81iLmZAW2of3hy3X8fffYxvG/8tqNAapGXIgEgAiWOXUqmVOncsWVVw2uc7vd1FRVUlZaQlnJScpLSigtOUltdRVut1vDaoUYvyz9/SE/5lXXbPQ7AACYbW5u+tkJXv7qXAozAxMCnni7iYc3V495P1dec+3YixEXJQFgnNHr9eTPnEX+zFnDbkyy2+2cKiulvLSEspISykpOUFZaQktTk9xwKMQYZWVnh/yYN9/6IX7xkx+PKdhXt9tY/d9H+NvnC7l2/mS/9+PyqDzwdAW/3ja2p2cAlq1cxdTsaWPej7g4CQAThNFoZN6ChcxbsHDYepvNRm1NNTVVlVRXVlJbXUV1VRU1VZU0NtRLr4EQo5A1NfQBIHd6Ph+6/U7++fRfxrSfHquLG392nLtXp/PtD+SSc4nTBb9xvItvPFPF0brA9IJ8PcSPVU5k8hSAOC+X00l9XS011b6AUFVJTbU3HNTV1Eb8TIdCBEL+zFm8vn2nJvNVNNbXs37F0oD9WzQadNy9Oo2bFyezvmgSpqiRBzlq7Hbw6pFO/rarlXfLegJybIDLN1zJk/94dtTfl6cAxkZ6AMR5GaKiyMufQV7+DODKYZ95PB6aGxuprjrTa9BQX0dTQz1NTY20NDfjdvl/F7AQkeKhh7+r2WRVWdnZ3Pnxe3jyd78JyP7sLg+/397M77c3ExutoygrlqzJRjKTorE63TR2OajvtFPWHPhGV1GUkA+qNNFJD4AICo/HQ1trK82NDTQ1NXon/GlspKmxwbuusZGWlmZcTqfWpQrht9vv/jg//MljmtbQ3tbK5ZcVY7FYNK1jrK7bdBOP//HPl7SN9ACMjfQAiKDQ6XSkZ2SQnpHBQpaM+B2Px0N7WxvNjQ00NjbQ3NjoCwn1NDU20trcTHt7myZ3WAtxIYaoKL79g0f46D33al0KKalpfOXBb/A/33lY61L8lpCYyH9869talzHhSAAQmtHpdKSlp5OWns6C4sXn/Z7NZqOzvZ2O9jY6OjroaG+js6Od9rZ2OjuGrG/zrrdG2BmBiAxGo5Ely5ZzxZVXcfXG632XxsLDp7/wJU4cO8oLz43++nm40Ol0/OI3fyB3er7WpUw4EgBE2DOZTGRlZ4/6USuLxeINBm3DA0NHezudHR3eWeTOng62zyyXI8YxnU5HfELCsGmgE5OSBmdzTDzr5zOfn/l+TEyM1r/GBf3osV9SVVnJ0UMHtS7lknzj4e8OG8tEhI4EADHuxMbGEhvrHTnxUthstsEZ6IZOMds7wpSzw372TT1ss1mx2WwSJAJMURRi4+J8DXXSmemafT8PnbJ5WAM/5OfYuDgURdH6Vwkqo9HIb//8NDddfQWtLS1alzMqt3z4dj79hfu0LmPCkgAghI/JN/3uWOch93g82Gw27HYbdqv33WazYbfZBtcP/9mOzWr1vtus2G2+d7sdu82K0+nC43bjcrlwe9x43G7cbo/33ePG7T6zzu124Xb71nkG1rnPfNflOrPO40ZRFAyGKAxRBqIMURiioogyGDBEnbVsiCIqyuBb5/2+d12U73ODd3ngewP7Grrs21eU7/tn9nXu8aOio4lPSBg8I9fpRn4cTQyXnpHBb//8NB+5+YawHxJ88dLL+OFPtb2BcqKTACBEgOl0Ol8vRCz4P7iaEH5ZuHgJ/3zhFT57z0dpaW7WupwRXXPdDfzs8d8QHX1pgw6JwJJYLYQQ48zCxUt48c13WLR4qdalDKMoCl/++oM88eRfiI2L07qcCU8CgBBCjENp6en888WXueXDt2tdCuC9N+dXv/8TDzz40Li/HyNSSAAQQohxKjrayE9++Wse/v4PNT3jLphdyLOvvM51N96sWQ3iXGETAGTYWCGECI5PfOZz7Nh/mE985nMhve4+NXsa//t/j/Pa9p0UzZ0X8P27PZE3WZnbHT5tXdgEgK6uTmprqrUuQwghxqUpySk8/P0f8vbu/dx2x13o9fqgHuvbP3iEt3fv59aP3BG0pziczvBpTEejprICWxgNVBZWTwHs2vEuObl5WpchhBDjVlZ2Nj/++S/57H338/xzz7Dtjdc5efzYmPdrMplYtXYd66++lltu+0hILjkEci6bUDi4d7fWJQwTNpMBASwoXszmV15HbwirXCKEEONac1MTb7/5Otu2vsH+Pbvp7uq66DZ6g4Hs7GmsW7+B9Vdfy8o1azGZTCGo1sujqtQ2hudjjiNxuVx87q7bqCgf06R3AZ0MKKwCAMCXv/4gDzz4UIAqEkIIcakcDjttra20tbbQ2tJCe2srRpOJtPR0UtPSSU1LY/KUZE0HaOq32mjrvHhQCRe//+VjPP2H3451N+M7AOj1ev718haKl4TX86tCCCHCR1tnF/1Wm9ZljMqJo4f58ifuxjP2mxYDGgDC5ibAAW63my9+6h4qT5/SuhQhhBBhyOZwREzjX1ddxff+46uBaPwDLuwCAEBTQwMf2nRdxM1qJYQQIrhUFTq6e7QuY1RKjh3lvnvuojVMh2QOywAA0NXZwR233MSOd7ZpXYoQQogw0dvXFxGP/+15710e+Mw99PYErMc+4MI2AABY+vu5967b2fzMP7QuRQghhMZcbjfd5j6ty7ioV/79LN/8yhex28L7MkXY3QR4PtfdeDP//aNHSU5JDcbuhRBChDFVVWnp6MRmd2hdynl1drTz0+9/h53B67ke3zcBns9rL73A1WtW8tK/N2tdihBCiBBSVZXWzq6wbvzfeOVF7rllUzAb/4CLmB6Aoa69fhPff/QnpKSmBftQQgghNORRVVrD+My/o62Vn3z/O+x6951QHG5i9gAM9fqrL3PNmpU887e/4naH36MVQgghxs7jUWlpD8/G3+1289Kzz3DPrTeGqvEPuIjsARgqd3o+93/9QW665UNBndxCCCFE6Hg8HprbO3E4nVqXMozH4+aNl1/kqd89QVN9XagPP75HAvTX9Bkz+fLXHuSmW27VdHhKIYQQY2N3OGnv6sYZRtPEezxutr72Ck/95nEa6mq1KkMCwIXkz5zF/V//DzZ94IMSBIQQIoKoqkq3uY+eMHrUT/V42Pb6qzz5m8ep137KegkAozGzoIAvfuXr3HDTzURFR2tdjhBCiAtwOJ20d/WETZe/y+nknTdf56+/f4KaqkqtyxkgAeBSTElO4daP3MGdH/s4efkztC5HCCHEECrQY+6jx2wmgM2R3+prqnl587/Y8uLz9HSH3WyDEgD8oSgKK1av4Y6772HjDZukV0AIITTmcDrp6O7B7tD2rN/pcPDutjd5+bl/cXj/Xk1ruQgJAGMlvQJCCKEdp8tFd28f/VarpnXUVVfx0uZ/8fqLz4f1mP1DSAAIlKG9AtfecAPR0UatSxJCiHHL5XbT3Wumz6Jdw+9w2Hl365u89NwzHD24X7M6/CQBIBji4uNZf9U1XHv9Day/6hri4uO1LkkIIcYFl9tNj7mPPotFk+v8/X1mdu/Yzo5tW9n7/ntYLZbQFxEY4zMAxMbFkZObR+nJEwGrx1/R0UZWr1vHtddv4qqN18kEREII4Qe3x0OPuQ9zv4VAtjWj0dnRzs63t7Hj7a0c2rcHVxg8XTCraA41FRU4HHZ/dzE+A0BKahq7Dh/nV4/9lF/9/Kc4HeEx9KNOp2PJsuVce/0mrrn+Bqbl5GpdkhBChDW7w4m5v59+qy2kDX9jfR07tm1lx7atnDx2BNXjCdmxLyQ62sjHPvN5br/nk9x8xSr6+8z+7mr8BoB9J8oAqDh1im9/4/+xc8f2gNUWKHPmzR8MA4Vz5mpdjhBChAVVVem3Wunts4T0Wf7TZaXs2LaV997eSuWp8pAdd7SWrljF/Q99i2zfyeOmtcslAJxtaAAY8OqLz/M/33mYhtCPtzwq03JyWX35Faxas44Vq9eQmiazEwohJhany4W530KfxYonBGfcHe1tHN63h4N793Bgzy5amhqDfkx/pGdm8bkH/h9XXH3tsPUSAEYwUgAAsNvt/OGJx/n1L35Gn9nv/2ghMWv2bFauXsvKtetYsWoNkyZP1rokIYQIOBWwWG2Y+/uDPlNfT3cXh/fv49De3Rzat5fa6rAZlW9EcfEJ3Hnvp/jQXR8b8ckyCQAjOF8AGNDV1clv/u8XPPWH32LV+NnR0VAUhaK581i1dh0rV69l2cpVxCckaF2WEEL4zeZwYLHa6LdacbuDc7bf32fmyIH9HPKd5VedLg/5DYT+iImN5ZY7PspHPnYvCYmJ5/2eBIARXCwADGhva+WJ//s5f3/qSSwR9CiHXq9n3sJFrFqzllVr17Fk2QpiYmK0LksIIS7I7nDQb7XRb7XhdrsDvn+b1crRQwc4tG8Ph/bu4VRpCR5P4I8TLDGxsdx82+3cfs8nSZp08V5fCQAjGG0AGNDV1cmTv/sNf/79b+npjogRnIaJio5m0eIlXLZ8BQuKF7Nw0WIysrK0LksIIbA7nPRbrVisNlwBbvRbm5spPXGU0hPHOXboIKXHj+IKo2l/RyshMZFb7ribW+/4KAlJSaPeTgLACC41AAywWCw8+/en+eNvw2rGJr+kpad7w0DxEhYWF7Ng0WKSJk3SuiwhxARgdzixWK30B7DR7+3ppvTEcUpPHKPsxHFKjh+lq6MjIPvWytRpOdx6591cd/MtmPzoxZUAMAJ/A8AAj8fDtjde58nf/5b3d2yPiGtGo5E7PZ+FxcUsLF7CguLFzJ2/QC4dCCHGzOPxYLU7sNrs2Oz2MTf6NquV8pKTlJ04RumJ45ScOEZTmD7BdakURWHpytV84MN3sHLt5Sg6nd/7kgAwgrEGgKGqKk7z1yf/yOZn/kF3V9hN5zgmeoOBgtmFLChezKLixSwoXszMggKZx0AIcVF2hxOr3Y7VZsc+hsHWHA47NRUVg2f3pSeOUV1REVHX7kcjMWkS1954Mzfddvvgc/xjJQFgBIEMAAMcDjtvvPoKm5/5B+++vS0oN7CEA71eT15+PgWziygoKqJgdiEFhXOYnp+P3mDQujwhhEbcHg9Wmx2r3Y7NZsd9ic/pu1wu6muqqa44TdXpU1RVet8b6+rGXWM/QKfTc9mq1Vx38y2svnw9hqiogO5fAsAIghEAhmprbeX5Z//Js//4O+WlJUE7TjiJio4mf8ZMCgq9gaCgsJDZhUVMy81DN4YuLCFEeFJVFbvDMdi1P9oR+TweN411dVRVnKaq4tRgg19fUx2RN+j5I3/WbDbeeDNXXX8jk5OTg3YcCQAjCHYAGOrEsaO88Ny/eOn5zTQ3hucoUsFkMpmYWTCbWbMLmV1UxKzZRcyaPZup2dMkGAgRQdxuDzaHA7vv5XA4udBfdI/HTUtjI9WVFcMa+tqqqrFMUBOx0jIyWX/NRq68bhOzCotCckwJACMIZQAYoKoqhw8e4NUXn+fVl16gsb4+pMcPN1HR0WRPyyE3L4+cvOnk+l45edPJycvDaJT7DITQktPlwmb3NvY2hwOX69xueLvdRlN9PY31dTTU1dJYX0ej7725sWHCnNGfT0bWVK64+louv+paCufND/nxJQCMQIsAMJSqqhw7fIgtr7zEG6+9QsWpU5rVEo4URSE9I2MwGJwJCN6wIMMeCxFYqqricDqxOZzY7d4Gf2CsfXNPDw31dTTW19JY531vqPM2+J3tbePmKahAyc2fwdoNV7F2w1UUFGk7iZsEgBFoHQDOVl1ZwdbXt/DWG1vYt2c37gmemi8madKkM+EgN5eMrKlkZmaRkZVFRmYmySmpKIqidZlChCVvY+/C4XRidzhobm6mqaGBttYW2lqaaWtpobGhjobaWhrra8N+XhStGQy8+WPRAAAgAElEQVQG5i9ewqp161l9+Xoys6dpXdIgCQAjCLcAMJS5t5edO7azfdtbbN+2laaGBq1LijhR0dGkp2f4AkEWmUPfs6aSkZFJWnq6PLUgxjW3y0VzSzN1tbXU19XR1NhAU2MDLU1NtLa00N7aQntbK64QTqc7XqSmp7N0xSqWrVrLZatWExcfnnOvSAAYQTgHgLOVl5Wy/a2tvPv2Nvbtfh+7feLdPBMMOp2O1LS0wUCQkeUNCOkZmSSnpDAlOYXk5BSmpCTLuAcirDgcdjrbO2hvb6Ozo52O9nZamptoamigsbFxsJHv7GgPyZS5E4HJZGLR0mUsWbGKy1atIXd6vtYljYoEgBFEUgAYym63s3fXTt7fsYM977/H0SOH5XJBCMQnJHjDQHIyU1JSSElJ9S4np5CcknJWYEiRGxjFJbHb7XS0tdHR0U5nRwedHe20t7UNLnd0tNPR1j643N/Xp3XJ457eYGDBwkWs9E2odtmKlfT0WemPgNlhhwqnACD9rWNkNBpZe8UG1l6xAQBLfz8H9u1h98732PXeDgkEQdJnNtNnNlNTXTWq78fFx/sCg7cHYdKkySQkJpKQkOB7TyQ+IZGExETiExJITEwkPt77WVx8vDweGWE8Hs/g/yNmcy9msxlzb6/3594e+vq8P/f61nV3d9HR3k5nu7dBt/T3a/0rTHiGqCgWLipm5Zq1LF+1msWXLSc2Nvasb0VW4x9uJAAEWGxc3LBAYLVaOXxgP/v37Gbfnt0cOrBPbuDRQH9fH/19fdTWVF/ytoqiEBsXdyYwnCcsxCckYDKZMMXEeN9NMRhNRowm789GowlTjHe9yWTCaDJO+EsZDocdm9WG3W7HZrP6lm3YbDbsZ/1ss1qx2WwXbdTNZjOW/n65Ez7CxCcksHjpMi5bvoKly1ewaMlSTCaT1mWNaxIAgiwmJoaVa9aycs1awHtmcvpUOUcOHuDooYMcOXSQkpMn5KafMKaq6mCAaA7wvnU6HUajEaPJ5AsFA+HAdCZEGI3o9Xp0ej16vc67rNP73nXe9QPvvpei6HzLA5/rB/eh0ymD+wDv4DButxuPR8Xj9i67PW7fsge3242qet/dbt96jweP243H4/Ft69vO7Rncx2CjbrNhtw1p1If8LI30xBQVHU3hnLksXFTMwsXeic5mziqQnrYQkwAQYjqdzjtW/+xCbrvjLsB7FnTy+DGOHjrE4YMHOHr4IJWnT8sfxwnA4/FgtVqxRth1TCFGS1EU8mfO9E1zvpiFxYspmjdvwvd+hQO5CTBMmXt7OXbkMEcOHeTIwQMcOXxwQg5bLISILJlTp7KoeAkLfNOYz1+4iPiE4DyS19bZLTcBjoH0AISphMREVq1dx6q16wbXtba0eC8bHD5I6ckTlJeUUFdbIz0FQoiQ0+l0TMvNo2B2IYVz57Jw0WIWLl5MSmqa1qWJUZIAEEHS0tO5auN1XLXxusF1VquV02WllJeVUl5aSnnpScrLSif8vAZCiMBQFIWsqdmDE4d5ZxctYmbBbLlJL8JJAIhwMTExzF9UzPxFxcPW9/f1+UJBie/lDQetLS0aVSqECHcZmZnMml3ka+wLvY397CJi4+K0Lk0EgQSAcSouPp7iJUspXrJ02Pqe7m5OlZVS5gsGladPU1NVSWNDPW73uTOLCSHGF71ez9TsaeROzyd/5kxmFxYxq7CIgtmFJCYlaV2eCCEJABNM0qRJLPU9ZzuUy+mkvq6W6qoqaqurqK6qpKa6ipqqSupqaifkXOFCRCqj0ci03Fxyp+d7Z+30vedNn072tByZc0MAEgCEjyEqirz8GeTlzzjnM4/HQ3NjI9VVlb5wMDwkyKhpQoReXHz8OY17Tt508qbnk5GVJbNviouSACAuSqfTkZWdTVZ29rCnEga0t7VSXVVFfW0NTY2NNDc20NzURFPT/2fvvsPaOLO2gd8jgQrVIJoAG3BsigtgTFzikrjGTnPapjtlS4qzySbZvNn0ZL9N2U12s9kkm55NL05ipzpxnBjbcccYcKHaphgQAiQBEuplvj8kZLAxBmmkkdD5XZcvDaMphzf78twazTzHuaxWUQMUQkZDIBAgITHxlMZYKfI0TMjMREZmJmQJiXyXSYIcBQDitYTEJCQkJqF41uwh37fbbOhQKqFUtrvDgbJdAWW7whUYFOjoUMJqsfi5ckL8TyQSIzmlvzW2HCnyNKTI5dQam/gd/S+M+JwwLMx9BQE4e8htWJaFRq1yhgOFwh0WVK4GLRq1yrmsVkHb2+vfX4CQM2AYBjGxsa4OlK6ulImJkCUkIEWeCrk81T3gx8XL6PI8CQgUAEhAYBgGsoREyBISMXV6/rDb2qxWaDSaIduyatRqd0c3tSsw9Pb00GRJZFQYhkHsuHGntJWOl8lcraedXSX7O0zKZDL6xE6CDv0vlgSdsPBwJCUnIyk5eUTb2202dHdroFGroVap0NvbM6CLnHZQZznnete6AZ3lSPCJiIx0dmp0dXCMjol1Lg/o6tjf0TE6Jgaxsf0Dvgxx8TIIhUK+fwVCfIoCABnzhGFh7vsUPGG326Hv63OHgj6dDtr+sNDnakWr08Hoalfb37bWZDLCbDSd6IhnNsFkNLnfM5lMId8FMiw83N310NlK+UQHRIlECrF04HvOV6lU6hq0Y12tmZ0tmaMHDPaRUVE0gBNyBhQACDkDoVCImNhYn0ySYrfbXa1xja5w0B8WzO4gYbGY4XA43O15T7TvdQxo3ztUe15XK1+HA3bHgFa+dodzX4dz4ieBwNlW2N062NU+mBEMaCk8RPvhE+2FB7YoFrjXiUTiQQN3/6DuHuQlEhqkCeERBQBCeCQUChERGUlTrRJC/E7AdwGEEEII8T8KAIQQQkgIogBACCGEhCAKAIQQQkgIogBACCGEhCAKAIQQQkgIogBACCGEhCAKAIQQQkgIogBACCGEhCAKAIQQQkgIogBACCGEhCAKAIQQQkgIogBACCFkWA6Hg+8SiA9QN0BCCCEwm83YvWM7yvbuRodSia7ODnR1dqKzowMatQrh4eFISk5BYlISEpOSkZiUhAmZmVi4aAly8qbwXT7xAAUAQggJUUqFAiU//4SSXzZh16/bYDQaT7ut2WxGy/FmtBxvHrT+mScfhzwtDYuXLsfiZedj7oKFkEqlvi6dcIBhWZa7gzFMCoB2T/ZNSEzCvqo6zmohhBAytMryMvzz6aewc/s2zo8tkUhw/c2/xZ333Ie4eBnnxx+oS9MD/TChJRBdtGA29H06T3ePY1m2h6ta6B4AQggJEfV1tbjtphtw2YplPhn8AcBkMuGd11/FguJC/Of5f8Cg1/vkPMR7FAAIIWSMUyoU+PMf78DKc+dh048b/HJOfV8fXnz+71hQXIj33noDdrvdL+clI0cBgBBCxrA9O3fggsULsf7zz3i5m1+jVuGvjzyIW669Cr09nF29JhygAEAIIWPUB++8hRt+cxm6NWq+S8H2rSVYtXwx6utq+S6FuFAAIISQMcZqseDBe+/GEw89ALvNxnc5bs1NjbhsxVK/fQ1BhkcBgBBCxhCDXo9rLr0Iaz/+kO9ShmTQ63H7zavx1qsv811KyKMAQAghYwTLsrh3zW0oL9vHdynDYlkWz/71CWzc8B3fpYQ0CgCEEDJGvPj834Pm8jrLsvjznbejrqaa71JCFgUAQggZA3787hu8/K/n+S5jVAwGA/6w+jp0d2v4LiUkUQAghJAgV1N1GPfftQZczuzqLy3Hm7HmtzcF1M2KoYICACGEBDGHw4F77rgVBoOB71I8tmfnDrzzxqt8lxFyKAAQQkgQ+3b9OtTX1vj0HALGp4cHALz20ovo03k8Rz7xAHUDJISQIGW32fDic89yeswIkQDLp8fhkhkyzMyMQlKMCLKocFjtDnT0WqHoNmNzTQ++q9Bgf5MOXH3r0NPdjbdeewX3PvAQNwckZ0TdAAkhJEh9+sF7ePj+ezk5VrREiHtXpOO+FWmIEgtHtE+NwoBHvmzCtxXczDQYGRWF7WWVI+4iSN0AvUNfARBCSBAym8146QVu7vq/vDgBR54/G4+vmjDiwR8A8lIjsP7uKdj6UD7S4kRe16Hv68NrL73o9XHIyFAAIISQIPT91+uhVCi8OgbDAI+tmoC1a/KQEBXu8XHmZ8diz+MzMGtitFf1AMBH774Dk8nk9XHImdE9AH6i7e3F91+vx7q1n6KxoQFiiRhisQSZWVkoKJqJghkzUVhUhHhZAt+lEkKCwOafNnp9jOeunoh7z0/joBpAPk6EkgfzsfjvB1Ha4PnNfEajEbt+3YbFy8/npC5yehQA/GDnr1tx6003wKDXn/Jec2MDtpVsdv+cPn4CCmcWo2BGEQqLZmJqfgGkUqk/yyWEBDirxYJtWzafecNhrJ6XxNng308SLsD6u6dgzl8r0dpt9vg4v2zaSAHADygA+NiP33+LP93+B1gtlhFt39pyHK0tx/H91+sBAMKwMGTn5A4KBZOycyAUjvx7OkLI2LJn144hP1CMVHaKFK/fPJnDik5IiRXh0zW5WPD0AY+PUbJpI1j2BTCMH54/DGEUAHxI2d6Ou2/7PWxWq8fHsNtsqKk6jJqqw/j0g/cAABEREZhWUIjComLkFxYiJ28qsiZOhDCM/nMSEgp+8fLy/9+uyIQ4zHe3gM2dFIPLixOwvkzl0f4dSiUOHzyA6QWFHFdGBqIRw4feffN1rwb/0zEYDCjdvQulu3e514lEYpw1eTJy8vKQnTsFObl5yM7LQ1r6eErRhIwx2zb/4vG+MzOjcEWx7+81euqKTHy9XwWHh0+ab9v8CwUAH6MA4CMmkwmffvie385nsZjdVwoGioyKQnZOLrLzToSCnNw8JCQm+a02Qgh3HA4HWltbPN5/9bxkDqs5vewUKc6eGI29xzy7IfB4cxO3BZFTUADwEY1KBZ1Wy3cZ0Pf1oWJ/GSr2lw1aHy9LcF0tcAaCyTm5yMiaiMQkCgaEBLJujdqrxjkXzxjZJDtcuKAg3uMA0NXZwXE15GQUAHzEbA7s51g1ahV279iO3Tu2D1ofERGBjKyJyMya6HrNcv+cLJfT1wmE8Kyrs9PjfbNTpMiQiTmsZnhL8sbhCTR7tK83vycZGQoAPmKz2fkuwSMGg2HIrxIAQCKRYEJGpjMQTBwcEFLT0iEQ0LxShPiaN5+Mx8f7b/AHgPEyicf70hUA36MA4CNnTZ6MlNRUr2fqCiQmkwn1dbWor6s95b1wkQjjJ2QgMysL6RMyIE9NRYo8zfmamgp5aipEIv/+8SFkLOrs8HxgTOVgut7RSI4Nh4CBRzcCqlUqOBwO+mDhQxQAfEQgEODy31yNV//zb75L8QurxYKGo0fQcPTIabeJlyWcCATyVKSkugKCPBWpaWlIlqfSpEeEnIHZi2lypeH+nT8kTMAgXCiA2eYY9b52ux02m5U+OPgQBQAfuvbGm/HJB++hp7ub71ICgkatgkatQtWhg6fdZlxcHFLkqa6gkAa5PBVJycmIT0hAvCwBMpkMsoRERMfE+LFyQgJHghc36rb3jmxCMq50620eDf4AEB0TQ4O/j1EA8KH08RPw/mdf4rorVkHf18d3OUGhp7sbPd3dqK2uGna7sPBwyGQyxMucwSAhMcG9LJPJEJ+QAFlConubmNhYuoGRnJHdZoNWp4VOq4W2txc6rRY6nRZGgxEpcjnGT8hAslzO60ycScmeP8an8GJ6Xk+093geOLz5PcnIUADwsfwZRXjv0y/wyP33DvndOfGMzWpFh1KJDqVyRNsLw8IQHx/vCgXOQBAdE+P8Fx3jXo6KjkbMSeuiY2IhFtMnkUDncDig7+tzDt5a1+DtWta6lge/1+sc5HUn3jMYDGc8jywhEff95SFcfcONvASBxCTPB8YahQFGiwNSkX++Vy9v9vyDjze/JxkZCgB+UDx7Djb+ugtbft6Ed996A+X79o7oDw3hjt1mQ1dnp8ePFoWLRM5QEB09ZHCIjolBVFQUJBIpxGIxxBIpJFIJxGIJJBIJJFLneolE4txGIoZEIoVEIgmpKZwdDgdsNitsVhusVivsdhusVptrndW9bDAYBnwKdw7SAz+Ra0/6hK7t7YW+rw8s6+G0c6OgVnXhkf+7D++/8xbeX7sOKXK5z885kDdzdRgsDmyu7sFFhfEcVnR6PxzQeLwvzUnie6Hzl4dnDMNg8fLzsXj5+bDb7ThSV4sD5ftRWVGOyv1lOFJXC7s9OB8dDAVWi8V9DwPXhEIhxEMEA7FY4goRYgiFQgiEQggYgXtZKBRAIBA6fxYIXOuEELqWBQLXtgLntkMdg2VZ2KxW2GzOwdc5IFtd61zL/e/ZbO5l56tzILfZnNu63xuwj/s917LD4dn3wYGovrYGt9+yGp9/u8Gv31WLRGKMi4vz+N6ir/ar/BIATFYHNh32/P6n5BT/BqtQRAGAB0KhELlTpiJ3ylRcfcONAJzP31cdPIDK8jJUlpfjQPl+tHkx3ScJHna7HQa93qvuboQfB8r34/898hCeev4Fv563ePYc/LLxR4/2/WR3Jx65ZAImJnr+jP5I/HezAj0Gz2csLJ49h8NqyFAYLi+ZMQyTAqDdk30TEpOwr6qOs1rGAlVXJw6Ul6OyYj8q9+/HwcpyaHt7+S6LEDKAVCpFRX2jX+8TWfvRB3jwvj95vP81sxPx0e25HFY0WI/BhuwH9kGj9ywAiERiVNQ3ICIiYtjtujQ90BuNHp2DLxctmA19n2fTIwOIY1m2h6ta6ApAAEtITMKS81dgyfkrAAAsy6Kp4RgOVFSgrqYadTVVqKutgaK1ledKCQldRqMRpbt3YsF5i/12zkXLzgfDMB7f87C2tAtXz070WV+Auz485vHgDwBz5s0/4+BPvEcBIIgwDIOssyYh66xJg9b36XSoq61BfU01amuqUV9bg7qaGnRr1DxVSkhoKd2z268BICk5GdMKCnGossKj/VkWuPHNOux8rBBTUrkdaJ/9vgWf7vFuHv/+Dz3EtygAjAFR0dGYefYszDx71qD1XZ2dqK+tRm21MxTU1lTjaF0tPYFACMdiY8f5/ZxLl6/wOAAAgM5kxyX/rsL3901FrpybEPD6lnY8vr7J6+MsWX6+98WQM6IAMIYlJiUhMSkJ8xae517Hsixajje7vkKoQVPDMTQ3NqCpsRGqLuq+RYgn0tLT/X7OVVdciZf+9ZxXTw81qUyY97cD+OSOXJw/Pc7j49gcLO79+BheK/HoFrBBZs09B2np470+DjkzCgAhhmEYTMjIxISMTCxbccGg9/R9fWhuanQHAudrA5oajqGzo8Mvz1gTEmwYhkF27hS/nzcjayKuvOY6rP34Q6+O02u04eJ/H8bqecl44tIMTBhlu+BNh7vx4OeNONjCzVMs9z/0KCfHIWdGTwGQETEajTje1IimxoZTAoJSoRhTz3cTMhqXXnkV/v3qG7ycW9HaikVzimGxcDPFrzhMgNXzknBFcQLOzR0HUdjQ02d3aq3YcECDD3d24Nc67p5MOnfxErz32Zcj3p6eAvAOBQDiNYvFjONNzWhrbUF7Wyva2xVQKhRQtLVB2d6GdoWCeiGQMUkikaBkdxnkaWm81fDXRx7Ee29xH0BipEJMS49EcowISTHhMFkd6NBa0NZtQVWr3qMWv8NhGAbfbCrB9ILCEe9DAcA79BUA8ZpIJMak7GxMys4+7TY6rRbt7Qq0t7VBqWhzL7crFFC2t0HR1kYhgQQVWUIiXvvf+7wO/gBw5z334fOPP+T85l6t0Y5dR7ScHnM4Ky68eFSDP/EeBQDiF/3z5WfnnH7ykT6dDu0KBdoVrWhXKNCpVEKl6oJGrYZGrYJa5ZyKV6PRwG7z/BljQrzBMAxmnzMPL7zyOu+DP+C8enrPAw/imScf57sUj0XHxOAvjz3BdxkhhwIACRhR0dGYnJODyTk5w27Hsiy0vb1Qu8KBWq2CRqWC2hUUNGoVVF0q97JGo4HV4t8+6CR4SSQSRMfEODtGRp/oGjkuLg7Fs2Zj4aLFkCUk8l3mIH9YcxeqDh3EN+tG/v15oBAIBHjpjXeQkTWR71JCDgUAEnQYhkHsuHGIHTcOEydNHtE+Oq3WHQbcHeZcneScrzp3S9iB7WF1Wi20Oi1dcQgS7q6NMTGIiYlBTEzsoI6NA392DvADtnX9HBYezvev4ZF/vPgKGhsacLCinO9SRuXBx/+K85Ys5buMkEQBgISE/j/6nn7KMBqNAwJC76CAoNPp0Neng8logslkhMlkgtlkHPSzyWiC2WxyLrveM7veC7UnKMLCwxEmFCIsPBzhYeEICw9zrQtzrQtDuEiEKFfr5UGDdkwsYoYc0J2vEolvG9wEMrFYjDff/xiXLDsPnR0dfJczIpdfdQ3+sOaPfJcRsigAEDICUqkUUqkUScnJnB/barHAbDYPCgsDg4TVaoPDbofdYYfD4XAu2+2w2x1gWYdr2e7axnHSNnbXNo4B25w4DsMwAwbfMISFhSM8PHzQIO1cFzbkdsKwMISHhQ3azrku3L1dWNiJgV0YRn9yfCk5JQVvvv8xrl51Icxmbh4N9JWi4rPx7Asv8l1GSKP/bySEZ+EikfsTLyHeKiiaibXfbMBtN9+ADqWS73KGtHzlhfj3q29AJPJfB0VyKgHfBRBCCOFWQdFMfPvzVhQWFfNdyiAMw+Du+x/A6+99iIjISL7LCXkUAAghZAxKSk7G2m+/x+VXXcN3KQCAiIgI/Pftd3HvAw+BYYaeYZD4FwUAQggZo0QiMf71ymt4/Klnef3EnZ2Tiy83/ISVF6/irQZyKgoAhBAyxt1y6+3YXlaJW2693a/fu6elj8c/X34VP27bibyp0/x2XjIyFAAIISQExMsS8PhTz2LLnjL85trrIRQKfXquJ57+O7bsKcMVV18LgYCGmkAUMM2AoqKjcejYcc5qIYQQcnrHjhzB1+s+R8mmn1B9+JDXx5NIJDhnwUIsWnY+Lv/N1X75yqFDrYHRFNiPOw7EOhxYMXemN90bx2Y3QADYWlqOjMwszuohhBByZsr2dmz5+SeU/LIJZXv3oKe7+4z7CMPCkJ4+HgsXLcaiZedj7vwFfp+I6Xh7R1BNpNXa3ITVl17gzSHGbjfAH7/7BrffdQ/fZRBCSEhJkctx7Y0349obbwbgbPHd1dmJrs4OdHZ0QNXZCbFEgqTkZCQmJSMxKQlx8TLeL+1z+QHWH7aX/MJ3CYME1BWAqOhobN27P+AabRBCCAksdrsdLcpOvssYsR6NBtdfsgIGvVdtzzm9AhBQd2b06XR4/pmn+C6DEEJIgDME0Xf/APD2Ky96O/hzLqACAACs/egDvP/2m3yXQQghJID1GQx8lzBi6z/7GBu+CrxWzQEXAADgr488iPWff8Z3GYQQQgKQTm+A2WLlu4wR2fT9N3jluWf4LmNIARkAWJbFA3/6IzZu+I7vUgghhAQQu8OBbq2O7zJGZPvmn/GPJx4N2JsVAzIAAM4bPO783c145YV/Buz/8QghhPhXd6824B/9Yx0OfPDmq3jigXvhcNj5Lue0AuopgNM5d/ES/Pu1NxEXF8/1oQkhhAQJk9kCpUrNdxnD6unW4OlH/oKy3Tt9cfix+xTA6Wwr2YwLFy9EZXkZ36UQQgjhgc1uh6qbs7HPJw5XluMP11zhq8Gfc0FxBaBfWHg4brvzLqy558+IiIjw1WkIIYQEEKvNhg6VBjZ7YF5ONxoM+OCt1/DFh+/B7tsax+5UwCOVIpfjwcf/H1ZdcaWvT0UIIYRHVqsNSrUadnvgfe/Psix+/uE7vPniv6BWdfnjlBQA+hXPmo0nn30OU6fn++uUhBBC/MRitUKp0gTkTX/1NVV46R/PoOpAhT9PSwFgIIFAgKuuX40/P/gwEhKT/HlqQgghPmK2WNCh1sDhCKynwLrVavzv1Zew4et1YP0fTCgADEUsFuM3116PP9x5FyZkZPJRAiGEEA706vrQo+sLqEfA21tb8Nn7/8PGb7/2pp2vtygADEcoFOLCVZfi9rvuQd7UaXyWQgghZBSsNhtU3T0BNcvfkdoafPre29j286ZAeKafAsBInbdkKe64+17MmnsO36UQQggZhrZPj26tLmA+9Vfs24tP33sH+3bt4LuUgSgAjFZR8dn43e1rsHTFSohEYr7LIYQQ4mKzOZ/vN1ksfJcCi8WMHVs244uP3kft4UN8lzMUCgCeGhcXh0suuwJXXnMdphfO4LscQggJWSzLQqs3oCcAPvXXHj6Ejd9+hc0bN6BPF9B9BigAcCE7Nw9XXnMdLvvNVfT0ACGE+AnLOlv59uj6fD1pzrA0ahV+3vAdfvxmPZobjvFWxyhRAOCSMCwM5y1ZiiuvuQ5Llp2PcJGI75IIIWRM6jMY0aPV8Tajn81qxa5ft2Djt1+jdOd2XgOIhygA+EpcXDwuvuxyLL/wIsyecw7CwsP5LokQQoKe3mhCj1YHq83m93PbbDYc2L8PO7ZsRsnGH6DtDex+AmcwNgNAXFw8fnPdDXjn9f8GRCqLiY3FoqXLsGzFBThvyTJERkXxXRIhhAQVg8mEHm0fLFb/PtZn0Pdh747t2Lm1BHt3/hoQ3+sLBEJcdePN+PaLz2DQ6z09zNgMAAmJSdhXVYdDlRW4/+47UV9bw1ld3goXiTB33gIsv+BCLD1/JZJTUvguiRBCApLd4UCf3gCdwQCbzX8f5ro6OrBrWwl2bC1BZVkpbH4OHcOZODkHDzz5N+RMmYaLFsyGvs/jQDK2AwAAWC0WvP36q3jlhedhMBg4q48LDMNgeuEMLFtxAZavvADZuXl8l0QIIbwzWSzQ9RlgMJn8dld/w5E67Nhagp1bSlBfU+WXc45GRGQkbrx1Da68/kYIhUIAoAAwlIEBoJ+yvR3/fOZv+OqLtQHZDAIAMjKzsHDRYsydvwCzz8bR+pcAACAASURBVJmHeFkC3yURQohfOBws+gwG6PQGv3y/36PRoLKsFBX79qJ01w4oFW0+P6cnGIEAKy+5DL/7459OGRMoAAxhqADQr/rwITzzxGPYuX2bN+X5HMMwmJyTi7nzFzgDwdx5GBcXx3dZhBDCKbPFCp3eAL3R6NNP+7093Tiwfx8q9jkH/WB4XG/WOfNx+73/h6xJk4d8nwLAEIYLAP1279iOF/7+NMpK93pyCr9jGAa5U6Y6A8G8BZg19xzExMbyXRYhhIyaxWqF3miCwWjy2ad9nVbrGvD3orKsFI1Hj/A+SdBIFcw8G79dczfyi2YOux0FgCGMJAD02761BC+/8E/s27Pbk1PxRiAQYOr0fMyZNx9z5i3ArDlzERUdzXdZhBAyJKvVBr3RCL2PBn19nw4H9pehsqwUlWWlOFpfx0eLXa/kF83E6t/fjuK580a0PQWAIYwmAPQr27sHr7/yH5Rs+iloUuJAQqEQuVOmIn9GEQoKZ6CgaCYm5+S6bxYhhBB/s9ps0BtN0BuMnA76drsdjUePoLbqEGoPH0Jt1SE0Hj0aCB32Ro0RCDB3wbm45qbfYfqMolHtSwFgCJ4EgH5NDcfwvzdew5effQKj0ejRMQKFVCrF1PwCFMwoQn5hEQqKipCRmcV3WYSQMcxitcFgMsFgNMJi9X7QZ1kWbS3HUVd1CDWHD6G26jCO1tbAbDZxUC1/pBERWHHJZbjiutVIGz/Bo2NQABiCNwGgn7a3F+vWfooP330HjceOenWsQDIuLg75hUXInzEDBYVFKCiaicQk6l9ACPGMw+GA0WyB0WSGyWz2empedVcnaqsOo+bwQdRVHUZd9WHotFqOquVfRtZEXHr1dVh+0SWIiPRuUjgKAEPgIgD0Y1kWO7ZtwWcffYifN/4AawC0meRaSmoqCmfMRP6MIuTkTUFOXh5S09LBMAzfpRFCApDZYoXRbIbRZIbZw7+JLMtCqWhD07GjaDhS77ycX3UYqs4OjqvlX7hIhAWLluLCy69E0aw5nB2XAsAQuAwAA3Vr1Fi39jN88enHATW7oC9EREYiOycP2bm5yM7tf51CMxcSEoLsDgeMJrP7U759lDfXdXV0oOnYETQeO4KmY0fRePQImhqOwRTkX7OeyVnZOVi56nIsv/ASRPvgqS0KAEPwVQAYqPrwIXz1xVp8u/5LdHaMvcR6OjGxsa5AkIec3DxMzslFTl4eTVpEyBhidzhgtlhgNltgNFtGPP9+t1rtHOCPHUFj/0B/7Kg3g1TQSUhKxtKVF2LZhZdg4uRsn56LAsAQ/BEA+jkcDpTu3oUN33yFH777Fhq1yi/nDTTxsgTk5DkDweScXGRNnIgJmVlITUunJxEICXBWmw1mixUmswVmi2XYO/btdjs62xVoa21B2/FmNDUccw/0vT3dfqw6cIyLj8e5S8/H4vNXYnphERiBwC/npQAwBH8GgIHsdjt27/gV33/9FTb9+AO6NWq/1xBohGFhSB8/ARmZWcjIzMSEzCxkZGUhIzML4zMyIZVK+S6RkJDCArBYrDBbLDC5PuWffEnfbDKhreU4FK0tULQeh6KlBW2tLVC0HEdHuyIguqzybVxcPOYvXopFy1egsPhsCAT+/6BDAWAIfAWAgex2O/aX7sXPG3/Azz/+gOamRl7rCVRJycnOUOD6NyEzC5lZWZiQlYW4uHi+yyMk6NkdjsEDvsUKlmXR29MNRYtzgHcO7icGe7Wqi++yA1Jq+njMW7QE889bgumFM/z2Sf90KAAMIRACwMmO1tdj86YfsXnTTyjfV0oJegSiY2IwISMTKampkMtTkZKahhS5fNDPERERfJdJSMCw2+0wW23o6e1BW0srFG2tULYr0NXRAVVnB7o6O9DVoYSitTWkvpf3lEAgxLTCQsxdcB7mnrsIGVkT+S5pEAoAQwjEADBQd7cGv5aUYOvmn7F96xZK216IjolxhwF5aipSUlORkiI/8bM8FbHjxvFdJiGc6enuhrJdgdbWVihaW9HW1op2RRs62tvR2aFEV0cHDe5eiJcl4Oxz5mPWvPk4e848n9y9zxUKAEMI9AAwEMuyqK+twY5tW7F9awlKd+8K+hkIA41UKkWyPBXy1FQkp6RAlpCIeFkCZDIZ4hMSIEtIdC7LEhAdE8N3uSQEaXt7oVGroFaroVGroFGpoFKpoFGroOrqgrK9Hcr2NnQolTCbgnsGvEATERGB2efMw4xZczG9qBiZZ03iu6QRowAwhGAKACezWiyo2F+GXTt+xe4d21Gxv2xMTj4UqMJFIncYiJclQJYgGzYwUEdGcjKWZU8Z0NVdXScGd7UKqi6Ve1mtVsM2wsfsiPfCRSLMmFmMc+YvxDkLFqKwaCbCRSJ0aXqgD7IPXxQAhhDMAeBkJpMJ+/ftRenuXdi3ZzcqyvbBRJ8AAkZYeDhiY8chOiYG0dHRrtcYRLmWo6KjERMTg6io/p9jnNvExCDatS4yKopmXQwQDocD+r4+9Ol00Om00Ol00Gm10Gm16NNpB63r63/tc75qXet6e3toQA8gUqkURcWzUDxnDs6eMxczz54NiURyynYUALwTxtWByAkSiQTzFpyLeQvOBQDYrFYcPFCJ0t07sW/PblSWl4fs3AOBwGa1Qq3q8uo+DoZhEBkV5QwLrvAQFR0DiUQCiVQCiUQKiUQCseufRCKFWCyGROpcL3GvH/zeyduKxeKgDRosy8JsNsNkNDpfTUaYTaZBP5tMJpiMJpjNJtfyMNsanducPKgb9Pqg7AZKToiXJaBw5kzMmjMXs+bOw/T8AoSFh/Nd1phHVwB40tpyHAcrynGgogIHK8tx6EAl9H19fJdFApBIJIZQKIBAKIRQKIRQIHQtCyAQuNa71znXM4zAtexaLxC4lwUCgXt7AHDY7bA77HA4HM5lux32gct2O1jWAbvdAbvdfmJ7u3Mfu93hXud+3+6AxWLm+f9yJBBFRUdjekGhs8FZYSHyZxQh3cPOenQFwDt0BYAn6eMnIH38BFxwyaUAnJcxG44excHKchyoKMfBigpUHz5Ef0QJ/W+ABC2xWIwp06Yjf0aRu8X5xEmTgvaq1lhDASBACAQCTMrOxqTsbFx+1TUAnJeqa2uqXYHAGQyO1tfRfASEkIAjDAtDdk6uc7AvnOHsVJqbR5fyAxgFgAAWFh6OafkFmJZfgOtvugUAYDQaUXXwAGqqq1BfU436ulrU19agpzs05/MmhPhfXFw8svOczcWy86Ygd8pUTJ2eP+SNeiRwUQAIMlKpFMWz56B49uD+1J0dHaivrUZdTQ3qa2tQX1uL+roaGPR6niolhAS7yKgoZOfkIjtvinOwd7UYT0xK4rs0wgEKAGNEUnIykpKTMf/cRe51LMuirbUF9TU1qKutQX1tNepra3G0vp6+VyaEuInFYkzKznG2DM/Lw+Qc52ta+ni+SyM+RAFgDGMYxn2z4eLl57vX2+12NDc2oK62Bg1Hj+J4UyOamxrR3NiADqWSHqkiZAxiGAbJcjkysya6m3hNnDQJObl5mJCZRS3AQxAFgBAkFAoxcdJkTJw0+ZT3zGYzjjc1nQgFrmDQ3NSE1pbjNFkKIQEsXCRC+vgJzu6cJ3XsHJ+RAbFYzHeJJIBQACCDiMViTM7JweScnFPes9vtaFe0obmpEccbG9Hc1OQKB86gQPcbEOJ7kVFR7oE9I2siMjIznYN9VhbkqWkQ8NzulgQPCgBkxIRCofsrhf5ZDgfq1qihaGuDUqFAe7sCSkUb2hUKKNsVzsYoijYYDAYeKickOERERiJF3t86O9XVLTPtxM9paYiLi+e7TDJGUAAgnImLlyEuXoap0/NPu422txfKdoUzGCjaXEFh8M86rdaPVRPiHzGxsc7B/eRB3dUCO0WeSo2qiF9RACB+FRMbi5jYWGTn5p12G4Ne77py0AZVlwrdGjXUahU0ajU0KhXUatc6lRq9Pd1wOBx+/A0IcRIIBIgdFwdZgszVeTIBcTIZ4mUyyPo7UyYmuAb6NERERPBdMiGDUAAgASciMhJnTZ6MsyafepPiyRwOB3q6NVCr1MMGhf42rhqNhlo1kyGFi0SIj48f1FY6Lt41mCckDBrY42XxGBcXT9+3k6BGAYAENYFA4P6DPVJGo/FEq1itdogWsq62stqT2sjqet3LdC9DYImIiHC3co6OjnW3do5xr4s58X5/G2j3OuerVCrl+9cgxK8oAJCQI5VKIZVKkZSc7PEx7DYbdDqdu698n04Ho9Hgbm/b3+rW7G5ja3S3xjWZXK1vXe+Z+9viDmh5298eN9ivVoSLRCfaH4tPbpUsHfSzs5WydNC2Yvd7/dtKIJVGDBjInYM6PcNOyOhRACDEA8KwMIyLi8O4uDifnsfhcMBisQxq1evob7vrYE9pw+tuz+sY0MrX4YDdMaCVr90OB+s8HgBni2DmRLtgoat9MCMY0FJYcFL74QEtiAUCZsA2J1oOi0QiukROSACjAEBIABMIBNRghRDiExTPCSGEkBBEAYAQQggJQRQACCGEkBBEAYAQQggJQRQACCGEkBBEAYAQQggJQRQACCGEkBBEAYAQQggJQRQACCGEkBBEAYAQQggJQRQACCGEkBBEvQAIIYQAADqUSuwv3YMOpRJdnR3o6uxEZ0cHVF2dEIvFSEpOQWJSEhKTkpGYlIQJmZkonj0XYrGY79KJBygAEEJIiHI4HDhYWY6SnzehZNNPqDp0cNTHkEqlOGfhuVi8dDkWLV0OeVqaDyolvkABgBBCQky3Ro3XXnoR6z9fC7Wqy6tjGY1GbP5pIzb/tBEAkDtlKv6w5o+49MqrqB10gKP/OoQQEiL0fX34z/P/wILiQrz16iteD/5Dqa2uwp//eAdWnjsPP2/8gfPjE+5QACCEkDHOYjHjnddfxYLiQrz4/N+h7+vz+Tnr62px643X44oLlmPvrp0+Px8ZPQoAhBAyhilaW3HZimV46vFH0K1R+/385WX7cM2lF+GZJx+H3W73+/nJ6VEAIISQMWrfnt24eNkiVB8+xHcpeOvVl/G766+GtreX71KICwUAQggZgz55/11cd8UqaNQqvktx21ayGZeuWIpjR47wXQoBBQBCCBlTWJbF43+5H4/8332wWa18l3OKxmNHcdnKpdi+tYTvUkIeBQBCCBlDXvj70/jw3Xf4LmNYOq0Wt9+8GjVVh/kuJaRRACCEkDHi+6/X45V//4vvMkbEYDDgD6uvC6ivKEINBQBCCBkDDh88gP+7+06+yxiVttYW3HbzalgtFr5LCUkUAAghJMh1dXbiDzdeB5PJxHcpo1a2dw8ee/D/+C4jJFEAIISQIHffnbdDqVDwXYbH1n70Ab5Z9yXfZYQcCgCEEBLEdm3/FTu2beG7DK+98PenA/KphbGMmgERQkgQ++czf+P8mBNkYlyQH4+izCikjhNDPk4Eo8UORY8FLRozttb2YnNVNwwWB2fnPN7chLWffITrb7qFs2OS4VEAIISQILX5p42o2F/G2fFWFcnw6CUTMCMjatjt/rQ8DSarA9+Uq/HE+mYc7TRycv5XXngeV15zHcRiMSfHI8OjrwAIISQIsSyLfz77FCfHmpYeiV2PFWLdXVPOOPj3k4QLcPXsRBx+dib+c8NZkIR7P5wo29vxwTtveX0cMjIUAAghJAiVbPoJtdVVXh9nVZEMOx4twKyJ0R7tHyZgcOeSVGx9KB+p40Re1/PGKy9R0yA/oQBACCFB6Kcfvvf6GL9dmIIv/zgFUWKh18cqzorG9r9MQ7qXIUCt6sL+0r1e10POjAIAIYQEGZZlseWXn706xvzsWPz3xklgGG5qspqsGMfa8fENmYgQeTe0bN70EzdFkWHRTYB+YjabsfH77/DFJx/h2LEjEIslEIvFyMyaiIKimSgoKkJBYRGioj27DEcICR0HKvZD1dXp8f6J0eH4/M48hAu5Gf2tJisM3UaABabJpXjxsvG4dW2zx8fbvOlHPPTEXzmpjZweBQA/2L+vFH9YfR26NepT3quvrcGmHzcAABiGwcRJk1BYVIyCopkonFGEvKnTEBYe7u+SCSEBzNtPyA9fPAFJMdz8XRk4+Pe7In8c3t6tQulxvUfHPHbkCJqbGpGRmcVJjWRoFAB8rOTnTbjzdzeNaIpOlmVx7MgRHDtyBOvWfgoAEInEmDJtOgpnzkTBjJkoLCpC5sSzfF02ISSAlXgRALISJbhtkZyTOoYa/Ps9sUKOC9886vGxSzb9hFtuvd2L6siZUADwoa7OTtxxy42wWMweH8NiMaOyvAyV5See9Y0dNw75hUUonDkT+QUzkDt1KtLSx4Ph6ss8QkhAO1pf7/G+tyxIgSjM+78Vww3+ADAnIxI5SRLUdXrWn+DoEc9/RzIyFAB86IN33vRq8D+d3p4ebN9agu1bS9zrIqOikJ2Ti5wpU5GTm4ecvCnInTIFcfEyzs9PCOFPb0+PV39XLpkR73UNZxr8+y3PifE4AHR2KD3aj4wcBQAfsVjM+Oi9//ntfPq+PlTsLztlVrCExCTk5E1BTp4rFORNwaScXERERPitNkIId7o6Pb/5Lz1OjGnpkV6df6SDPwAsnhyNl7d7Vq83vycZGQoAPqLuUqGnu5vvMqDq6oSqqxM7f93qXscwDCZkZCInbwqy8/KcoSA7BxMysyCVSvkrlhByRl2dHR7vOzFJ4tW5RzP4A0BmvOdzAnjze5KRoQDgI2Zz4PblZlkWzU2NaG5qdD+BADiDQVJyMiZkZiEzayIysiYiIzPT9ZqFmNhYHqsmhADefTKWezFJz2gHfwBIjvb8SQO6AuB7FAB8xGq18V3CqLEsiw6lEh1KJfbt2X3K+3Fx8c4wkHUiFGRkTURmVhZkCYn+L5iQEKTV9nq8b1yEZ3/yPRn8AUAcxkASLoDJOvqugVaLBSaTCRKJd1ctyOlRAPCRiZMmITklBR3KsXMjS3e3Bt3dmkFPJPSLjIpyBoLMLKRPyIA8NRUpqanOV3kaEpOSIBR6P90oIaEuPt7zm/g6ddZR7+Pp4A8AeovDo8EfAKRSKQ3+PkYBwEeEQiEuvfJqvPHKf/guxS/0fX2oPnwI1YcPDfm+MCwMScnJkMtTkZKa5goGroCQmobU1DQkJSdDGEb/kyRkOIlJyR7vq+ixjGp7bwZ/AFBqRx84+nnze5KRob+2PnTdTTfjkw/ehU6r5bsU3tltNrS3taG9rQ3AviG3EQgESExKcgYE+YkrCEnJKYiXyRAvS4BMloD4hATqF05CVlKy5wNjfbsBdgcLoeDM8wB4O/gD8PgRQMC735OMDAUAH5qQkYl3PvoMN151+YhmAgx1DofDfQ/CAewfdtvIqChnGJAlID5BhoSEROeyTAZZgnO9LOFEYKBLiWSkHA4HdFottNpe52tvL4xGIxKTkpCWns773BrefDLW6G3YdUSLBTnD39DLxeAPAD/X6zzel64A+B4FAB87e85cvPH+R3jk/vvQ2nKc73LGDH1fH/R9fTje3DSi7SMiIpyhIDERMpkMMbGxiI6OQXRM/z/nz1HR0YjpX+d6PzIqCgIBNc4MFhaLGdreXmh7e08ZyE9e1rqW+7fT9vbCoNeDZU8/8qWkpuL+hx7F5Vddw8vsmxGRkYiIiIDBYPBo/28r1MMGAK4Gf5YFNtV5fvUzMSnJuwLIGVEA8IOFi5Zga2k5fvzuG3zwv7dRWb4fVsvovosj3jEYDDAYjnsUwhiGQWRU1IlQEB19SnCIjolBVFQUJBIJxK5/EokUYrEYEtfNTGKxBBKp5MSyREKNnkbg2JEjOHzwAHp7e04ZrE8Z4Ht7fTL75kBKhQL337UG77/9Jt75eC0vA9W0gkKU7t7l0b7vbu/AwxdPQFzkqX/+uRr8AWD9oR6v7gGYVlDofRFkWBQA/EQoFOKiSy/HRZdeDovFjOrDh1C5fz8OVOxHxf79aG5s4LtEchosy6JPp0OfTod2tHF6bKFQCLFYDLFECon0RDCQSKQQS8TusCAUCiEQCiEQMM5lgdC9TigUQsAw7uX+9wUCAYRCgXP9gO0HHqP/E2xkVBSmTs9Hbt6UgAgl3Ro1nnnycWwr+SVgnwc/dKASa357Iz5Z/y3CRZ4/X++Jpeev8DgA9BhseO6HFjz7m8Gd9rgc/K12Fs/+3O7x/gKBAIuXLfe+EDIsZrhLXaM+GMOkAPDov3pCYhL2VdVxVkuw6e7W4EB5OSrLy3CgfD8OlJeju1vDd1kkxIhEYixbeQH++uw/eJvboXT3Lvzp9t9D2e75AOJPN/3+Vjz5zD/8es6Go0ew5JxZHu8vFQmw5/FCTE1zTgvM5eAPAP/a0oFnfvH8EegZM4ux/sefz7hdl6YHeqPR4/Pw4aIFs6Hv8/jeiDiWZXu4qoUCQABrbmxAhesqQeX+/ag+fMjnlzcJAYC4eBmee/FlLF2x0q/nPXSgEpetWAq73e7X83ojIiIClfWNfr8KsGhOMZoajnm8f1aiBLsfL0RsGDgd/DdU9+KmT5rgzdBy/8OP4c577jvjdhQAvEMBIIhYLRZUHz6EA5UVqKupRl11FerraukxQ+ITYrEY32/+FZOys/1yPofDgctWLsPBinK/nI9LH637GvMWnOvXcz79xKN4+7X/enWMuWdF4+PrMxAr5maSrp2Nfbjmg0YYLJ5N/tNv47adyMmbcsbtKAB4h+4BCCLhIhEKimaioGjmoPXtbW2oralGfW01aqurUV9bg6P19XS1gHjFbDbj/rvXYN2Gn/wyi+PXX34elIM/4Pzawt8B4MJVl3odAHYf02HZq0fw6eosnJXg3dwaH+xT44Hv2mC1e/ehclJ29ogGf+I9CgBjgDwtDfK0NCxausy9zm63o6mhwRkKaqpRX1OD2ppqHG9qhMPhXTonoeNA+X5sK9nslxuyyveV+vwcvhIVFe33cxYWFWPR0mXY8suZvysfzjGVGcteO4K/LEnBLbNlEAlH92hjS48FT29S4osD3HQ/vfeBhzg5DjkzCgBjlFAoxFmTJ+OsyZOx8uJV7vUmkwlH6+ucXyHU1KCp4RiamxpxvKmRJisiQ6osL/NLADh29IjPz+EraenpvJz3zw89iq2bfxl23oKR6DXZ8fCGNry2swt3LUzExVPGISl6+OHhoMKIzyo0eK9UDbONm6+Sp0ybPujvFfEtCgAhRiKRYFp+AablFwxa398J8HhTI5oaG9Dc2IDmpibXayPdZxDCKvcPPysjV9oVCr+cxxcm5+Txct6p0/Ox8uJV+OHbrzk5XkuPBQ9824a/fNeGmekRKEyLgDwmHMnRYTBaWSh1VrT1WvHrMR0UvZ4/43869z/8GC+TK4UqCgAEgHOymxS5HClyOWbNPeeU97s1ajQ1NqK5sRHNjQ1oamxwhYVGaNQqHiom/uKve0mm5RcE5XwYF666DJNzcng7/31/eRg/bfiO0ycnWBYoazGgrMWz2QY9MfPsWYO+xiS+RwGAjEhcvAxx8TLMmFl8ynt9Oh2amxrR1tribPijUEDZ3gZFWxuUCgWUynaa+TCI5RfO8Mt5Zp8zDxu++cov5+JKuEiEBx59nNcazpo8Gdeuvgkfvfc/XuvwhlAoxENP/o3vMkIOBQDitajoaEydno+p0/OHfJ9lWahVXWhXKNCucIYC53KrMywoFFC2t9NTCwFqeoF/AsDS5Svwj789CX1fn1/O563YcePw4mtvYUJGJt+l4LGnnkHVoYOo2F/GdykeeeSvT2Hm2Z5PbEQ8Q/MAkIDAsiw0apU7JLQrFOhUtkOlUkGt6oJGpYJapYJarUKfzvMOY2R0MrIm4setOyCVSv1yvnVrP8X9d63xy7m8UVhUjBdffxMZmVln3thPOjs6sGr5oqCZQbHfVdfdgH+8+LJH+9I8AN6hKwAkIDAMA1lCImQJiafcoHgyi8UMjUoNlaoLGrUrGLj+adQq53qVGmpVF9RqFQx6vZ9+i7GFYRg89+LLfhv8AeCKq69FRdk+fPz+u34758kYhkFEZCRiYmMRExPrfI2NxbhxcSieNRvnLl4KeVoab/WdTlJyMt547yNcdckFMJuD42paUfHZeOq5f/FdRsiiKwBkzDOZTK4rCF3QaDTQubrH6XRa6HQ66LRa9PW/9ulcHeZOrAvFryZEIjEefPxJ3HLr7byc/5eNP+LRB+5Dh3L088kLBAJERkUNGrwHLkfHxJz+PVdnR39MfOQrX3/5Oe5dcxvfZZxRSmoqvt20xatuinQFwDt0BYCMeRKJBKnp6Uj18Fltq8VyaljQad3LWq0W+r4+mExGmEwmmIxGmE2mQT+bTCaYzWbnOqPzPbPJFJBz3hcUzcRz/3kF2Tm5vNWwdMVKnLNgISr270P14UOoq6mBQCAYNGBHx8ScMoDHxMQiKjo6pB8lu/TKq2AyGvH4Qw8E7M23EydNxtsffsJLK2VyAl0BIIRHNqvVFQ5MrrAwIDiYjDAbTbDarHDY7bDb7bDZ7HA4nMv96+wOx4llu8316lo3aFvHgPed6wBAGBaG6OhoTJmej/zCGUhLH8/z/1UIF8pK9+KOW26Eqiuw2ikvXrYcL772FqJjYrw+Fl0B8A5dASCER2Hh4YgKD0dUtP+nkiVjW/Gs2fju5y249eYbcKiygu9yAAB33nMf7nvwEQgEAr5LIQDovwIhhIxRKamp+OK7H3HlNdfxWkdkVBT++/a7uP/hx2jwDyD0X4IQQsYwsViM51/6L9b9sAmzz5nn13OLRGL89rY7sL2sEhdccqlfz03OjAIAIYSEgKLis/HZ19/j/bVfnvFRW28JhUL85trrsWVPGR772zOIi5f59HzEM3QPACGEhJCFi5ZgwXmLsfH7b/Hl2k+x69dtnHUCTZHLsWjZ+fjtrXdgUnY2J8ckvkMBgBBCQgzDMFh58SqsvHgVTCYTdu/YjpJNG1HyyyYoWltHfByBQIAZJxQntgAAEJFJREFUM4uxaNn5WLxsOfKmTvNh1YRrXD8GGAvAo0cUwkUiHDjS5NdZxwghhAzW3taGjo52dHV2oqujA52dHVB1dkIskSApORmJSclITEpCYlIy0tLHc/I4n6e6NN3QG7m5euEPBn0fLl44Fw6Hx/N/SFiW5WxmMk6vALAs28swjAWAaLT7Wi0WlO3djQXnLeayJEIIIaMgT0sLyKmOh2J3OPguYVQqy/Z5M/jruBz8Ad/cBOhxc/jNm37isg5CCCFjmN0eXAFg969bvdm9i6My3HwRANo83fGj9/6HA+X7uayFEELIGORwsLDZbXyXMWKHK8ux4et13hzC47H1dHwRAH71dEe7zYZ71twGg8HAZT2EEELGGKPZBA5vYfMpo8GAZx97CKx3X1ns4Kqefr4IAL94s3NTwzE88eD/gcubEwkhhIwtekNw3PzHsiz+8/enoGht8fZQW7ioZyBOnwIAAIZhIgFo4MGNgANdec11+Pu/XwrqtpyEEEK4ZzSb0aHS8F3GGdntdjz35KPY9P033h7KAmcjIE4vj3N+BYBlWT2Az709zpeffYLbb1kNszn0erETQggZGsuy0PRo+S7jjMwmEx69949cDP4AsJbrwR/wwRUAAGAY5mwApVwca9bcc/D2h5/y+qwpIYSQwNCj60OP1uN2un6h02rx0N13oOoAZ10Yi1iW5bylo096AbAsuw/Abi6OVbp7Fy5buRSV5WVcHI4QQkiQstps6NX18V3GsA5VlGPN6qu5HPy3+mLwB3x0BQAAGIY5D0AJAIaL4wkEAvzu9jW478FHIJFIuDgkIYSQIMGyLDrUGpjMFr5LGZLJaMRbL/8bX639xNu7/QdiAcxnWXYXVwccyGcBAAAYhnkLwO+5PGbmxLPw3Isv4+w5c7k8LCGEkADlYFl0BvDgX1G6F8//v8fQ3jbyPgoj9BrLsmu4Pmg/XweAcQCqAcg5Pi5W//b3+MtjTyIiIoLLQxNCCAkgDocDHWoNzBYr36WcwqDX4/UXn8f3677wxaPrCgB5LMv67I5HnwYAAGAYZjGAHwCIuT52UnIy7rj7Xlx7480Qizk/PCGEEB7ZHQ50qDSwWANr8DebTfj288/wyXtvo0fjk8cRzQBWsizL+bP/A/k8AAAAwzCXAvgSgE8e6k9OScGaP92Ha1bfCJGIggAhhAQ7u90OpUoDqy1wpvu1WMz47svP8cn/3oJG7XHbmzOxAbiSZVlOnh8cjl8CAAAwDLMawPvg6KbAoaTI5Vhzz59xzfWrES7yah4iQgghPDGZzVB198Jm97hzHqesFgu+X/8FPv7fW1B3dfryVA4AN7Is+7EvT9LPbwEAABiG+SOAl319HnlaGu6858+46trrKQgQQkiQYFkWml4tdPrA6Adjs1qx4et1+PidN9DV0eGPU97Bsuzr/jgR4OcAAAAMwzwC4Cl/nCtFLsdV16/G1detRmp6uj9OSQghxAMmiwWq7h7YbPx/6u9UtmPDV+uw4asvff2Jf6C/sCz7nL9OBvAQAACAYZjnAdzvr/MJBAKct2Qprl19MxYtW079BQghJECwLIturQ7aPj2vdTgcduz+dRu+W/c5Snft4PJZ/pF4mmXZR/15QoCnAAAADMM8AeAx+OjGwNOhqwKEEBIYTBYL1N29vN7o19GuwIavvsQPX6/356f9fjYAj7Ms+6y/TwzwGAAAgGGYeQA+ApDp73PTVQFCCOGHxWpFt1YHo4mfZm92ux27tm3B9+s+x749u/z9ab/fMQDXsyy7l4+TAzwHAABgGCYWwGsAruWrhhS5HKuuuAorLroIBTNmgmF89qACIYSELKvNhm6tDgajye/nZlkW1Qcr8evmX7D5x++hVnX5vYYB3gfwR5ZleW1swHsA6Od6TPC/AKL5rCNFLsfylRdi+YUXYc7ceRCGhfFZDiGEBD2bzY4enQ59BqOfz2tDZVkptm/+GTu3lvA96ANAD4DbWZZdy3chQAAFAABgGGYigI8BzOG7FgAYFxeHJctXYMWFF2PBosU02yAhhIyCzW5Hr64PfXoD/DXSmM0mlO7cgR0lv2DXr1vQpwuY1sHbAdzAsuxxvgvpF1ABAAAYhgkD8DiAh+HnGwSHExERgXOXLMOKCy/G4mXLERXN64UKQggJWCazBTq9AQaTyRdz5J+iT6fD7l+3YvuWX1C6czvMJv9/xTAMG4C/AniGZVlebjY4nYALAP0YhpkG4GkAl/Bdy8nCRSLMW7AQy1deiHnnnocJGZl8l0QIIbxyOBzoMxih0xv8cld/W8tx7N+7G9tLfkHlvr2wBdCUwQOsA/AYy7I1fBcylIANAP0YhpkD4FkA5/FcymmlpY/H3PkLcM6ChZg7bwFSUlP5LokQQvzCbLFCpzdAbzT69NN+p7IdFfv2orx0LyrL9qJTqfTZuTjwC4CHWJYt47uQ4QR8AOjHMMxyAM8AmMl3LWeSOfEsZyCYvwBz5y+ALCGR75IIIYQzLMu6P+37qlOfRq1Cxb69qCjdi4p9e6FobfHJeTi2F8DDLMuW8F3ISARNAAAAxvl83hUA/gYgl+dyRiw7JxdzFyzE3PkLMOec+YgdN47vkgghZFRY1tmkR280wmA0wcHx2KHt7UFlWSkq9pWionQPmhsbOD2+j1UBeJRl2a/5LmQ0gioA9GMYRgjgJgBPAJjAczmjIhAIMGXadMydvwBz5y/EzLNnISY2lu+yCCHkFCxcg77BBIPJBAeHE+botFocrix3Xdbfg4Yj9X65YZBjTXCOQx8F2g1+IxGUAaAfwzBiAL8HsAbAFJ7L8QjDMMjImoiCGTOQX1iE/BlFmDo9H1KplO/SCCEhymS2uD/p2zkY9E1GI+prqlFXdQh11VWorTqEtpaAeRrOE4fgnLfmXZZlLXwX46mgDgADMQwzH8BtAK4EIOG5HK8IhUJMzslFwYwi5BfOQP6MIuTmTUFYeDjfpRFCxiiuBn2b1YpjR+pQW3UYdVWHUFt1GM0NDXA4+O/y5yUjgM8BvMGy7G6+i+HCmAkA/RiGiYfz64FbEUT3CZyJSCTGlGnTkT9jhjMUFBbhrMmTIRAI+C6NEBKE7A4HjCYzjGYzTCazR4M+63CgubEBta6Bvq7qEI7W18HmoxsDeVIN4A0AH7As28N3MVwacwFgIIZhzoXzqsAVAEQ8l8O5yKgoTMsvQE7eFOTk5iE7Nw+Tc3LpJkNCyClYloXZYoXRbIbRZB713fu63l40HjuKxmNH0HTsKBqO1KG+phomo3+n9/UTE4Av4fy0v4PvYnxlTAeAfgzDJAC4Gc6rApP5rcb3klNSkJ07Bdm5ucjOzUN2bi4mZ+ciMiqK79IIIX5ktdlgMltgNJlgMltGdOe+Qd+HpoZjaDzqHOj7XwNgHn1/qAXwJoD3WZbV8F2Mr4VEAOjneoxwEYDr4ZxhMIHfivyHYRikpqUjJy8Pk3PyXK+5mJSdA4kkqG+ZIIS42B0OmM0W56d8sxk22+m/dzebTGhuHDzQNx47ik5lux8rDgidAL6F807+bXwX408hFQAGcj1KuADAZa5/4/mtiB8CgQDjMzIxOScHWRPPwoTMLGRmZWFCZhbS0sdDKAyYdgyEkJP0f8I3WywwW6ynTMFrt9vR2a5AW8tx57/WFrQdb0bTsaNoV7SB5fCxviDTDOArAOsB7AzGR/i4ELIB4GQMwxTDGQQuxxi6edAbYeHhSEsfj8ysLGRkZiEja6L7dXxGBnVHJMSPWJaFxWqFyWKF2TXo2x0OWCxmtLe2ugd5RWuL87XlOJSKNtjtQX/3PVeq4Bz0v2JZtpzvYgIBBYAhMAyTixNhoJjncgISwzBISU0dFAz6rxxMyMhEdEwM3yUSEtQcDgfMFitMFgvUajWaGhtdg3wzFC0t7mVVZ2cwTqDjDyyAUpwY9Ot5rifgUAA4A4ZhxuPE1wQLEEAtigNZZFQUUuRypKSkIiU1FSlyOZLlqZDLU5Esl0OemgpZQiKct2UQEpocDgfUKhUUijbn5fmWVrQr2qBUtqOjvR2qzk6oujpg0Ov5LjVY2ABsg3PQ/5pl2Tae6wloFABGgWEYGYDFcN5IuAj0VYFXwsLDkZSc7AoFzpCQIk9FijwV8lRnUEhOSYFIRF81kOBjsZihbHcO5O0KBTqUCijb26Foa4Oy3bms6uwI1Da2waQawBbXvxKWZbt5ridoUADwAsMwcjiDwP9v79x+2yiiOPydXZRdq7HrZB2uhRIaIQF9Q5F45h8vj0iFNx4oCioUWipiO4lt5EuzOzzM2l1vnKQVCevL75OOZubMaHUsP5zf7tymouCzaiNaP8yMZnOHZK/FbtIiSVrsJgnJ3t6svpu0aO3tsZsk7OwmWrgoboX0/Jxut0u306bT9tbttOl02nTbbbqdDu328az/9ER56JY4Ik/2wHfOuaW+F3iZkQC4QczsPq+/DnwL3Ks2os3DzLjbbJK0CoKh1SJpTcVDi91WQrO5Q73RoF6vU683dMzyhvFqMmEw6NPr9Rj0+5yentA5LiT0TofO8fGs3u20OTs91Vx7NTzDJ/tHwCPn3ErcC7wKSADcImZ2wPyUwXvVRiQuI45jtusN6o0G2/U6jbovp20vFnLB0GgsHHtne1trGm4Z5xz/DAb0ez36gz79PIH3e2e+7Pfo971/1lfwTceOx+Oqf4q4nL+Y/6S/UvcCrxISAP8jZvYlXgh8AxwCnwPKGGuCmbG1tUVcqxHHMXFcI4oiorwdRTFxzft9O5qNnfZF8cWxURQRhiFBGBKGAWEwrYcEQUAQeP/UFwYhFgS+Hk77w9kzgsBmzwDI0pQ0S8ky5+u5ZVlKmmakaYrLMtIs96fen2UpWZa99uXjp88Yj8eMRkNGwxHj8YjRaMS41B4Nh/m40cWxw6EvC2Mnk4newteLDHgCPAa+x7/h/1xtSJuDBECFmFkDv83wsGCfVBqUEELcHr/hk/3UfnTO9SuNaIORAFgyzOxd5gXBIbBXaVBCCPH2/M18sn/snNuICwVWBQmAFcDMPmVeEHwN1CsMSQghivSAH5hP9s+qDUlchwTACpJfarQPPAS+ysuH+HMJ1u7aYyHE0jDG35j3U8l+d0omK4cEwBphZu/grzsuC4MDdIKhEOLNOcfvty8n+iPnnC4XWBMkADYAM4uAL7goDO6jXQhCbDIOvzCvnOifOOe0V3LNkQDYYMxsG78V8UFuB4X6R0BQXXRCiBsiA/4Efs3tqFD/xTmniwY2FAkAsZD8q8E+F4XBg9yvtQZCLA9j4CmLk/xT59ykwtjEkiIBIN4aMwvwxxyXxcE+8DF+26KmFoS4ORx+W90fLE70z51zWXXhiVVEAkDcOGa2hZ9CuFewcvt9tDBRCIAUeIn/TH+ZPXfOvaosQrGWSACISjCzEPiAeVFQtg8B3dIjVpkJ8IKrk/tLrawXVSABIJaW/LyDHaCFn1Yo2mW+WiXBik1hCBwD7bwsW9l/qv3xYlmRABBrhZnd4Xqh0ATuAo1CqemIzSLFn153VihPuJjA59paMS/WCQkAIZgJh7vMC4OySLiuv4YWP942Dv8WPk3aZ5fUr+xXIhdCAkCIGyOfsojwQmCRxVf0XTU2wp/JEJbsJnzg34azvCzaf/WN8cl6aqNS+ypbONY5N3rDv0MIcQ3/AqxOsJeMO2R2AAAAAElFTkSuQmCC;" vertex="1" parent="1">
          <mxGeometry x="778.5" y="-354" width="159" height="159" as="geometry" />
        </mxCell>
        <mxCell id="Vk-62K6m2aPXj279RXAr-7" value="&lt;font size=&quot;1&quot;&gt;&lt;b style=&quot;&quot;&gt;&lt;font style=&quot;font-size: 40px;&quot; color=&quot;#123f67&quot;&gt;Slave&lt;/font&gt;&lt;br&gt;&lt;/b&gt;&lt;/font&gt;" style="text;html=1;strokeColor=none;fillColor=none;align=center;verticalAlign=middle;whiteSpace=wrap;rounded=0;" vertex="1" parent="1">
          <mxGeometry x="765.75" y="-176" width="184.5" height="32" as="geometry" />
        </mxCell>
        <mxCell id="Vk-62K6m2aPXj279RXAr-8" value="" style="shape=flexArrow;endArrow=classic;html=1;rounded=0;fontSize=16;fontColor=#000000;fillColor=#FDD276;strokeColor=none;endWidth=35.714285714285715;endSize=7.885714285714285;width=20.714285714285715;" edge="1" parent="1">
          <mxGeometry width="50" height="50" relative="1" as="geometry">
            <mxPoint x="662.75" y="-272.5" as="sourcePoint" />
            <mxPoint x="749.99" y="-273" as="targetPoint" />
          </mxGeometry>
        </mxCell>
        <mxCell id="Vk-62K6m2aPXj279RXAr-9" value="" style="rounded=1;whiteSpace=wrap;html=1;fillColor=none;strokeWidth=3;dashed=1;strokeColor=#123f67;" vertex="1" parent="1">
          <mxGeometry x="392" y="-92" width="318" height="449" as="geometry" />
        </mxCell>
        <mxCell id="Vk-62K6m2aPXj279RXAr-10" value="&lt;font style=&quot;font-size: 32px;&quot;&gt;存储层&lt;/font&gt;" style="rounded=1;whiteSpace=wrap;html=1;fontSize=22;fontColor=#FFFFFF;fillColor=#4A919B;strokeColor=none;" vertex="1" parent="1">
          <mxGeometry x="435.25" y="203" width="237.5" height="105" as="geometry" />
        </mxCell>
        <mxCell id="Vk-62K6m2aPXj279RXAr-11" value="" style="shape=flexArrow;endArrow=classic;html=1;rounded=0;fontSize=16;fontColor=#000000;fillColor=#FDD276;strokeColor=none;endWidth=35.714285714285715;endSize=7.885714285714285;width=20.714285714285715;" edge="1" parent="1">
          <mxGeometry width="50" height="50" relative="1" as="geometry">
            <mxPoint x="548" y="115.25" as="sourcePoint" />
            <mxPoint x="548.24" y="192.75" as="targetPoint" />
          </mxGeometry>
        </mxCell>
        <mxCell id="Vk-62K6m2aPXj279RXAr-12" value="&lt;font size=&quot;1&quot;&gt;&lt;b style=&quot;&quot;&gt;&lt;font style=&quot;font-size: 29px;&quot; color=&quot;#123f67&quot;&gt;存算一体架构&lt;/font&gt;&lt;br&gt;&lt;/b&gt;&lt;/font&gt;" style="text;html=1;strokeColor=none;fillColor=none;align=center;verticalAlign=middle;whiteSpace=wrap;rounded=0;" vertex="1" parent="1">
          <mxGeometry x="451" y="-76" width="206" height="32" as="geometry" />
        </mxCell>
        <mxCell id="Vk-62K6m2aPXj279RXAr-13" value="&lt;font style=&quot;font-size: 32px;&quot; color=&quot;#000000&quot;&gt;计算层&lt;/font&gt;" style="rounded=1;whiteSpace=wrap;html=1;fontSize=22;fontColor=#FFFFFF;fillColor=#9AC7BF;strokeColor=none;" vertex="1" parent="1">
          <mxGeometry x="434.5" y="3" width="239" height="100" as="geometry" />
        </mxCell>
        <mxCell id="Vk-62K6m2aPXj279RXAr-14" value="&lt;font size=&quot;1&quot;&gt;&lt;b style=&quot;font-size: 20px;&quot;&gt;&lt;font color=&quot;#123f67&quot;&gt;@小白debug&lt;/font&gt;&lt;br&gt;&lt;/b&gt;&lt;/font&gt;" style="text;html=1;strokeColor=none;fillColor=none;align=center;verticalAlign=middle;whiteSpace=wrap;rounded=0;opacity=30;textOpacity=30;" vertex="1" parent="1">
          <mxGeometry x="405" y="131" width="145" height="32" as="geometry" />
        </mxCell>
        <mxCell id="Vk-62K6m2aPXj279RXAr-15" value="" style="rounded=1;whiteSpace=wrap;html=1;fillColor=none;strokeWidth=3;dashed=1;strokeColor=#123f67;" vertex="1" parent="1">
          <mxGeometry x="742" y="-98" width="318" height="449" as="geometry" />
        </mxCell>
        <mxCell id="Vk-62K6m2aPXj279RXAr-16" value="&lt;font style=&quot;font-size: 32px;&quot;&gt;存储层&lt;/font&gt;" style="rounded=1;whiteSpace=wrap;html=1;fontSize=22;fontColor=#FFFFFF;fillColor=#4A919B;strokeColor=none;" vertex="1" parent="1">
          <mxGeometry x="785.25" y="197" width="237.5" height="105" as="geometry" />
        </mxCell>
        <mxCell id="Vk-62K6m2aPXj279RXAr-17" value="" style="shape=flexArrow;endArrow=classic;html=1;rounded=0;fontSize=16;fontColor=#000000;fillColor=#FDD276;strokeColor=none;endWidth=35.714285714285715;endSize=7.885714285714285;width=20.714285714285715;" edge="1" parent="1">
          <mxGeometry width="50" height="50" relative="1" as="geometry">
            <mxPoint x="898" y="109.25" as="sourcePoint" />
            <mxPoint x="898.24" y="186.75" as="targetPoint" />
          </mxGeometry>
        </mxCell>
        <mxCell id="Vk-62K6m2aPXj279RXAr-18" value="&lt;font size=&quot;1&quot;&gt;&lt;b style=&quot;&quot;&gt;&lt;font style=&quot;font-size: 29px;&quot; color=&quot;#123f67&quot;&gt;存算一体架构&lt;/font&gt;&lt;br&gt;&lt;/b&gt;&lt;/font&gt;" style="text;html=1;strokeColor=none;fillColor=none;align=center;verticalAlign=middle;whiteSpace=wrap;rounded=0;" vertex="1" parent="1">
          <mxGeometry x="801" y="-82" width="206" height="32" as="geometry" />
        </mxCell>
        <mxCell id="Vk-62K6m2aPXj279RXAr-19" value="&lt;font style=&quot;font-size: 32px;&quot; color=&quot;#000000&quot;&gt;计算层&lt;/font&gt;" style="rounded=1;whiteSpace=wrap;html=1;fontSize=22;fontColor=#FFFFFF;fillColor=#9AC7BF;strokeColor=none;" vertex="1" parent="1">
          <mxGeometry x="784.5" y="-3" width="239" height="100" as="geometry" />
        </mxCell>
        <mxCell id="Vk-62K6m2aPXj279RXAr-20" value="&lt;font size=&quot;1&quot;&gt;&lt;b style=&quot;font-size: 20px;&quot;&gt;&lt;font color=&quot;#123f67&quot;&gt;@小白debug&lt;/font&gt;&lt;br&gt;&lt;/b&gt;&lt;/font&gt;" style="text;html=1;strokeColor=none;fillColor=none;align=center;verticalAlign=middle;whiteSpace=wrap;rounded=0;opacity=30;textOpacity=30;" vertex="1" parent="1">
          <mxGeometry x="755" y="125" width="145" height="32" as="geometry" />
        </mxCell>
      </root>
    </mxGraphModel>
  </diagram>
</mxfile>
